999
DXF created by Inkscape
  0
SECTION
  2
HEADER
  9
$ACADVER
  1
AC1014
  9
$HANDSEED
  5
FFFF
  9
$MEASUREMENT
 70
     1
  0
ENDSEC
  0
SECTION
  2
TABLES
  0
TABLE
  2
VPORT
  5
8
330
0
100
AcDbSymbolTable
 70
     4
  0
VPORT
  5
2E
330
8
100
AcDbSymbolTableRecord
100
AcDbViewportTableRecord
  2
*ACTIVE
 70
     0
 10
0.0
 20
0.0
 11
1.0
 21
1.0
 12
210.0
 22
148.5
 13
0.0
 23
0.0
 14
10.0
 24
10.0
 15
10.0
 25
10.0
 16
0.0
 26
0.0
 36
1.0
 17
0.0
 27
0.0
 37
0.0
 40
341.0
 41
1.24
 42
50.0
 43
0.0
 44
0.0
 50
0.0
 51
0.0
 71
     0
 72
   100
 73
     1
 74
     3
 75
     0
 76
     0
 77
     0
 78
     0
  0
ENDTAB
  0
TABLE
  2
LTYPE
  5
5
330
0
100
AcDbSymbolTable
 70
     1
  0
LTYPE
  5
14
330
5
100
AcDbSymbolTableRecord
100
AcDbLinetypeTableRecord
  2
BYBLOCK
 70
     0
  3

 72
    65
 73
     0
 40
0.0
  0
LTYPE
  5
15
330
5
100
AcDbSymbolTableRecord
100
AcDbLinetypeTableRecord
  2
BYLAYER
 70
     0
  3

 72
    65
 73
     0
 40
0.0
  0
LTYPE
  5
16
330
5
100
AcDbSymbolTableRecord
100
AcDbLinetypeTableRecord
  2
CONTINUOUS
 70
     0
  3
Solid line
 72
    65
 73
     0
 40
0.0
  0
ENDTAB
  0
TABLE
  2
LAYER
  5
2
330
0
100
AcDbSymbolTable
 70
1
  0
LAYER
  5
10
330
2
100
AcDbSymbolTableRecord
100
AcDbLayerTableRecord
  2
0
 70
     0
 62
     7
  6
CONTINUOUS
  0
ENDTAB
  0
TABLE
  2
STYLE
  5
3
330
0
100
AcDbSymbolTable
 70
     1
  0
STYLE
  5
11
330
3
100
AcDbSymbolTableRecord
100
AcDbTextStyleTableRecord
  2
STANDARD
 70
     0
 40
0.0
 41
1.0
 50
0.0
 71
     0
 42
2.5
  3
txt
  4

  0
ENDTAB
  0
TABLE
  2
VIEW
  5
6
330
0
100
AcDbSymbolTable
 70
     0
  0
ENDTAB
  0
TABLE
  2
UCS
  5
7
330
0
100
AcDbSymbolTable
 70
     0
  0
ENDTAB
  0
TABLE
  2
APPID
  5
9
330
0
100
AcDbSymbolTable
 70
     2
  0
APPID
  5
12
330
9
100
AcDbSymbolTableRecord
100
AcDbRegAppTableRecord
  2
ACAD
 70
     0
  0
ENDTAB
  0
TABLE
  2
DIMSTYLE
  5
A
330
0
100
AcDbSymbolTable
 70
     1
  0
DIMSTYLE
105
27
330
A
100
AcDbSymbolTableRecord
100
AcDbDimStyleTableRecord
  2
ISO-25
 70
     0
  3

  4

  5

  6

  7

 40
1.0
 41
2.5
 42
0.625
 43
3.75
 44
1.25
 45
0.0
 46
0.0
 47
0.0
 48
0.0
140
2.5
141
2.5
142
0.0
143
0.03937007874016
144
1.0
145
0.0
146
1.0
147
0.625
 71
     0
 72
     0
 73
     0
 74
     0
 75
     0
 76
     0
 77
     1
 78
     8
170
     0
171
     3
172
     1
173
     0
174
     0
175
     0
176
     0
177
     0
178
     0
270
     2
271
     2
272
     2
273
     2
274
     3
340
11
275
     0
280
     0
281
     0
282
     0
283
     0
284
     8
285
     0
286
     0
287
     3
288
     0
  0
ENDTAB
  0
TABLE
  2
BLOCK_RECORD
  5
1
330
0
100
AcDbSymbolTable
 70
     1
  0
BLOCK_RECORD
  5
1F
330
1
100
AcDbSymbolTableRecord
100
AcDbBlockTableRecord
  2
*MODEL_SPACE
  0
BLOCK_RECORD
  5
1B
330
1
100
AcDbSymbolTableRecord
100
AcDbBlockTableRecord
  2
*PAPER_SPACE
  0
ENDTAB
  0
ENDSEC
  0
SECTION
  2
BLOCKS
  0
BLOCK
  5
20
330
1F
100
AcDbEntity
  8
0
100
AcDbBlockBegin
  2
*MODEL_SPACE
 70
     0
 10
0.0
 20
0.0
 30
0.0
  3
*MODEL_SPACE
  1

  0
ENDBLK
  5
21
330
1F
100
AcDbEntity
  8
0
100
AcDbBlockEnd
  0
BLOCK
  5
1C
330
1B
100
AcDbEntity
 67
     1
  8
0
100
AcDbBlockBegin
  2
*PAPER_SPACE
  1

  0
ENDBLK
  5
1D
330
1B
100
AcDbEntity
 67
     1
  8
0
100
AcDbBlockEnd
  0
ENDSEC
  0
SECTION
  2
ENTITIES
  0
LWPOLYLINE
  5
100
100
AcDbEntity
  8
0
 62
7
100
AcDbPolyline
 90
113
 70
0
 10
38.664444
 20
85.101232
 30
0.0
 10
43.496244
 20
84.465345
 30
0.0
 10
48.094547
 20
83.079066
 30
0.0
 10
52.396517
 20
81.010096
 30
0.0
 10
56.339317
 20
78.326135
 30
0.0
 10
59.860104
 20
75.094884
 30
0.0
 10
61.442608
 20
73.295180
 30
0.0
 10
62.896044
 20
71.384042
 30
0.0
 10
64.212557
 20
69.369931
 30
0.0
 10
65.384296
 20
67.261310
 30
0.0
 10
66.403403
 20
65.066642
 30
0.0
 10
67.262022
 20
62.794388
 30
0.0
 10
67.419643
 20
62.312784
 30
0.0
 10
67.573404
 20
61.815463
 30
0.0
 10
67.722485
 20
61.304432
 30
0.0
 10
67.866065
 20
60.781702
 30
0.0
 10
68.133460
 20
59.709180
 30
0.0
 10
68.369036
 20
58.613971
 30
0.0
 10
68.566250
 20
57.512148
 30
0.0
 10
68.718551
 20
56.419781
 30
0.0
 10
68.819389
 20
55.352950
 30
0.0
 10
68.862222
 20
54.327721
 30
0.0
 10
68.869306
 20
52.413555
 30
0.0
 10
68.833732
 20
50.637005
 30
0.0
 10
68.740082
 20
48.955771
 30
0.0
 10
68.572944
 20
47.327552
 30
0.0
 10
68.316904
 20
45.710049
 30
0.0
 10
67.956554
 20
44.060962
 30
0.0
 10
67.732444
 20
43.211355
 30
0.0
 10
67.476477
 20
42.337990
 30
0.0
 10
67.186728
 20
41.435579
 30
0.0
 10
66.861267
 20
40.498832
 30
0.0
 10
66.234146
 20
38.912267
 30
0.0
 10
65.506656
 20
37.353257
 30
0.0
 10
64.683998
 20
35.827005
 30
0.0
 10
63.771374
 20
34.338714
 30
0.0
 10
62.773983
 20
32.893584
 30
0.0
 10
61.697029
 20
31.496816
 30
0.0
 10
60.545712
 20
30.153607
 30
0.0
 10
59.325228
 20
28.869160
 30
0.0
 10
58.040781
 20
27.648676
 30
0.0
 10
56.697572
 20
26.497359
 30
0.0
 10
55.300804
 20
25.420405
 30
0.0
 10
53.855674
 20
24.423014
 30
0.0
 10
52.367383
 20
23.510390
 30
0.0
 10
50.841131
 20
22.687732
 30
0.0
 10
49.282121
 20
21.960242
 30
0.0
 10
47.695556
 20
21.333121
 30
0.0
 10
45.856398
 20
20.717911
 30
0.0
 10
44.133426
 20
20.237834
 30
0.0
 10
42.484339
 20
19.877484
 30
0.0
 10
40.866836
 20
19.621444
 30
0.0
 10
39.238617
 20
19.454303
 30
0.0
 10
37.557383
 20
19.360653
 30
0.0
 10
35.780833
 20
19.325076
 30
0.0
 10
33.866667
 20
19.332166
 30
0.0
 10
32.777108
 20
19.377493
 30
0.0
 10
31.668994
 20
19.483640
 30
0.0
 10
30.551024
 20
19.643962
 30
0.0
 10
29.431897
 20
19.851807
 30
0.0
 10
28.320311
 20
20.100533
 30
0.0
 10
27.224963
 20
20.383489
 30
0.0
 10
26.154553
 20
20.694026
 30
0.0
 10
25.117778
 20
21.025499
 30
0.0
 10
20.278631
 20
23.073098
 30
0.0
 10
15.976027
 20
25.769389
 30
0.0
 10
12.235067
 20
29.046839
 30
0.0
 10
9.080853
 20
32.837910
 30
0.0
 10
6.538488
 20
37.075068
 30
0.0
 10
4.633075
 20
41.690781
 30
0.0
 10
3.389715
 20
46.617509
 30
0.0
 10
2.833511
 20
51.787721
 30
0.0
 10
2.823992
 20
52.231019
 30
0.0
 10
2.831440
 20
52.608901
 30
0.0
 10
2.852711
 20
52.941138
 30
0.0
 10
2.884665
 20
53.247516
 30
0.0
 10
2.924159
 20
53.547806
 30
0.0
 10
2.968053
 20
53.861789
 30
0.0
 10
3.013203
 20
54.209244
 30
0.0
 10
3.056467
 20
54.609944
 30
0.0
 10
3.211095
 20
56.170415
 30
0.0
 10
3.374425
 20
57.596193
 30
0.0
 10
3.565525
 20
58.928251
 30
0.0
 10
3.803462
 20
60.207552
 30
0.0
 10
4.107304
 20
61.475069
 30
0.0
 10
4.496118
 20
62.771771
 30
0.0
 10
4.988972
 20
64.138629
 30
0.0
 10
5.604933
 20
65.616610
 30
0.0
 10
7.258358
 20
68.874356
 30
0.0
 10
9.225721
 20
71.894208
 30
0.0
 10
11.487492
 20
74.658711
 30
0.0
 10
14.024140
 20
77.150410
 30
0.0
 10
16.816134
 20
79.351851
 30
0.0
 10
19.843944
 20
81.245579
 30
0.0
 10
23.088039
 20
82.814139
 30
0.0
 10
26.528889
 20
84.040077
 30
0.0
 10
27.610660
 20
84.331372
 30
0.0
 10
28.620861
 20
84.547989
 30
0.0
 10
29.581850
 20
84.707323
 30
0.0
 10
30.515983
 20
84.826771
 30
0.0
 10
31.445618
 20
84.923730
 30
0.0
 10
32.393114
 20
85.015595
 30
0.0
 10
33.380827
 20
85.119764
 30
0.0
 10
34.431111
 20
85.253632
 30
0.0
 10
35.204868
 20
85.332859
 30
0.0
 10
35.802578
 20
85.363567
 30
0.0
 10
36.277324
 20
85.355978
 30
0.0
 10
36.682186
 20
85.320309
 30
0.0
 10
37.070247
 20
85.266780
 30
0.0
 10
37.494588
 20
85.205612
 30
0.0
 10
38.008295
 20
85.147023
 30
0.0
 10
38.664444
 20
85.101232
 30
0.0
 10
38.664444
 20
85.101232
 30
0.0
  0
LWPOLYLINE
  5
101
100
AcDbEntity
  8
0
 62
7
100
AcDbPolyline
 90
138
 70
0
 10
44.873333
 20
82.146366
 30
0.0
 10
44.080405
 20
82.360673
 30
0.0
 10
43.217262
 20
82.569655
 30
0.0
 10
42.306296
 20
82.766930
 30
0.0
 10
41.369897
 20
82.946113
 30
0.0
 10
40.430456
 20
83.100823
 30
0.0
 10
39.510360
 20
83.224675
 30
0.0
 10
38.632006
 20
83.311288
 30
0.0
 10
37.817778
 20
83.354277
 30
0.0
 10
37.696510
 20
83.354277
 30
0.0
 10
37.376806
 20
83.354277
 30
0.0
 10
36.924810
 20
83.354277
 30
0.0
 10
36.406667
 20
83.354277
 30
0.0
 10
35.888524
 20
83.354277
 30
0.0
 10
35.436528
 20
83.354277
 30
0.0
 10
35.116824
 20
83.354277
 30
0.0
 10
34.995556
 20
83.354277
 30
0.0
 10
33.842158
 20
83.360788
 30
0.0
 10
32.782493
 20
83.319044
 30
0.0
 10
31.788309
 20
83.229213
 30
0.0
 10
30.831367
 20
83.091459
 30
0.0
 10
29.883419
 20
82.905947
 30
0.0
 10
28.916224
 20
82.672844
 30
0.0
 10
27.901536
 20
82.392314
 30
0.0
 10
26.811111
 20
82.064521
 30
0.0
 10
22.317792
 20
80.282090
 30
0.0
 10
18.168496
 20
77.842830
 30
0.0
 10
14.440021
 20
74.819370
 30
0.0
 10
11.209161
 20
71.284338
 30
0.0
 10
8.552711
 20
67.310362
 30
0.0
 10
6.547467
 20
62.970071
 30
0.0
 10
5.270224
 20
58.336093
 30
0.0
 10
4.797778
 20
53.481055
 30
0.0
 10
5.498483
 20
53.532958
 30
0.0
 10
6.018212
 20
53.435369
 30
0.0
 10
6.386865
 20
53.205228
 30
0.0
 10
6.634339
 20
52.859460
 30
0.0
 10
6.790531
 20
52.415005
 30
0.0
 10
6.885340
 20
51.888794
 30
0.0
 10
6.948664
 20
51.297758
 30
0.0
 10
7.010400
 20
50.658832
 30
0.0
 10
7.219338
 20
48.865056
 30
0.0
 10
7.459530
 20
47.198875
 30
0.0
 10
7.751118
 20
45.625961
 30
0.0
 10
8.114242
 20
44.111982
 30
0.0
 10
8.569044
 20
42.622611
 30
0.0
 10
9.135666
 20
41.123514
 30
0.0
 10
9.834248
 20
39.580366
 30
0.0
 10
10.684933
 20
37.958832
 30
0.0
 10
12.900168
 20
34.541782
 30
0.0
 10
15.438526
 20
31.611302
 30
0.0
 10
18.276259
 20
29.150191
 30
0.0
 10
21.389622
 20
27.141255
 30
0.0
 10
24.754869
 20
25.567293
 30
0.0
 10
28.348251
 20
24.411107
 30
0.0
 10
32.146026
 20
23.655503
 30
0.0
 10
36.124444
 20
23.283277
 30
0.0
 10
36.124444
 20
23.186263
 30
0.0
 10
36.124444
 20
22.930499
 30
0.0
 10
36.124444
 20
22.568902
 30
0.0
 10
36.124444
 20
22.154388
 30
0.0
 10
36.124444
 20
21.739874
 30
0.0
 10
36.124444
 20
21.378277
 30
0.0
 10
36.124444
 20
21.122513
 30
0.0
 10
36.124444
 20
21.025499
 30
0.0
 10
36.857164
 20
21.148613
 30
0.0
 10
37.402558
 20
21.223540
 30
0.0
 10
37.815131
 20
21.262681
 30
0.0
 10
38.459833
 20
21.283199
 30
0.0
 10
38.800969
 20
21.289408
 30
0.0
 10
39.227300
 20
21.309446
 30
0.0
 10
39.793333
 20
21.355699
 30
0.0
 10
40.613381
 20
21.467247
 30
0.0
 10
41.588047
 20
21.651725
 30
0.0
 10
42.663979
 20
21.893414
 30
0.0
 10
43.787836
 20
22.176613
 30
0.0
 10
44.906269
 20
22.485607
 30
0.0
 10
45.965931
 20
22.804690
 30
0.0
 10
46.913475
 20
23.118149
 30
0.0
 10
47.328531
 20
23.267862
 30
0.0
 10
47.695556
 20
23.410277
 30
0.0
 10
49.406680
 20
24.161973
 30
0.0
 10
51.049674
 20
25.001333
 30
0.0
 10
52.622938
 20
25.925664
 30
0.0
 10
54.124888
 20
26.932278
 30
0.0
 10
55.553926
 20
28.018480
 30
0.0
 10
56.908466
 20
29.181583
 30
0.0
 10
58.186910
 20
30.418893
 30
0.0
 10
59.387672
 20
31.727719
 30
0.0
 10
60.509158
 20
33.105367
 30
0.0
 10
61.549777
 20
34.549151
 30
0.0
 10
62.507935
 20
36.056378
 30
0.0
 10
63.382042
 20
37.624354
 30
0.0
 10
64.170509
 20
39.250391
 30
0.0
 10
64.871741
 20
40.931795
 30
0.0
 10
65.484146
 20
42.665876
 30
0.0
 10
66.006133
 20
44.449944
 30
0.0
 10
66.073497
 20
44.704598
 30
0.0
 10
66.139955
 20
44.954712
 30
0.0
 10
66.269176
 20
45.444334
 30
0.0
 10
66.391846
 20
45.924831
 30
0.0
 10
66.506019
 20
46.402216
 30
0.0
 10
66.609742
 20
46.882513
 30
0.0
 10
66.701060
 20
47.371737
 30
0.0
 10
66.778028
 20
47.875912
 30
0.0
 10
66.838689
 20
48.401055
 30
0.0
 10
67.017172
 20
52.170209
 30
0.0
 10
66.961893
 20
54.015609
 30
0.0
 10
66.809761
 20
55.832937
 30
0.0
 10
66.560395
 20
57.620730
 30
0.0
 10
66.213411
 20
59.377526
 30
0.0
 10
65.768434
 20
61.101861
 30
0.0
 10
65.225083
 20
62.792271
 30
0.0
 10
64.582974
 20
64.447294
 30
0.0
 10
63.841732
 20
66.065465
 30
0.0
 10
63.000972
 20
67.645321
 30
0.0
 10
62.060314
 20
69.185398
 30
0.0
 10
61.019380
 20
70.684234
 30
0.0
 10
59.877788
 20
72.140364
 30
0.0
 10
58.635158
 20
73.552326
 30
0.0
 10
57.291111
 20
74.918655
 30
0.0
 10
56.590621
 20
75.579369
 30
0.0
 10
55.946455
 20
76.155185
 30
0.0
 10
55.334766
 20
76.667038
 30
0.0
 10
54.731708
 20
77.135863
 30
0.0
 10
54.113438
 20
77.582595
 30
0.0
 10
53.456109
 20
78.028170
 30
0.0
 10
52.735872
 20
78.493523
 30
0.0
 10
51.928889
 20
78.999588
 30
0.0
 10
51.076321
 20
79.425246
 30
0.0
 10
50.213528
 20
79.863377
 30
0.0
 10
49.341425
 20
80.303128
 30
0.0
 10
48.460928
 20
80.733648
 30
0.0
 10
47.572953
 20
81.144085
 30
0.0
 10
46.678418
 20
81.523584
 30
0.0
 10
45.778239
 20
81.861296
 30
0.0
 10
44.873333
 20
82.146366
 30
0.0
 10
44.873333
 20
82.146366
 30
0.0
  0
LWPOLYLINE
  5
102
100
AcDbEntity
  8
0
 62
7
100
AcDbPolyline
 90
258
 70
0
 10
16.651111
 20
60.254388
 30
0.0
 10
16.942467
 20
60.324040
 30
0.0
 10
17.258462
 20
60.402025
 30
0.0
 10
17.587488
 20
60.491918
 30
0.0
 10
17.917936
 20
60.597288
 30
0.0
 10
18.238198
 20
60.721708
 30
0.0
 10
18.536664
 20
60.868750
 30
0.0
 10
18.801727
 20
61.041986
 30
0.0
 10
19.021778
 20
61.244988
 30
0.0
 10
19.253437
 20
61.628110
 30
0.0
 10
19.392856
 20
62.116570
 30
0.0
 10
19.463946
 20
62.681031
 30
0.0
 10
19.490619
 20
63.292157
 30
0.0
 10
19.496788
 20
63.920614
 30
0.0
 10
19.506364
 20
64.537066
 30
0.0
 10
19.543257
 20
65.112177
 30
0.0
 10
19.631378
 20
65.616610
 30
0.0
 10
20.087817
 20
66.748276
 30
0.0
 10
20.747655
 20
67.566938
 30
0.0
 10
21.572196
 20
68.122868
 30
0.0
 10
22.522744
 20
68.466338
 30
0.0
 10
23.560606
 20
68.647620
 30
0.0
 10
24.647084
 20
68.716986
 30
0.0
 10
25.743484
 20
68.724707
 30
0.0
 10
26.811111
 20
68.721055
 30
0.0
 10
27.812212
 20
68.779328
 30
0.0
 10
28.501137
 20
68.935445
 30
0.0
 10
28.959147
 20
69.186684
 30
0.0
 10
29.267503
 20
69.530327
 30
0.0
 10
29.507462
 20
69.963659
 30
0.0
 10
29.760288
 20
70.483973
 30
0.0
 10
30.107241
 20
71.088557
 30
0.0
 10
30.629578
 20
71.774699
 30
0.0
 10
31.034451
 20
72.175829
 30
0.0
 10
31.515358
 20
72.553809
 30
0.0
 10
32.054408
 20
72.902419
 30
0.0
 10
32.633708
 20
73.215444
 30
0.0
 10
33.235367
 20
73.486664
 30
0.0
 10
33.841487
 20
73.709862
 30
0.0
 10
34.434182
 20
73.878820
 30
0.0
 10
34.995556
 20
73.987321
 30
0.0
 10
35.683594
 20
74.028051
 30
0.0
 10
36.398287
 20
73.966551
 30
0.0
 10
37.122111
 20
73.813043
 30
0.0
 10
37.837533
 20
73.577746
 30
0.0
 10
38.527028
 20
73.270879
 30
0.0
 10
39.173063
 20
72.902662
 30
0.0
 10
39.758112
 20
72.483314
 30
0.0
 10
40.264644
 20
72.023055
 30
0.0
 10
40.656214
 20
71.572894
 30
0.0
 10
40.977335
 20
71.122662
 30
0.0
 10
41.246196
 20
70.682877
 30
0.0
 10
41.480994
 20
70.264062
 30
0.0
 10
41.699922
 20
69.876737
 30
0.0
 10
41.921170
 20
69.531425
 30
0.0
 10
42.162933
 20
69.238646
 30
0.0
 10
42.443400
 20
69.008921
 30
0.0
 10
42.667383
 20
68.896028
 30
0.0
 10
42.921033
 20
68.816262
 30
0.0
 10
43.195864
 20
68.764033
 30
0.0
 10
43.483389
 20
68.733755
 30
0.0
 10
43.775136
 20
68.719864
 30
0.0
 10
44.062650
 20
68.716821
 30
0.0
 10
44.337464
 20
68.719079
 30
0.0
 10
44.591111
 20
68.721055
 30
0.0
 10
45.045991
 20
68.723510
 30
0.0
 10
45.543038
 20
68.729039
 30
0.0
 10
46.066741
 20
68.731720
 30
0.0
 10
46.601592
 20
68.725641
 30
0.0
 10
47.132076
 20
68.704878
 30
0.0
 10
47.642684
 20
68.663509
 30
0.0
 10
48.117901
 20
68.595616
 30
0.0
 10
48.542222
 20
68.495277
 30
0.0
 10
49.459047
 20
68.140757
 30
0.0
 10
50.178231
 20
67.697470
 30
0.0
 10
50.723049
 20
67.168722
 30
0.0
 10
51.116794
 20
66.557821
 30
0.0
 10
51.382744
 20
65.868075
 30
0.0
 10
51.544186
 20
65.102789
 30
0.0
 10
51.624397
 20
64.265273
 30
0.0
 10
51.646667
 20
63.358832
 30
0.0
 10
51.646667
 20
63.116298
 30
0.0
 10
51.646667
 20
62.476888
 30
0.0
 10
51.646667
 20
61.572895
 30
0.0
 10
51.646667
 20
60.536610
 30
0.0
 10
51.646667
 20
59.500324
 30
0.0
 10
51.646667
 20
58.596332
 30
0.0
 10
51.646667
 20
57.956921
 30
0.0
 10
51.646667
 20
57.714388
 30
0.0
 10
52.748694
 20
58.089456
 30
0.0
 10
53.766816
 20
58.627907
 30
0.0
 10
54.726665
 20
59.275099
 30
0.0
 10
55.653869
 20
59.976399
 30
0.0
 10
56.574063
 20
60.677170
 30
0.0
 10
57.512876
 20
61.322775
 30
0.0
 10
58.495940
 20
61.858579
 30
0.0
 10
59.548889
 20
62.229944
 30
0.0
 10
59.548889
 20
61.381072
 30
0.0
 10
59.548889
 20
59.143138
 30
0.0
 10
59.548889
 20
55.979162
 30
0.0
 10
59.548889
 20
52.352166
 30
0.0
 10
59.548889
 20
48.725170
 30
0.0
 10
59.548889
 20
45.561194
 30
0.0
 10
59.548889
 20
43.323259
 30
0.0
 10
59.548889
 20
42.474388
 30
0.0
 10
59.209342
 20
42.680543
 30
0.0
 10
58.314167
 20
43.224041
 30
0.0
 10
57.048578
 20
43.992436
 30
0.0
 10
55.597778
 20
44.873277
 30
0.0
 10
54.146981
 20
45.754118
 30
0.0
 10
52.881389
 20
46.522513
 30
0.0
 10
51.986217
 20
47.066011
 30
0.0
 10
51.646667
 20
47.272166
 30
0.0
 10
51.662302
 20
46.315252
 30
0.0
 10
51.693490
 20
45.132348
 30
0.0
 10
51.716604
 20
43.807298
 30
0.0
 10
51.708053
 20
42.423941
 30
0.0
 10
51.644189
 20
41.066116
 30
0.0
 10
51.501413
 20
39.817664
 30
0.0
 10
51.256111
 20
38.762421
 30
0.0
 10
50.884669
 20
37.984232
 30
0.0
 10
50.705481
 20
37.755590
 30
0.0
 10
50.514781
 20
37.547319
 30
0.0
 10
50.312176
 20
37.358365
 30
0.0
 10
50.097267
 20
37.187666
 30
0.0
 10
49.869660
 20
37.034165
 30
0.0
 10
49.628956
 20
36.896802
 30
0.0
 10
49.374758
 20
36.774518
 30
0.0
 10
49.106667
 20
36.666255
 30
0.0
 10
48.286664
 20
36.465916
 30
0.0
 10
47.181115
 20
36.334562
 30
0.0
 10
45.878583
 20
36.259163
 30
0.0
 10
44.467639
 20
36.226694
 30
0.0
 10
43.036848
 20
36.224154
 30
0.0
 10
41.674785
 20
36.238462
 30
0.0
 10
40.470018
 20
36.256609
 30
0.0
 10
39.511111
 20
36.265499
 30
0.0
 10
39.511676
 20
36.621054
 30
0.0
 10
39.511582
 20
36.981110
 30
0.0
 10
39.504414
 20
37.343015
 30
0.0
 10
39.483840
 20
37.704127
 30
0.0
 10
39.443564
 20
38.061798
 30
0.0
 10
39.377256
 20
38.413388
 30
0.0
 10
39.278605
 20
38.756243
 30
0.0
 10
39.141400
 20
39.087721
 30
0.0
 10
38.547698
 20
40.022918
 30
0.0
 10
37.815486
 20
40.733122
 30
0.0
 10
36.981407
 20
41.212143
 30
0.0
 10
36.082111
 20
41.453802
 30
0.0
 10
35.154241
 20
41.451826
 30
0.0
 10
34.234439
 20
41.200203
 30
0.0
 10
33.359350
 20
40.692660
 30
0.0
 10
32.565622
 20
39.923014
 30
0.0
 10
32.235473
 20
39.473454
 30
0.0
 10
31.991873
 20
39.041157
 30
0.0
 10
31.821631
 20
38.616402
 30
0.0
 10
31.711547
 20
38.189464
 30
0.0
 10
31.648428
 20
37.750620
 30
0.0
 10
31.619074
 20
37.290146
 30
0.0
 10
31.610297
 20
36.798318
 30
0.0
 10
31.608889
 20
36.265499
 30
0.0
 10
31.414861
 20
36.265499
 30
0.0
 10
30.903333
 20
36.265499
 30
0.0
 10
30.180139
 20
36.265499
 30
0.0
 10
29.351111
 20
36.265499
 30
0.0
 10
28.522083
 20
36.265499
 30
0.0
 10
27.798889
 20
36.265499
 30
0.0
 10
27.287361
 20
36.265499
 30
0.0
 10
27.093333
 20
36.265499
 30
0.0
 10
26.086913
 20
36.256355
 30
0.0
 10
25.036374
 20
36.256920
 30
0.0
 10
23.976971
 20
36.308916
 30
0.0
 10
22.943961
 20
36.454342
 30
0.0
 10
21.972599
 20
36.735103
 30
0.0
 10
21.098140
 20
37.193104
 30
0.0
 10
20.355840
 20
37.870243
 30
0.0
 10
19.780956
 20
38.808321
 30
0.0
 10
19.634272
 20
39.286440
 30
0.0
 10
19.535643
 20
39.908062
 30
0.0
 10
19.476503
 20
40.628835
 30
0.0
 10
19.448286
 20
41.404413
 30
0.0
 10
19.442427
 20
42.190441
 30
0.0
 10
19.450360
 20
42.942569
 30
0.0
 10
19.463518
 20
43.616445
 30
0.0
 10
19.473333
 20
44.167721
 30
0.0
 10
19.479325
 20
44.502612
 30
0.0
 10
19.490047
 20
44.794740
 30
0.0
 10
19.507316
 20
45.057960
 30
0.0
 10
19.532953
 20
45.306135
 30
0.0
 10
19.568776
 20
45.553119
 30
0.0
 10
19.616605
 20
45.812769
 30
0.0
 10
19.678259
 20
46.098943
 30
0.0
 10
19.755556
 20
46.425499
 30
0.0
 10
18.997381
 20
46.588031
 30
0.0
 10
18.073247
 20
46.806059
 30
0.0
 10
17.043411
 20
47.068932
 30
0.0
 10
15.968133
 20
47.366005
 30
0.0
 10
14.907672
 20
47.686623
 30
0.0
 10
13.922287
 20
48.020142
 30
0.0
 10
13.072236
 20
48.355910
 30
0.0
 10
12.417778
 20
48.683277
 30
0.0
 10
13.033689
 20
48.995942
 30
0.0
 10
13.885377
 20
49.340457
 30
0.0
 10
14.897999
 20
49.696548
 30
0.0
 10
15.996708
 20
50.043941
 30
0.0
 10
17.106663
 20
50.362361
 30
0.0
 10
18.153018
 20
50.631536
 30
0.0
 10
19.060930
 20
50.831191
 30
0.0
 10
19.755556
 20
50.941055
 30
0.0
 10
19.755556
 20
50.965298
 30
0.0
 10
19.755556
 20
51.029238
 30
0.0
 10
19.755556
 20
51.119636
 30
0.0
 10
19.755556
 20
51.223266
 30
0.0
 10
19.755556
 20
51.326895
 30
0.0
 10
19.755556
 20
51.417293
 30
0.0
 10
19.755556
 20
51.481234
 30
0.0
 10
19.755556
 20
51.505477
 30
0.0
 10
19.113494
 20
51.587479
 30
0.0
 10
18.472456
 20
51.711180
 30
0.0
 10
17.832938
 20
51.867754
 30
0.0
 10
17.195439
 20
52.048373
 30
0.0
 10
16.560454
 20
52.244210
 30
0.0
 10
15.928481
 20
52.446436
 30
0.0
 10
15.300016
 20
52.646222
 30
0.0
 10
14.675556
 20
52.834766
 30
0.0
 10
14.315305
 20
52.933524
 30
0.0
 10
13.985426
 20
53.020739
 30
0.0
 10
13.681877
 20
53.109690
 30
0.0
 10
13.400617
 20
53.213649
 30
0.0
 10
13.137610
 20
53.345907
 30
0.0
 10
12.888824
 20
53.519773
 30
0.0
 10
12.650225
 20
53.748536
 30
0.0
 10
12.417778
 20
54.045499
 30
0.0
 10
12.745200
 20
54.142513
 30
0.0
 10
13.608403
 20
54.398277
 30
0.0
 10
14.828793
 20
54.759874
 30
0.0
 10
16.227778
 20
55.174388
 30
0.0
 10
17.626762
 20
55.588902
 30
0.0
 10
18.847153
 20
55.950499
 30
0.0
 10
19.710356
 20
56.206263
 30
0.0
 10
20.037778
 20
56.303277
 30
0.0
 10
19.219118
 20
56.516453
 30
0.0
 10
18.198615
 20
56.786317
 30
0.0
 10
17.053030
 20
57.104469
 30
0.0
 10
15.859125
 20
57.462505
 30
0.0
 10
14.693663
 20
57.852028
 30
0.0
 10
13.633406
 20
58.264634
 30
0.0
 10
12.755116
 20
58.691924
 30
0.0
 10
12.135556
 20
59.125499
 30
0.0
 10
12.329583
 20
59.174005
 30
0.0
 10
12.841111
 20
59.301888
 30
0.0
 10
13.564306
 20
59.482685
 30
0.0
 10
14.393333
 20
59.689944
 30
0.0
 10
15.222361
 20
59.897202
 30
0.0
 10
15.945556
 20
60.077999
 30
0.0
 10
16.457083
 20
60.205881
 30
0.0
 10
16.651111
 20
60.254388
 30
0.0
 10
16.651111
 20
60.254388
 30
0.0
  0
LWPOLYLINE
  5
103
100
AcDbEntity
  8
0
 62
7
100
AcDbPolyline
 90
250
 70
0
 10
38.943844
 20
69.556432
 30
0.0
 10
38.359187
 20
70.254221
 30
0.0
 10
37.627323
 20
70.773648
 30
0.0
 10
36.792335
 20
71.112827
 30
0.0
 10
35.898314
 20
71.269874
 30
0.0
 10
34.989344
 20
71.242902
 30
0.0
 10
34.109510
 20
71.030028
 30
0.0
 10
33.302900
 20
70.629366
 30
0.0
 10
32.613600
 20
70.039031
 30
0.0
 10
32.270855
 20
69.599729
 30
0.0
 10
32.016878
 20
69.150869
 30
0.0
 10
31.838305
 20
68.691095
 30
0.0
 10
31.721778
 20
68.219051
 30
0.0
 10
31.653934
 20
67.733380
 30
0.0
 10
31.621411
 20
67.232728
 30
0.0
 10
31.610856
 20
66.715738
 30
0.0
 10
31.608889
 20
66.181055
 30
0.0
 10
31.354228
 20
66.181055
 30
0.0
 10
30.682847
 20
66.181055
 30
0.0
 10
29.733655
 20
66.181055
 30
0.0
 10
28.645556
 20
66.181055
 30
0.0
 10
27.557457
 20
66.181055
 30
0.0
 10
26.608264
 20
66.181055
 30
0.0
 10
25.936884
 20
66.181055
 30
0.0
 10
25.682222
 20
66.181055
 30
0.0
 10
25.217305
 20
66.182322
 30
0.0
 10
24.724078
 20
66.176380
 30
0.0
 10
24.221325
 20
66.145435
 30
0.0
 10
23.727833
 20
66.071694
 30
0.0
 10
23.262387
 20
65.937362
 30
0.0
 10
22.843772
 20
65.724648
 30
0.0
 10
22.490774
 20
65.415758
 30
0.0
 10
22.222178
 20
64.992899
 30
0.0
 10
22.007590
 20
64.283375
 30
0.0
 10
21.948511
 20
63.542630
 30
0.0
 10
21.978993
 20
62.772781
 30
0.0
 10
22.033089
 20
61.975944
 30
0.0
 10
22.044852
 20
61.154236
 30
0.0
 10
21.948334
 20
60.309774
 30
0.0
 10
21.677588
 20
59.444676
 30
0.0
 10
21.166667
 20
58.561055
 30
0.0
 10
21.481962
 20
58.476168
 30
0.0
 10
22.313194
 20
58.252374
 30
0.0
 10
23.488385
 20
57.935978
 30
0.0
 10
24.835556
 20
57.573277
 30
0.0
 10
26.182726
 20
57.210576
 30
0.0
 10
27.357917
 20
56.894180
 30
0.0
 10
28.189149
 20
56.670386
 30
0.0
 10
28.504444
 20
56.585499
 30
0.0
 10
28.504444
 20
56.561256
 30
0.0
 10
28.504444
 20
56.497316
 30
0.0
 10
28.504444
 20
56.406917
 30
0.0
 10
28.504444
 20
56.303288
 30
0.0
 10
28.504444
 20
56.199659
 30
0.0
 10
28.504444
 20
56.109260
 30
0.0
 10
28.504444
 20
56.045320
 30
0.0
 10
28.504444
 20
56.021077
 30
0.0
 10
28.189149
 20
55.936190
 30
0.0
 10
27.357917
 20
55.712397
 30
0.0
 10
26.182726
 20
55.396000
 30
0.0
 10
24.835556
 20
55.033277
 30
0.0
 10
23.488385
 20
54.670576
 30
0.0
 10
22.313194
 20
54.354180
 30
0.0
 10
21.481962
 20
54.130386
 30
0.0
 10
21.166667
 20
54.045499
 30
0.0
 10
21.431614
 20
53.750814
 30
0.0
 10
21.708798
 20
53.526343
 30
0.0
 10
21.999608
 20
53.358161
 30
0.0
 10
22.305433
 20
53.232346
 30
0.0
 10
22.627663
 20
53.134974
 30
0.0
 10
22.967685
 20
53.052122
 30
0.0
 10
23.326890
 20
52.969863
 30
0.0
 10
23.706667
 20
52.874277
 30
0.0
 10
24.354631
 20
52.683732
 30
0.0
 10
24.984604
 20
52.480224
 30
0.0
 10
25.603729
 20
52.273011
 30
0.0
 10
26.219150
 20
52.071355
 30
0.0
 10
26.838011
 20
51.884515
 30
0.0
 10
27.467454
 20
51.721752
 30
0.0
 10
28.114625
 20
51.592328
 30
0.0
 10
28.786667
 20
51.505499
 30
0.0
 10
28.786667
 20
51.481256
 30
0.0
 10
28.786667
 20
51.417316
 30
0.0
 10
28.786667
 20
51.326917
 30
0.0
 10
28.786667
 20
51.223288
 30
0.0
 10
28.786667
 20
51.119659
 30
0.0
 10
28.786667
 20
51.029260
 30
0.0
 10
28.786667
 20
50.965320
 30
0.0
 10
28.786667
 20
50.941077
 30
0.0
 10
28.082230
 20
50.828205
 30
0.0
 10
27.149557
 20
50.621240
 30
0.0
 10
26.067329
 20
50.343037
 30
0.0
 10
24.914225
 20
50.016447
 30
0.0
 10
23.768926
 20
49.664324
 30
0.0
 10
22.710113
 20
49.309525
 30
0.0
 10
21.816467
 20
48.974897
 30
0.0
 10
21.166667
 20
48.683277
 30
0.0
 10
22.015450
 20
48.368466
 30
0.0
 10
23.016104
 20
48.058155
 30
0.0
 10
24.107510
 20
47.744668
 30
0.0
 10
25.228550
 20
47.420332
 30
0.0
 10
26.318104
 20
47.077478
 30
0.0
 10
27.315054
 20
46.708427
 30
0.0
 10
28.158281
 20
46.305510
 30
0.0
 10
28.786667
 20
45.861055
 30
0.0
 10
28.495625
 20
45.788295
 30
0.0
 10
27.728333
 20
45.596471
 30
0.0
 10
26.643542
 20
45.325273
 30
0.0
 10
25.400000
 20
45.014388
 30
0.0
 10
24.156458
 20
44.703503
 30
0.0
 10
23.071667
 20
44.432305
 30
0.0
 10
22.304375
 20
44.240481
 30
0.0
 10
22.013333
 20
44.167721
 30
0.0
 10
22.002403
 20
43.634649
 30
0.0
 10
21.981984
 20
42.998223
 30
0.0
 10
21.970627
 20
42.299292
 30
0.0
 10
21.986886
 20
41.578699
 30
0.0
 10
22.049314
 20
40.877284
 30
0.0
 10
22.176462
 20
40.235894
 30
0.0
 10
22.386884
 20
39.695374
 30
0.0
 10
22.699134
 20
39.296566
 30
0.0
 10
23.077335
 20
39.075803
 30
0.0
 10
23.576239
 20
38.925765
 30
0.0
 10
24.159935
 20
38.833865
 30
0.0
 10
24.792517
 20
38.787507
 30
0.0
 10
25.438067
 20
38.774102
 30
0.0
 10
26.060665
 20
38.781016
 30
0.0
 10
26.624393
 20
38.795692
 30
0.0
 10
27.093333
 20
38.805499
 30
0.0
 10
28.014993
 20
38.847116
 30
0.0
 10
28.623551
 20
38.962220
 30
0.0
 10
29.005428
 20
39.158421
 30
0.0
 10
29.247042
 20
39.443321
 30
0.0
 10
29.434813
 20
39.824530
 30
0.0
 10
29.655160
 20
40.309656
 30
0.0
 10
29.994507
 20
40.906302
 30
0.0
 10
30.539267
 20
41.622077
 30
0.0
 10
31.081723
 20
42.186047
 30
0.0
 10
31.686985
 20
42.700078
 30
0.0
 10
32.345892
 20
43.153121
 30
0.0
 10
33.049281
 20
43.534132
 30
0.0
 10
33.787992
 20
43.832063
 30
0.0
 10
34.552865
 20
44.035870
 30
0.0
 10
35.334736
 20
44.134504
 30
0.0
 10
36.124444
 20
44.116921
 30
0.0
 10
36.766026
 20
44.014466
 30
0.0
 10
37.390476
 20
43.840211
 30
0.0
 10
37.993628
 20
43.600141
 30
0.0
 10
38.571311
 20
43.300241
 30
0.0
 10
39.119361
 20
42.946498
 30
0.0
 10
39.633612
 20
42.544898
 30
0.0
 10
40.109896
 20
42.101431
 30
0.0
 10
40.544044
 20
41.622077
 30
0.0
 10
41.035656
 20
40.958276
 30
0.0
 10
41.367560
 20
40.387840
 30
0.0
 10
41.606529
 20
39.908618
 30
0.0
 10
41.819336
 20
39.518463
 30
0.0
 10
42.072758
 20
39.215224
 30
0.0
 10
42.433567
 20
38.996750
 30
0.0
 10
42.968537
 20
38.860891
 30
0.0
 10
43.744444
 20
38.805499
 30
0.0
 10
44.236575
 20
38.793392
 30
0.0
 10
44.838806
 20
38.777870
 30
0.0
 10
45.509894
 20
38.771124
 30
0.0
 10
46.208597
 20
38.785405
 30
0.0
 10
46.893675
 20
38.832880
 30
0.0
 10
47.523885
 20
38.925765
 30
0.0
 10
48.057985
 20
39.076266
 30
0.0
 10
48.454733
 20
39.296580
 30
0.0
 10
48.703030
 20
39.553800
 30
0.0
 10
48.880051
 20
39.846208
 30
0.0
 10
48.997608
 20
40.166132
 30
0.0
 10
49.067508
 20
40.505902
 30
0.0
 10
49.101556
 20
40.857842
 30
0.0
 10
49.111546
 20
41.214280
 30
0.0
 10
49.109289
 20
41.567543
 30
0.0
 10
49.106667
 20
41.909944
 30
0.0
 10
49.106667
 20
42.140353
 30
0.0
 10
49.106667
 20
42.747791
 30
0.0
 10
49.106667
 20
43.606585
 30
0.0
 10
49.106667
 20
44.591055
 30
0.0
 10
49.106667
 20
45.575525
 30
0.0
 10
49.106667
 20
46.434319
 30
0.0
 10
49.106667
 20
47.041757
 30
0.0
 10
49.106667
 20
47.272166
 30
0.0
 10
48.924766
 20
47.272166
 30
0.0
 10
48.445208
 20
47.272166
 30
0.0
 10
47.767215
 20
47.272166
 30
0.0
 10
46.990000
 20
47.272166
 30
0.0
 10
46.212785
 20
47.272166
 30
0.0
 10
45.534792
 20
47.272166
 30
0.0
 10
45.055234
 20
47.272166
 30
0.0
 10
44.873333
 20
47.272166
 30
0.0
 10
44.873333
 20
47.720854
 30
0.0
 10
44.873333
 20
48.903763
 30
0.0
 10
44.873333
 20
50.576150
 30
0.0
 10
44.873333
 20
52.493277
 30
0.0
 10
44.873333
 20
54.410404
 30
0.0
 10
44.873333
 20
56.082791
 30
0.0
 10
44.873333
 20
57.265700
 30
0.0
 10
44.873333
 20
57.714388
 30
0.0
 10
45.055234
 20
57.714388
 30
0.0
 10
45.534792
 20
57.714388
 30
0.0
 10
46.212785
 20
57.714388
 30
0.0
 10
46.990000
 20
57.714388
 30
0.0
 10
47.767215
 20
57.714388
 30
0.0
 10
48.445208
 20
57.714388
 30
0.0
 10
48.924766
 20
57.714388
 30
0.0
 10
49.106667
 20
57.714388
 30
0.0
 10
49.106667
 20
57.956921
 30
0.0
 10
49.106667
 20
58.596332
 30
0.0
 10
49.106667
 20
59.500324
 30
0.0
 10
49.106667
 20
60.536610
 30
0.0
 10
49.106667
 20
61.572895
 30
0.0
 10
49.106667
 20
62.476888
 30
0.0
 10
49.106667
 20
63.116298
 30
0.0
 10
49.106667
 20
63.358832
 30
0.0
 10
49.102941
 20
63.630587
 30
0.0
 10
49.095829
 20
63.909386
 30
0.0
 10
49.078811
 20
64.190633
 30
0.0
 10
49.045309
 20
64.469730
 30
0.0
 10
48.988788
 20
64.742080
 30
0.0
 10
48.902699
 20
65.003086
 30
0.0
 10
48.780494
 20
65.248150
 30
0.0
 10
48.615600
 20
65.472677
 30
0.0
 10
48.315143
 20
65.733931
 30
0.0
 10
47.957139
 20
65.922292
 30
0.0
 10
47.556539
 20
66.049535
 30
0.0
 10
47.128289
 20
66.127432
 30
0.0
 10
46.687339
 20
66.167759
 30
0.0
 10
46.248636
 20
66.182288
 30
0.0
 10
45.827134
 20
66.182796
 30
0.0
 10
45.437778
 20
66.181055
 30
0.0
 10
45.183117
 20
66.181055
 30
0.0
 10
44.511736
 20
66.181055
 30
0.0
 10
43.562544
 20
66.181055
 30
0.0
 10
42.474444
 20
66.181055
 30
0.0
 10
41.386345
 20
66.181055
 30
0.0
 10
40.437153
 20
66.181055
 30
0.0
 10
39.765772
 20
66.181055
 30
0.0
 10
39.511111
 20
66.181055
 30
0.0
 10
39.514046
 20
66.623234
 30
0.0
 10
39.516022
 20
67.060486
 30
0.0
 10
39.507132
 20
67.492379
 30
0.0
 10
39.477134
 20
67.918485
 30
0.0
 10
39.415918
 20
68.338373
 30
0.0
 10
39.313358
 20
68.751614
 30
0.0
 10
39.159338
 20
69.157777
 30
0.0
 10
38.943844
 20
69.556432
 30
0.0
 10
38.943844
 20
69.556432
 30
0.0
  0
LWPOLYLINE
  5
104
100
AcDbEntity
  8
0
 62
7
100
AcDbPolyline
 90
42
 70
0
 10
54.474533
 20
55.654166
 30
0.0
 10
54.462172
 20
55.572917
 30
0.0
 10
54.429561
 20
55.358716
 30
0.0
 10
54.383460
 20
55.055877
 30
0.0
 10
54.330608
 20
54.708721
 30
0.0
 10
54.277757
 20
54.361565
 30
0.0
 10
54.231653
 20
54.058727
 30
0.0
 10
54.199045
 20
53.844526
 30
0.0
 10
54.186667
 20
53.763277
 30
0.0
 10
54.199028
 20
53.571309
 30
0.0
 10
54.231636
 20
53.065217
 30
0.0
 10
54.277740
 20
52.349708
 30
0.0
 10
54.330592
 20
51.529488
 30
0.0
 10
54.383443
 20
50.709268
 30
0.0
 10
54.429544
 20
49.993759
 30
0.0
 10
54.462155
 20
49.487667
 30
0.0
 10
54.474516
 20
49.295699
 30
0.0
 10
54.583415
 20
49.208749
 30
0.0
 10
54.870508
 20
48.979523
 30
0.0
 10
55.276403
 20
48.655441
 30
0.0
 10
55.741694
 20
48.283932
 30
0.0
 10
56.206985
 20
47.912424
 30
0.0
 10
56.612877
 20
47.588342
 30
0.0
 10
56.899974
 20
47.359116
 30
0.0
 10
57.008889
 20
47.272166
 30
0.0
 10
57.008889
 20
47.720854
 30
0.0
 10
57.008889
 20
48.903763
 30
0.0
 10
57.008889
 20
50.576150
 30
0.0
 10
57.008889
 20
52.493277
 30
0.0
 10
57.008889
 20
54.410404
 30
0.0
 10
57.008889
 20
56.082791
 30
0.0
 10
57.008889
 20
57.265700
 30
0.0
 10
57.008889
 20
57.714388
 30
0.0
 10
56.899991
 20
57.625863
 30
0.0
 10
56.612894
 20
57.392480
 30
0.0
 10
56.207002
 20
57.062520
 30
0.0
 10
55.741711
 20
56.684277
 30
0.0
 10
55.276420
 20
56.306034
 30
0.0
 10
54.870525
 20
55.976077
 30
0.0
 10
54.583432
 20
55.742690
 30
0.0
 10
54.474533
 20
55.654166
 30
0.0
 10
54.474533
 20
55.654166
 30
0.0
  0
LWPOLYLINE
  5
105
100
AcDbEntity
  8
0
 62
7
100
AcDbPolyline
 90
34
 70
0
 10
47.413333
 20
55.174388
 30
0.0
 10
47.413333
 20
54.943979
 30
0.0
 10
47.413333
 20
54.336541
 30
0.0
 10
47.413333
 20
53.477747
 30
0.0
 10
47.413333
 20
52.493277
 30
0.0
 10
47.413333
 20
51.508807
 30
0.0
 10
47.413333
 20
50.650013
 30
0.0
 10
47.413333
 20
50.042575
 30
0.0
 10
47.413333
 20
49.812166
 30
0.0
 10
47.595234
 20
49.812166
 30
0.0
 10
48.074792
 20
49.812166
 30
0.0
 10
48.752785
 20
49.812166
 30
0.0
 10
49.530000
 20
49.812166
 30
0.0
 10
50.307215
 20
49.812166
 30
0.0
 10
50.985208
 20
49.812166
 30
0.0
 10
51.464766
 20
49.812166
 30
0.0
 10
51.646667
 20
49.812166
 30
0.0
 10
51.646667
 20
50.042575
 30
0.0
 10
51.646667
 20
50.650013
 30
0.0
 10
51.646667
 20
51.508807
 30
0.0
 10
51.646667
 20
52.493277
 30
0.0
 10
51.646667
 20
53.477747
 30
0.0
 10
51.646667
 20
54.336541
 30
0.0
 10
51.646667
 20
54.943979
 30
0.0
 10
51.646667
 20
55.174388
 30
0.0
 10
51.464766
 20
55.174388
 30
0.0
 10
50.985208
 20
55.174388
 30
0.0
 10
50.307215
 20
55.174388
 30
0.0
 10
49.530000
 20
55.174388
 30
0.0
 10
48.752785
 20
55.174388
 30
0.0
 10
48.074792
 20
55.174388
 30
0.0
 10
47.595234
 20
55.174388
 30
0.0
 10
47.413333
 20
55.174388
 30
0.0
 10
47.413333
 20
55.174388
 30
0.0
  0
ENDSEC
  0
SECTION
  2
OBJECTS
  0
DICTIONARY
  5
C
330
0
100
AcDbDictionary
  3
ACAD_GROUP
350
D
  3
ACAD_MLINESTYLE
350
17
  0
DICTIONARY
  5
D
330
C
100
AcDbDictionary
  0
DICTIONARY
  5
1A
330
C
100
AcDbDictionary
  0
DICTIONARY
  5
17
330
C
100
AcDbDictionary
  3
STANDARD
350
18
  0
DICTIONARY
  5
19
330
C
100
AcDbDictionary
  0
ENDSEC
  0
EOF
