<?xml version="1.0" encoding="utf-8"?>
<!-- Generator: Adobe Illustrator 14.0.0, SVG Export Plug-In . SVG Version: 6.00 Build 43363)  -->
<!DOCTYPE svg PUBLIC "-//W3C//DTD SVG 1.1//EN" "http://www.w3.org/Graphics/SVG/1.1/DTD/svg11.dtd">
<svg version="1.1" id="Layer_2" xmlns="http://www.w3.org/2000/svg" xmlns:xlink="http://www.w3.org/1999/xlink" x="0px" y="0px"
	 width="216px" height="216px" viewBox="0 0 216 216" enable-background="new 0 0 216 216" xml:space="preserve">
<g>
	<path d="M93.826,14.149l0.997,5.515l0.237,1.232l0.133,0.614l0.133,0.613l-0.063,0.012l-0.506-0.72l-0.506-0.712
		c-0.4-0.561-0.75-1.036-1.048-1.427l-3.369-4.405l-3.081,0.558l1.732,9.578l1.817-0.33l-0.993-5.494l-0.241-1.253l-0.135-0.621
		l-0.142-0.627l0.07-0.012l0.426,0.633l0.432,0.631c0.409,0.602,0.705,1.022,0.888,1.26l3.687,4.76l3.081-0.557l-1.733-9.578
		L93.826,14.149z"/>
	<path d="M102.647,17.749c0.203,0.228,0.338,0.775,0.403,1.643c0.078,1.028,0.038,1.685-0.119,1.968
		c-0.158,0.284-0.575,0.452-1.252,0.503c-0.702,0.053-1.149-0.042-1.344-0.285c-0.194-0.243-0.331-0.875-0.409-1.899
		c-0.068-0.896-0.019-1.473,0.146-1.731c0.167-0.258,0.589-0.413,1.267-0.464C102.008,17.432,102.444,17.521,102.647,17.749z
		 M98.674,17.035c-0.372,0.457-0.501,1.399-0.395,2.826c0.113,1.484,0.391,2.428,0.834,2.833c0.443,0.405,1.358,0.554,2.747,0.449
		c1.281-0.097,2.101-0.396,2.464-0.895c0.362-0.5,0.486-1.503,0.373-3.01c-0.104-1.352-0.375-2.221-0.814-2.61
		c-0.439-0.388-1.316-0.533-2.629-0.433C99.905,16.298,99.045,16.577,98.674,17.035z"/>
	<path d="M106.082,16.031l0.101,6.815l1.633-0.024l-0.102-6.816L106.082,16.031z M106.038,13.115l0.021,1.362l1.633-0.025
		l-0.021-1.361L106.038,13.115z"/>
	<path d="M114.67,16.515c-0.381-0.283-1.139-0.451-2.271-0.5c-1.203-0.054-2.021,0.048-2.457,0.305
		c-0.434,0.257-0.67,0.774-0.703,1.553c-0.039,0.87,0.168,1.452,0.617,1.748c0.451,0.296,1.406,0.476,2.863,0.542
		c0.646,0.028,0.957,0.331,0.932,0.905c-0.027,0.599-0.557,0.874-1.586,0.829c-0.998-0.044-1.449-0.366-1.355-0.966
		c0.006-0.058,0.023-0.132,0.053-0.227l-1.695-0.076l-0.008,0.171c-0.035,0.793,0.154,1.344,0.568,1.652
		c0.414,0.31,1.203,0.489,2.367,0.541c1.211,0.054,2.057-0.069,2.539-0.369s0.742-0.865,0.779-1.696
		c0.033-0.779-0.119-1.302-0.459-1.569c-0.34-0.267-1.092-0.456-2.252-0.564c-0.863-0.081-1.367-0.161-1.514-0.239
		c-0.146-0.078-0.211-0.304-0.193-0.68c0.023-0.551,0.461-0.807,1.311-0.77c0.594,0.027,0.967,0.084,1.117,0.172
		c0.15,0.087,0.234,0.295,0.254,0.625l0.016,0.129l1.596,0.071C115.223,17.327,115.049,16.798,114.67,16.515z"/>
	<path d="M118.248,19.254c0.084-0.651,0.229-1.062,0.434-1.231c0.209-0.17,0.613-0.216,1.217-0.139
		c0.623,0.08,1.016,0.211,1.182,0.396c0.166,0.184,0.215,0.545,0.145,1.083l-0.027,0.27L118.248,19.254z M120.562,22.35
		c-0.197,0.107-0.592,0.122-1.186,0.045c-0.613-0.078-1.008-0.242-1.186-0.489c-0.176-0.248-0.223-0.704-0.137-1.369
		c0.008-0.047,0.023-0.146,0.053-0.295l4.576,0.586l0.062-0.495c0.166-1.292,0.072-2.185-0.281-2.678s-1.133-0.817-2.342-0.973
		c-1.258-0.161-2.133-0.042-2.625,0.354c-0.492,0.397-0.822,1.253-0.99,2.569c-0.189,1.48-0.107,2.476,0.248,2.986
		c0.357,0.511,1.207,0.853,2.551,1.024c1.98,0.254,3.055-0.28,3.225-1.6l0.033-0.262l-1.627-0.208
		C120.883,21.976,120.758,22.244,120.562,22.35z"/>
	<path d="M128.857,19.971c0.123,0.304,0.088,0.893-0.102,1.766c-0.203,0.938-0.424,1.519-0.662,1.742
		c-0.238,0.223-0.682,0.265-1.334,0.123c-0.621-0.135-0.99-0.364-1.104-0.688c-0.117-0.325-0.064-0.99,0.156-1.998
		c0.279-1.287,0.936-1.818,1.971-1.593C128.379,19.451,128.736,19.668,128.857,19.971z M125.02,24.465l0.16-1.067l0.033,0.007
		c0.162,0.823,0.762,1.347,1.797,1.572c1.023,0.221,1.766,0.128,2.23-0.279c0.467-0.407,0.848-1.3,1.146-2.68
		c0.275-1.264,0.285-2.168,0.031-2.711c-0.254-0.544-0.861-0.92-1.816-1.127c-1.115-0.242-1.885-0.042-2.312,0.601l-0.031-0.021
		l0.824-3.805l-1.596-0.346l-2.062,9.512L125.02,24.465z"/>
	<path d="M130.801,25.811l1.564,0.472l1.158-3.844c0.311-1.033,0.854-1.433,1.627-1.2c0.541,0.163,0.709,0.593,0.498,1.289
		c-0.018,0.055-0.061,0.168-0.133,0.34l1.475,0.444l0.139-0.457c0.436-1.447,0.08-2.344-1.066-2.689
		c-0.801-0.242-1.49-0.078-2.07,0.493l-0.033-0.018l0.373-0.886l-1.564-0.471L130.801,25.811z"/>
	<path d="M138.832,21.206l-2.316,6.411l1.535,0.555l2.316-6.411L138.832,21.206z M139.824,18.463l-0.465,1.28l1.537,0.555
		l0.463-1.281L139.824,18.463z"/>
	<path d="M145.262,25.492c0.082,0.32-0.043,0.864-0.377,1.632c-0.402,0.929-0.744,1.486-1.021,1.671
		c-0.279,0.185-0.721,0.146-1.322-0.114c-0.576-0.25-0.891-0.541-0.943-0.875c-0.053-0.333,0.117-0.954,0.512-1.861
		c0.34-0.785,0.645-1.26,0.914-1.426c0.268-0.167,0.68-0.128,1.24,0.114C144.846,24.885,145.18,25.172,145.262,25.492z
		 M147.344,21.467l-1.545,3.566l-0.029-0.004c0.025-0.756-0.471-1.354-1.492-1.796c-0.881-0.382-1.588-0.431-2.119-0.146
		c-0.533,0.285-1.041,0.985-1.525,2.103c-0.598,1.383-0.836,2.37-0.711,2.959c0.127,0.59,0.684,1.1,1.674,1.529
		c0.98,0.425,1.775,0.336,2.383-0.266l0.023,0.018l-0.488,0.986l1.459,0.632l3.869-8.931L147.344,21.467z"/>
	<path d="M152.369,29.056c0.043,0.32-0.15,0.876-0.578,1.666c-0.445,0.823-0.816,1.31-1.115,1.46
		c-0.297,0.15-0.727,0.072-1.293-0.234c-0.562-0.306-0.861-0.618-0.891-0.937c-0.029-0.319,0.184-0.9,0.643-1.745
		c0.43-0.793,0.783-1.26,1.061-1.399s0.693-0.059,1.246,0.24C152.018,28.418,152.326,28.735,152.369,29.056z M153.41,27.794
		l-0.469,1.028l-0.029-0.017c0.084-0.867-0.35-1.559-1.303-2.075c-0.873-0.474-1.592-0.584-2.158-0.334
		c-0.566,0.25-1.154,0.939-1.766,2.068c-0.648,1.2-0.926,2.109-0.832,2.728c0.094,0.619,0.596,1.174,1.502,1.666
		c0.916,0.496,1.674,0.493,2.275-0.008l0.027,0.023l-0.73,1.349c-0.398,0.735-1.043,0.862-1.934,0.38
		c-0.506-0.274-0.801-0.506-0.887-0.697c-0.086-0.189-0.023-0.479,0.186-0.867l-1.391-0.754c-0.441,0.815-0.564,1.455-0.367,1.918
		c0.197,0.463,0.811,0.974,1.84,1.531c1.061,0.575,1.889,0.788,2.48,0.638s1.152-0.714,1.682-1.692l3.309-6.106L153.41,27.794z"/>
	<path d="M156.275,32.654c0.359-0.548,0.67-0.854,0.93-0.916s0.645,0.074,1.152,0.409c0.523,0.345,0.82,0.636,0.889,0.874
		c0.068,0.239-0.047,0.584-0.344,1.037l-0.145,0.229L156.275,32.654z M156.994,36.451c-0.223,0.01-0.584-0.149-1.086-0.479
		c-0.516-0.34-0.799-0.66-0.848-0.959c-0.051-0.301,0.109-0.731,0.477-1.291c0.025-0.04,0.086-0.121,0.176-0.243l3.855,2.536
		l0.273-0.417c0.717-1.088,1.023-1.932,0.922-2.53s-0.66-1.232-1.676-1.901c-1.061-0.697-1.898-0.976-2.516-0.835
		c-0.615,0.141-1.289,0.765-2.018,1.873c-0.82,1.248-1.182,2.179-1.086,2.793c0.096,0.615,0.711,1.295,1.842,2.04
		c1.668,1.097,2.867,1.089,3.6-0.022l0.145-0.221l-1.369-0.901C157.447,36.255,157.217,36.441,156.994,36.451z"/>
	<polygon points="172.887,38.327 170.268,41.313 166.836,38.304 169.455,35.318 168.066,34.1 161.648,41.418 163.037,42.636 
		165.811,39.473 169.242,42.481 166.469,45.645 167.857,46.862 174.275,39.544 	"/>
	<path d="M173.318,49.726c-0.488,0.457-1.072,0.322-1.75-0.404c-0.416-0.445-0.637-0.784-0.668-1.018
		c-0.027-0.232,0.119-0.5,0.443-0.801c0.465-0.435,1.014-0.315,1.643,0.359C173.709,48.637,173.82,49.258,173.318,49.726z
		 M175.1,46.104c0.393,0.421,0.588,0.758,0.588,1.012s-0.195,0.562-0.584,0.926l-0.809,0.753l-0.02-0.021
		c0.215-0.53-0.064-1.208-0.832-2.031c-1.15-1.234-2.244-1.368-3.281-0.402c-1.023,0.957-0.975,2.039,0.15,3.245
		c0.775,0.831,1.518,1.129,2.23,0.895l0.021,0.036l-0.736,0.581l1.115,1.194l3.258-3.04c0.695-0.648,1.02-1.246,0.971-1.792
		c-0.047-0.547-0.49-1.268-1.328-2.166c-0.768-0.824-1.381-1.281-1.844-1.371c-0.461-0.09-0.99,0.144-1.588,0.702l1.139,1.22
		C174.016,45.41,174.533,45.496,175.1,46.104z"/>
	<path d="M177.551,55.7c-0.23-0.021-0.52-0.252-0.865-0.692c-0.441-0.561-0.621-0.988-0.541-1.284
		c0.078-0.295,0.492-0.736,1.24-1.323c0.771-0.608,1.311-0.925,1.611-0.949c0.301-0.025,0.652,0.219,1.055,0.731
		c0.566,0.721,0.537,1.327-0.086,1.817l1,1.273c0.758-0.596,1.145-1.165,1.156-1.707c0.014-0.542-0.344-1.276-1.074-2.204
		c-0.754-0.96-1.449-1.46-2.084-1.5c-0.635-0.038-1.49,0.365-2.568,1.21c-1.102,0.867-1.705,1.609-1.809,2.229
		c-0.104,0.619,0.242,1.433,1.035,2.443c1.082,1.375,2.055,1.851,2.916,1.426l0.875-0.561l0.186-0.145l-1.004-1.279
		C178.131,55.55,177.783,55.722,177.551,55.7z"/>
	<polygon points="186.236,53.522 178.123,58.896 179.023,60.258 181.543,58.589 181.766,58.922 180.469,62.44 181.586,64.128 
		183.016,59.752 187.002,59.96 185.955,58.379 182.729,58.31 182.496,57.959 187.137,54.884 	"/>
	<path d="M186.141,63.883c0.574-0.316,0.992-0.441,1.25-0.375c0.26,0.066,0.535,0.366,0.828,0.899
		c0.303,0.549,0.428,0.946,0.377,1.188s-0.314,0.494-0.789,0.755l-0.234,0.137L186.141,63.883z M185.002,67.576
		c-0.201-0.095-0.447-0.405-0.736-0.93c-0.297-0.542-0.398-0.957-0.303-1.246c0.098-0.289,0.439-0.594,1.027-0.917
		c0.041-0.023,0.131-0.067,0.268-0.133l2.223,4.043l0.438-0.241c1.143-0.627,1.809-1.229,1.998-1.805
		c0.189-0.577-0.008-1.398-0.594-2.465c-0.611-1.112-1.223-1.75-1.834-1.913c-0.611-0.164-1.496,0.074-2.658,0.713
		c-1.309,0.719-2.064,1.373-2.266,1.961c-0.203,0.589,0.021,1.477,0.674,2.664c0.963,1.75,2.027,2.304,3.193,1.663l0.232-0.127
		l-0.791-1.437C185.494,67.615,185.203,67.672,185.002,67.576z"/>
	<path d="M185.275,71.021l0.674,1.487l3.656-1.657c0.982-0.445,1.641-0.3,1.977,0.437c0.232,0.515,0.018,0.923-0.645,1.223
		c-0.053,0.023-0.166,0.065-0.344,0.124l0.637,1.403l0.434-0.197c1.377-0.624,1.818-1.481,1.324-2.573
		c-0.346-0.762-0.924-1.174-1.732-1.234l-0.01-0.035l0.912-0.304l-0.674-1.487L185.275,71.021z"/>
	<path d="M198.051,84.508c0.963-0.298,1.535-0.741,1.715-1.33c0.182-0.589,0.057-1.582-0.377-2.981
		c-0.457-1.476-0.941-2.404-1.455-2.785s-1.312-0.403-2.398-0.067c-1.062,0.328-1.691,0.748-1.889,1.255
		c-0.195,0.509-0.107,1.512,0.262,3.01l0.238,0.993c0.139,0.559,0.16,0.944,0.064,1.156c-0.098,0.211-0.371,0.386-0.82,0.525
		c-0.607,0.188-1.031,0.199-1.266,0.033c-0.236-0.166-0.475-0.644-0.721-1.434c-0.312-1.013-0.432-1.655-0.355-1.926
		c0.074-0.272,0.438-0.509,1.086-0.71l0.195-0.068l-0.531-1.716l-0.338,0.112c-1.082,0.334-1.725,0.796-1.932,1.385
		c-0.205,0.588-0.082,1.614,0.369,3.076c0.504,1.626,1.01,2.622,1.52,2.987c0.508,0.365,1.379,0.356,2.613-0.026
		c1.006-0.311,1.604-0.718,1.795-1.223c0.191-0.505,0.113-1.462-0.238-2.871c-0.299-1.19-0.422-1.909-0.369-2.155
		c0.053-0.245,0.373-0.458,0.959-0.64c0.496-0.153,0.859-0.125,1.094,0.083s0.48,0.73,0.738,1.566
		c0.219,0.708,0.291,1.179,0.217,1.411c-0.076,0.231-0.367,0.449-0.877,0.651l-0.188,0.073l0.533,1.723L198.051,84.508z"/>
	<path d="M197.418,91.231c-0.227,0.244-0.795,0.461-1.707,0.653c-0.889,0.186-1.486,0.214-1.797,0.084
		c-0.309-0.129-0.527-0.506-0.658-1.129c-0.129-0.615-0.072-1.051,0.17-1.311c0.24-0.259,0.795-0.479,1.66-0.661
		c0.891-0.186,1.49-0.215,1.805-0.086c0.312,0.128,0.533,0.498,0.66,1.107C197.688,90.54,197.645,90.988,197.418,91.231z
		 M188.539,88.491l0.348,1.668l3.832-0.803l0.006,0.029c-0.631,0.467-0.836,1.224-0.617,2.271c0.205,0.981,0.594,1.603,1.162,1.862
		c0.57,0.26,1.52,0.25,2.85-0.028c1.275-0.267,2.115-0.634,2.521-1.1c0.404-0.467,0.504-1.186,0.301-2.158
		c-0.219-1.052-0.732-1.696-1.533-1.93v-0.036l1.004-0.145l-0.34-1.626L188.539,88.491z"/>
	<path d="M195.424,99.43c-0.664,0.08-1.057-0.373-1.174-1.359c-0.074-0.604-0.053-1.009,0.061-1.214
		c0.115-0.205,0.391-0.334,0.83-0.387c0.631-0.076,1.004,0.344,1.113,1.259C196.381,98.781,196.105,99.349,195.424,99.43z
		 M198.998,97.557c0.07,0.571,0.029,0.959-0.121,1.164s-0.49,0.339-1.018,0.402l-1.1,0.132l-0.002-0.028
		c0.484-0.303,0.66-1.013,0.525-2.132c-0.201-1.676-1.006-2.429-2.412-2.259c-1.391,0.167-1.988,1.07-1.793,2.708
		c0.137,1.128,0.561,1.807,1.273,2.038l-0.002,0.043l-0.938,0.034l0.195,1.622l4.424-0.533c0.945-0.114,1.559-0.405,1.842-0.875
		s0.354-1.313,0.205-2.531c-0.133-1.118-0.361-1.85-0.68-2.194c-0.32-0.345-0.885-0.468-1.697-0.371l0.201,1.657
		C198.533,96.356,198.9,96.731,198.998,97.557z"/>
	<path d="M195.324,106.762c-0.174-0.153-0.271-0.51-0.293-1.071c-0.025-0.712,0.082-1.165,0.318-1.356
		c0.238-0.191,0.834-0.305,1.783-0.339c0.982-0.036,1.604,0.025,1.861,0.183c0.258,0.157,0.398,0.561,0.422,1.211
		c0.033,0.917-0.348,1.39-1.139,1.418l0.057,1.618c0.965-0.035,1.613-0.268,1.941-0.698c0.33-0.431,0.473-1.235,0.43-2.413
		c-0.043-1.22-0.311-2.034-0.803-2.439c-0.49-0.406-1.418-0.583-2.787-0.535c-1.402,0.051-2.326,0.296-2.773,0.736
		s-0.648,1.3-0.602,2.583c0.062,1.748,0.568,2.705,1.516,2.871l1.037,0.062l0.234-0.008l-0.059-1.625
		C195.881,106.981,195.498,106.915,195.324,106.762z"/>
	<path d="M197.953,111.311c0.656,0.03,1.076,0.141,1.262,0.333c0.188,0.192,0.266,0.592,0.238,1.199
		c-0.029,0.627-0.129,1.03-0.299,1.21c-0.172,0.18-0.527,0.258-1.066,0.233l-0.271-0.006L197.953,111.311z M195.055,113.867
		c-0.121-0.187-0.17-0.579-0.141-1.178c0.027-0.617,0.158-1.023,0.391-1.22c0.232-0.197,0.684-0.279,1.354-0.248
		c0.047,0.002,0.146,0.012,0.299,0.027l-0.215,4.608l0.5,0.023c1.301,0.061,2.184-0.105,2.646-0.498
		c0.461-0.393,0.723-1.197,0.779-2.412c0.059-1.268-0.129-2.131-0.566-2.589c-0.436-0.458-1.314-0.718-2.641-0.779
		c-1.49-0.069-2.477,0.095-2.957,0.491c-0.479,0.396-0.75,1.271-0.814,2.625c-0.092,1.994,0.527,3.022,1.857,3.083l0.264,0.013
		l0.076-1.638C195.453,114.156,195.176,114.053,195.055,113.867z"/>
</g>
<g>
	<path d="M94.381,194.732l1.221-6.893l-1.156-0.204l-0.485,2.742c-0.145,0.817-0.611,1.156-1.399,1.017
		c-0.576-0.102-0.813-0.436-0.713-1.001l0.028-0.155l0.525-2.965l-1.157-0.205l-0.581,3.283c-0.189,1.065,0.28,1.7,1.408,1.899
		c0.774,0.138,1.319-0.062,1.636-0.596l0.024,0.01l-0.507,2.863L94.381,194.732z"/>
	<path d="M87.835,191.304l-0.254,1.067l1.143,0.271l0.253-1.068l0.619,0.148l0.206-0.868l-0.618-0.147l0.607-2.56
		c0.222-0.936-0.177-1.523-1.194-1.764c-1.021-0.243-1.65-0.007-1.886,0.706c-0.051,0.153-0.102,0.339-0.154,0.56l-0.057,0.239
		l0.972,0.231l0.045-0.19c0.127-0.535,0.376-0.759,0.745-0.672c0.336,0.08,0.452,0.341,0.347,0.783l-0.568,2.396L86.205,190
		l-0.206,0.868L87.835,191.304z"/>
	<path d="M83.822,190.256l-0.304,1.055l1.128,0.326l0.305-1.055l0.611,0.177l0.247-0.858l-0.611-0.176l0.73-2.527
		c0.267-0.922-0.103-1.528-1.108-1.818c-1.008-0.291-1.647-0.086-1.917,0.614c-0.057,0.151-0.118,0.334-0.18,0.551l-0.068,0.237
		l0.961,0.277l0.054-0.188c0.153-0.529,0.412-0.741,0.776-0.636c0.332,0.096,0.434,0.362,0.309,0.8l-0.683,2.364l-1.812-0.523
		l-0.248,0.857L83.822,190.256z"/>
	<path d="M78.363,187.266c-0.065-0.229,0.013-0.66,0.235-1.293c0.218-0.615,0.424-0.994,0.619-1.136s0.508-0.136,0.94,0.017
		c0.425,0.15,0.672,0.348,0.742,0.594c0.069,0.246-0.002,0.668-0.213,1.268c-0.217,0.615-0.423,0.996-0.62,1.141
		c-0.196,0.145-0.505,0.143-0.928-0.007C78.687,187.69,78.429,187.496,78.363,187.266z M83.36,182.83l-1.156-0.408l-0.936,2.655
		l-0.02-0.008c-0.052-0.562-0.44-0.97-1.166-1.227c-0.68-0.239-1.206-0.231-1.578,0.021s-0.721,0.84-1.046,1.762
		c-0.311,0.884-0.399,1.536-0.264,1.96c0.135,0.423,0.54,0.753,1.213,0.99c0.729,0.258,1.315,0.184,1.758-0.222l0.022,0.013
		l-0.285,0.672l1.127,0.397L83.36,182.83z"/>
	<path d="M72.275,185.801c0.184,0.287,0.651,0.592,1.402,0.912c0.795,0.34,1.372,0.479,1.729,0.417
		c0.357-0.062,0.647-0.352,0.867-0.867c0.246-0.575,0.254-1.021,0.026-1.333c-0.229-0.313-0.825-0.677-1.791-1.089
		c-0.427-0.184-0.56-0.465-0.397-0.845c0.169-0.396,0.595-0.448,1.277-0.157c0.66,0.282,0.883,0.614,0.668,0.994l-0.093,0.14
		l1.122,0.479l0.048-0.112c0.225-0.525,0.236-0.944,0.036-1.256c-0.201-0.313-0.687-0.635-1.457-0.964
		c-0.801-0.343-1.402-0.475-1.802-0.395s-0.718,0.395-0.954,0.945c-0.221,0.515-0.25,0.905-0.088,1.172
		c0.161,0.266,0.619,0.583,1.373,0.949c0.561,0.273,0.879,0.454,0.958,0.543c0.079,0.091,0.065,0.26-0.041,0.508
		c-0.157,0.364-0.515,0.426-1.078,0.186c-0.393-0.168-0.628-0.3-0.708-0.397c-0.079-0.097-0.083-0.259-0.013-0.485l0.022-0.091
		l-1.056-0.452C72.108,185.114,72.091,185.514,72.275,185.801z"/>
	<path d="M70.731,185.321l0.547-1.137l-1.058-0.51l-0.547,1.137L70.731,185.321z M72.311,182.041l0.547-1.137l-1.058-0.509
		l-0.547,1.137L72.311,182.041z"/>
	<polygon points="63.773,184.07 72.876,178.678 72.103,178.254 63,183.646 	"/>
	<polygon points="58.039,180.486 67.53,175.812 66.792,175.331 57.3,180.004 	"/>
	<path d="M60.218,173.487l-0.934-0.712l-1.762,2.313c-0.454,0.595-0.994,0.652-1.623,0.175c-0.414-0.315-0.531-0.635-0.353-0.959
		l0.188-0.289l0.112-0.147l1.79-2.349l-0.934-0.712l-2.023,2.655c-0.654,0.859-0.521,1.64,0.4,2.342
		c0.634,0.483,1.221,0.56,1.761,0.228l0.017,0.02l-0.537,0.629l0.925,0.705L60.218,173.487z"/>
	<path d="M51.127,170.984c0.014-0.22,0.227-0.563,0.639-1.035c0.489-0.558,0.845-0.869,1.069-0.932s0.521,0.067,0.889,0.389
		c0.381,0.334,0.559,0.61,0.532,0.833c-0.026,0.223-0.282,0.611-0.768,1.167c-0.425,0.486-0.746,0.753-0.962,0.798
		s-0.509-0.094-0.876-0.416C51.287,171.472,51.113,171.203,51.127,170.984z M52.764,173.382c0.421-0.041,0.97-0.448,1.648-1.223
		c0.703-0.807,1.047-1.425,1.032-1.856c-0.015-0.431-0.4-0.976-1.155-1.636c-0.695-0.606-1.261-0.877-1.701-0.812
		c-0.439,0.065-1.016,0.508-1.731,1.327c-0.641,0.733-0.95,1.312-0.928,1.731c0.023,0.422,0.39,0.943,1.103,1.566
		C51.766,173.122,52.343,173.422,52.764,173.382z"/>
	<path d="M48.519,170.119l3.397-3.534l-0.847-0.813l-3.396,3.534L48.519,170.119z M47.065,171.631l0.679-0.706l-0.847-0.813
		l-0.679,0.706L47.065,171.631z"/>
	<path d="M44.394,165.615c0.056,0.336,0.365,0.801,0.928,1.394c0.595,0.627,1.07,0.982,1.423,1.066
		c0.353,0.084,0.733-0.067,1.139-0.454c0.454-0.43,0.637-0.835,0.552-1.212c-0.086-0.379-0.491-0.948-1.213-1.71
		c-0.32-0.336-0.331-0.647-0.031-0.933c0.312-0.297,0.724-0.176,1.235,0.362c0.494,0.52,0.567,0.912,0.22,1.177l-0.14,0.091
		l0.84,0.885l0.089-0.085c0.415-0.393,0.59-0.773,0.53-1.14c-0.061-0.367-0.379-0.854-0.956-1.461
		c-0.601-0.632-1.101-0.99-1.5-1.076c-0.399-0.085-0.815,0.078-1.249,0.491c-0.406,0.386-0.588,0.732-0.545,1.041
		c0.042,0.308,0.337,0.779,0.885,1.415c0.406,0.472,0.627,0.766,0.665,0.879c0.037,0.113-0.043,0.264-0.239,0.449
		c-0.288,0.272-0.642,0.188-1.063-0.257c-0.294-0.31-0.458-0.523-0.493-0.646c-0.035-0.12,0.026-0.271,0.18-0.449l0.057-0.074
		l-0.792-0.834C44.513,164.919,44.339,165.28,44.394,165.615z"/>
	<path d="M43.904,162.457c-0.361,0.301-0.639,0.447-0.83,0.437c-0.192-0.013-0.428-0.185-0.709-0.521
		c-0.289-0.347-0.433-0.608-0.43-0.787c0.002-0.178,0.153-0.392,0.452-0.642l0.146-0.129L43.904,162.457z M44.198,159.691
		c0.155,0.041,0.371,0.226,0.647,0.557c0.285,0.34,0.414,0.619,0.385,0.836c-0.028,0.218-0.227,0.48-0.597,0.79l-0.171,0.13
		l-2.128-2.546l-0.275,0.229c-0.719,0.602-1.106,1.117-1.161,1.551c-0.054,0.434,0.199,0.986,0.76,1.657
		c0.585,0.701,1.105,1.067,1.559,1.098c0.453,0.03,1.045-0.26,1.777-0.872c0.824-0.688,1.267-1.253,1.328-1.696
		c0.062-0.443-0.22-1.039-0.844-1.787c-0.921-1.102-1.748-1.345-2.482-0.731l-0.146,0.121l0.756,0.904
		C43.846,159.732,44.043,159.653,44.198,159.691z"/>
	<path d="M38.618,156.965c0.08-0.222,0.379-0.521,0.898-0.899c0.557-0.408,0.954-0.615,1.188-0.62
		c0.234-0.007,0.493,0.184,0.775,0.57c0.27,0.37,0.358,0.67,0.265,0.898c-0.093,0.229-0.438,0.562-1.038,1
		c-0.765,0.557-1.372,0.529-1.821-0.088C38.626,157.474,38.537,157.187,38.618,156.965z M42.827,156.384l-0.595,0.498l-0.015-0.021
		c0.307-0.521,0.235-1.088-0.214-1.703c-0.444-0.608-0.888-0.914-1.332-0.917c-0.445-0.003-1.077,0.295-1.898,0.893
		c-0.75,0.549-1.188,1.029-1.311,1.443c-0.124,0.413,0.022,0.905,0.437,1.474c0.484,0.663,0.994,0.924,1.529,0.781l0.007,0.027
		l-2.261,1.65l0.692,0.949l5.654-4.126L42.827,156.384z"/>
	<path d="M40.318,152.895l-0.622-0.996l-2.448,1.53c-0.658,0.411-1.141,0.371-1.45-0.121c-0.215-0.345-0.101-0.655,0.343-0.934
		c0.034-0.022,0.112-0.062,0.232-0.121l-0.587-0.939l-0.292,0.182c-0.922,0.576-1.154,1.23-0.697,1.961
		c0.319,0.51,0.771,0.748,1.353,0.713l0.01,0.026l-0.621,0.303l0.623,0.995L40.318,152.895z"/>
	<path d="M33.8,151.694l4.228-2.481l-0.594-1.013l-4.228,2.481L33.8,151.694z M31.992,152.756l0.844-0.496l-0.594-1.013
		l-0.844,0.495L31.992,152.756z"/>
	<path d="M32.187,146.404c0.098-0.216,0.415-0.464,0.947-0.744c0.645-0.337,1.087-0.496,1.327-0.473
		c0.24,0.022,0.469,0.242,0.689,0.66c0.209,0.399,0.254,0.705,0.133,0.915c-0.121,0.211-0.497,0.481-1.126,0.812
		c-0.545,0.285-0.93,0.416-1.155,0.387c-0.225-0.028-0.44-0.236-0.644-0.624C32.145,146.932,32.088,146.621,32.187,146.404z
		 M29.205,147.72l2.474-1.3l0.014,0.016c-0.355,0.41-0.348,0.97,0.025,1.678c0.32,0.611,0.695,0.959,1.121,1.039
		c0.427,0.081,1.028-0.082,1.803-0.489c0.959-0.503,1.537-0.949,1.733-1.335c0.196-0.387,0.114-0.926-0.247-1.612
		c-0.357-0.681-0.842-0.989-1.454-0.927l-0.005-0.021l0.719-0.331l-0.532-1.012l-6.197,3.253L29.205,147.72z"/>
	<path d="M29.764,141.27c0.116-0.201,0.47-0.433,1.061-0.693c0.616-0.273,1.041-0.386,1.276-0.341
		c0.235,0.046,0.446,0.279,0.633,0.702c0.187,0.422,0.218,0.729,0.095,0.924c-0.123,0.195-0.5,0.433-1.132,0.711
		c-0.594,0.264-1,0.374-1.22,0.329c-0.219-0.042-0.419-0.271-0.603-0.683C29.685,141.786,29.647,141.471,29.764,141.27z
		 M28.617,141.53l0.719-0.379l0.01,0.022c-0.43,0.456-0.488,1.04-0.172,1.753c0.289,0.653,0.65,1.033,1.082,1.14
		c0.432,0.105,1.07-0.028,1.914-0.401c0.896-0.397,1.455-0.792,1.673-1.187c0.219-0.394,0.177-0.93-0.123-1.607
		c-0.303-0.686-0.736-1.017-1.298-0.996l-0.006-0.025l1.009-0.445c0.55-0.244,0.972-0.033,1.267,0.633
		c0.167,0.379,0.233,0.64,0.199,0.787c-0.034,0.146-0.197,0.283-0.488,0.411l0.461,1.041c0.609-0.269,0.96-0.58,1.051-0.931
		c0.092-0.35-0.033-0.91-0.373-1.68c-0.351-0.794-0.728-1.277-1.131-1.453c-0.403-0.176-0.97-0.101-1.701,0.223l-4.567,2.021
		L28.617,141.53z"/>
	<path d="M29.112,137.57c-0.443,0.162-0.753,0.205-0.929,0.13c-0.177-0.076-0.341-0.319-0.491-0.729
		c-0.155-0.424-0.201-0.719-0.139-0.887c0.063-0.166,0.277-0.316,0.644-0.45l0.181-0.071L29.112,137.57z M30.324,135.069
		c0.133,0.089,0.272,0.336,0.421,0.739c0.153,0.418,0.179,0.725,0.08,0.919c-0.1,0.195-0.376,0.376-0.829,0.541
		c-0.032,0.012-0.101,0.032-0.207,0.064l-1.139-3.116l-0.337,0.124c-0.88,0.321-1.418,0.678-1.617,1.066
		c-0.198,0.39-0.146,0.994,0.155,1.817c0.312,0.856,0.678,1.376,1.094,1.558c0.417,0.184,1.072,0.11,1.968-0.217
		c1.009-0.368,1.617-0.751,1.825-1.147c0.208-0.397,0.145-1.053-0.19-1.967c-0.493-1.349-1.189-1.858-2.088-1.53l-0.179,0.065
		l0.406,1.107C29.979,134.988,30.191,134.979,30.324,135.069z"/>
	<rect x="29.11" y="131.674" transform="matrix(-0.954 0.2997 -0.2997 -0.954 97.7513 249.5306)" width="1.261" height="1.175"/>
	<path d="M29.843,130.531l-0.298-1.136l-2.812,0.739c-0.724,0.19-1.186-0.097-1.387-0.859c-0.132-0.503-0.028-0.827,0.312-0.974
		l0.326-0.111l0.179-0.048l2.856-0.751l-0.299-1.135l-3.228,0.849c-1.044,0.274-1.42,0.973-1.125,2.093
		c0.202,0.771,0.619,1.191,1.249,1.263l0.001,0.025l-0.81,0.166l0.295,1.125L29.843,130.531z"/>
	<path d="M25.396,124.807c-0.463,0.089-0.776,0.082-0.938-0.021c-0.163-0.103-0.286-0.369-0.369-0.799
		c-0.085-0.442-0.083-0.741,0.004-0.896c0.089-0.155,0.324-0.27,0.707-0.343l0.19-0.043L25.396,124.807z M26.99,122.529
		c0.118,0.109,0.217,0.377,0.299,0.799c0.084,0.437,0.061,0.743-0.068,0.92c-0.13,0.176-0.431,0.31-0.904,0.401
		c-0.034,0.005-0.105,0.017-0.213,0.03l-0.629-3.256l-0.353,0.067c-0.92,0.177-1.509,0.442-1.766,0.795s-0.303,0.959-0.137,1.817
		c0.173,0.896,0.45,1.468,0.832,1.715c0.383,0.246,1.041,0.279,1.978,0.098c1.054-0.203,1.716-0.484,1.984-0.842
		c0.268-0.359,0.31-1.017,0.125-1.973c-0.272-1.41-0.878-2.023-1.818-1.843l-0.186,0.037l0.224,1.157
		C26.663,122.395,26.874,122.419,26.99,122.529z"/>
	<path d="M22.528,119.527l-1.087,0.147l0.157,1.163l1.088-0.146l0.084,0.63l0.884-0.119l-0.085-0.63l2.607-0.352
		c0.951-0.13,1.357-0.712,1.217-1.748c-0.14-1.04-0.585-1.542-1.335-1.506c-0.162,0.008-0.354,0.026-0.578,0.057l-0.244,0.033
		l0.133,0.99l0.193-0.025c0.545-0.074,0.843,0.077,0.895,0.454c0.046,0.342-0.156,0.543-0.607,0.604l-2.439,0.33l-0.252-1.87
		l-0.884,0.119L22.528,119.527z"/>
</g>
<g>
	<path d="M113.281,201.871l-0.016-0.176c-0.035-0.454,0.004-0.735,0.119-0.842c0.115-0.105,0.549-0.259,1.299-0.458
		c0.908-0.244,1.48-0.504,1.717-0.778s0.324-0.787,0.264-1.54c-0.062-0.795-0.273-1.322-0.633-1.58
		c-0.359-0.257-1.01-0.349-1.951-0.274c-0.963,0.076-1.602,0.27-1.914,0.577s-0.436,0.867-0.371,1.679l0.021,0.271l1.203-0.095
		l-0.021-0.275c-0.039-0.471,0.01-0.773,0.143-0.905c0.133-0.133,0.469-0.221,1.014-0.265c0.527-0.041,0.865-0.008,1.016,0.101
		c0.15,0.109,0.244,0.387,0.279,0.836c0.037,0.468-0.01,0.763-0.143,0.887c-0.131,0.123-0.572,0.283-1.322,0.479
		c-0.906,0.237-1.473,0.478-1.699,0.721c-0.229,0.244-0.314,0.708-0.26,1.391l0.105,1.316l4.889-0.389l-0.076-0.972L113.281,201.871
		z"/>
	<polygon points="119.705,195.654 117.912,197.89 118.752,198.569 120.18,196.671 120.959,202.029 122.178,201.852 121.244,195.431 
			"/>
	<path d="M127.684,197.94c0.158,0.08,0.283,0.336,0.375,0.767c0.098,0.455,0.088,0.754-0.025,0.896
		c-0.113,0.144-0.445,0.272-0.998,0.391c-0.576,0.123-0.949,0.137-1.119,0.039c-0.17-0.096-0.311-0.403-0.42-0.92
		c-0.076-0.356-0.045-0.603,0.094-0.737c0.137-0.135,0.49-0.264,1.057-0.385C127.18,197.878,127.525,197.861,127.684,197.94z
		 M128.596,195.666c-0.135-0.633-0.391-1.032-0.771-1.2c-0.379-0.17-1.002-0.161-1.871,0.024c-1.189,0.254-1.877,0.587-2.062,0.998
		c-0.188,0.412-0.107,1.426,0.236,3.036c0.277,1.305,0.598,2.096,0.961,2.369c0.363,0.274,1.113,0.29,2.246,0.048
		c0.922-0.196,1.512-0.471,1.77-0.824s0.301-0.941,0.125-1.762c-0.152-0.71-0.404-1.162-0.756-1.356
		c-0.354-0.196-0.938-0.207-1.752-0.033c-0.832,0.176-1.307,0.492-1.428,0.945l-0.023,0.005l-0.232-1.092
		c-0.102-0.48-0.088-0.797,0.041-0.949s0.508-0.297,1.133-0.43c0.432-0.092,0.723-0.105,0.875-0.043
		c0.154,0.062,0.262,0.243,0.324,0.541l0.027,0.145l1.193-0.255L128.596,195.666z"/>
	<path d="M132.936,193.92c0.18,0.071,0.334,0.339,0.465,0.802c0.115,0.405,0.117,0.679,0.006,0.821s-0.449,0.294-1.014,0.453
		c-0.533,0.151-0.881,0.192-1.045,0.123c-0.162-0.068-0.305-0.318-0.426-0.748c-0.121-0.428-0.133-0.716-0.033-0.867
		c0.098-0.152,0.393-0.298,0.883-0.437C132.371,193.897,132.758,193.849,132.936,193.92z M130.502,198.528
		c0.174,0.615,0.457,0.989,0.85,1.122c0.393,0.134,1.035,0.072,1.932-0.182c1.162-0.329,1.826-0.699,1.992-1.109
		c0.164-0.411,0.033-1.369-0.393-2.872c-0.396-1.396-0.777-2.22-1.143-2.473c-0.367-0.251-1.129-0.213-2.283,0.113
		c-0.891,0.253-1.449,0.564-1.674,0.935c-0.227,0.371-0.225,0.966,0.008,1.787c0.199,0.701,0.479,1.131,0.838,1.285
		c0.359,0.157,0.965,0.115,1.82-0.127c0.758-0.214,1.18-0.555,1.262-1.02l0.021-0.007l0.258,0.91
		c0.166,0.582,0.201,0.955,0.107,1.117c-0.094,0.161-0.441,0.327-1.043,0.497c-0.555,0.158-0.908,0.21-1.062,0.156
		c-0.152-0.054-0.287-0.278-0.398-0.676l-1.152,0.327L130.502,198.528z"/>
	<rect x="136.728" y="197.02" transform="matrix(-0.3137 -0.9495 0.9495 -0.3137 -7.1979 389.9255)" width="1.17" height="1.089"/>
	<path d="M139.211,197.599l1.014-0.399l-0.963-2.451c-0.27-0.684-0.092-1.147,0.529-1.393c0.301-0.119,0.52-0.14,0.656-0.066
		c0.137,0.074,0.273,0.287,0.412,0.639l1.029,2.619l1.012-0.397l-0.971-2.475c-0.264-0.67-0.088-1.125,0.529-1.367
		c0.492-0.193,0.857,0.01,1.092,0.607l1.014,2.579l1.014-0.397l-1.102-2.8c-0.387-0.986-1.068-1.287-2.049-0.901
		c-0.672,0.264-1.004,0.696-0.998,1.296l-0.018,0.006c-0.291-0.487-0.816-0.582-1.582-0.281c-0.654,0.257-0.992,0.66-1.016,1.211
		l-0.023,0.004l-0.229-0.66l-1.014,0.397L139.211,197.599z"/>
	<path d="M144.885,190.369l1.891,4.132l0.99-0.451l-1.891-4.134L144.885,190.369z M144.076,188.601l0.379,0.826l0.99-0.453
		l-0.379-0.825L144.076,188.601z"/>
	<path d="M149.971,188.139c-0.312-0.04-0.809,0.109-1.484,0.45c-0.717,0.36-1.158,0.687-1.328,0.977
		c-0.17,0.292-0.137,0.669,0.098,1.134c0.26,0.518,0.57,0.789,0.93,0.814c0.357,0.025,0.971-0.182,1.84-0.619
		c0.385-0.193,0.664-0.119,0.836,0.223c0.18,0.357-0.037,0.69-0.65,0.999c-0.596,0.3-0.963,0.259-1.105-0.119l-0.041-0.149
		l-1.012,0.51l0.053,0.101c0.236,0.473,0.527,0.731,0.869,0.776c0.342,0.044,0.859-0.108,1.553-0.458
		c0.721-0.363,1.174-0.711,1.355-1.042c0.182-0.332,0.148-0.745-0.1-1.241c-0.234-0.463-0.494-0.717-0.779-0.762
		s-0.781,0.091-1.492,0.406c-0.529,0.233-0.848,0.352-0.957,0.354c-0.111,0.003-0.223-0.108-0.336-0.33
		c-0.166-0.329,0.006-0.62,0.512-0.877c0.354-0.178,0.59-0.266,0.705-0.264c0.117,0.001,0.234,0.096,0.352,0.28l0.051,0.07
		l0.951-0.479C150.559,188.431,150.285,188.18,149.971,188.139z"/>
	<path d="M154.17,185.794c-0.314-0.025-0.801,0.151-1.459,0.525c-0.695,0.397-1.121,0.746-1.275,1.045
		c-0.152,0.3-0.102,0.676,0.156,1.126c0.287,0.505,0.611,0.76,0.971,0.766c0.359,0.007,0.961-0.23,1.807-0.713
		c0.373-0.215,0.656-0.154,0.846,0.179c0.197,0.347-0.002,0.691-0.6,1.032c-0.578,0.329-0.947,0.309-1.107-0.062l-0.051-0.147
		l-0.982,0.562l0.057,0.098c0.262,0.46,0.564,0.704,0.908,0.73s0.854-0.152,1.527-0.538c0.701-0.399,1.135-0.77,1.301-1.11
		c0.164-0.341,0.109-0.752-0.166-1.233c-0.258-0.451-0.529-0.692-0.816-0.722c-0.287-0.03-0.777,0.132-1.471,0.483
		c-0.514,0.262-0.828,0.395-0.938,0.402c-0.109,0.009-0.227-0.096-0.352-0.312c-0.182-0.319-0.025-0.62,0.467-0.9
		c0.344-0.197,0.574-0.298,0.689-0.302s0.238,0.083,0.365,0.263l0.055,0.066l0.926-0.527
		C154.771,186.055,154.486,185.818,154.17,185.794z"/>
	<path d="M155.26,184.881l2.398,3.859l0.926-0.574l-2.398-3.86L155.26,184.881z M154.234,183.229l0.479,0.771l0.926-0.574
		l-0.48-0.771L154.234,183.229z"/>
	<path d="M160.018,183.041c0.193,0.064,0.451,0.337,0.777,0.816c0.385,0.57,0.578,0.963,0.582,1.18
		c0.002,0.217-0.186,0.451-0.561,0.705c-0.389,0.262-0.68,0.355-0.871,0.279c-0.193-0.076-0.482-0.396-0.865-0.965
		c-0.336-0.496-0.498-0.847-0.486-1.051s0.203-0.433,0.58-0.687C159.543,183.068,159.824,182.976,160.018,183.041z M157.482,183.939
		c-0.064,0.387,0.172,0.977,0.705,1.767c0.557,0.821,1.029,1.277,1.42,1.364c0.389,0.088,0.969-0.127,1.738-0.647
		c0.709-0.479,1.086-0.923,1.131-1.332s-0.215-1.031-0.779-1.865c-0.506-0.749-0.949-1.163-1.332-1.243
		c-0.385-0.079-0.939,0.126-1.666,0.618C157.951,183.106,157.545,183.553,157.482,183.939z"/>
	<path d="M163.951,184.558l0.867-0.657l-1.627-2.148c-0.42-0.552-0.338-1.05,0.246-1.492c0.383-0.292,0.697-0.318,0.943-0.078
		l0.211,0.239l0.104,0.137l1.654,2.182l0.867-0.658l-1.869-2.464c-0.605-0.799-1.336-0.874-2.191-0.224
		c-0.59,0.445-0.803,0.951-0.641,1.516l-0.021,0.011l-0.428-0.636l-0.859,0.652L163.951,184.558z"/>
	<rect x="167.585" y="179.989" transform="matrix(-0.633 -0.7741 0.7741 -0.633 134.8643 425.001)" width="1.169" height="1.089"/>
	<path d="M169.541,174.403c-0.312,0.04-0.754,0.312-1.32,0.813c-0.602,0.53-0.947,0.958-1.035,1.283
		c-0.09,0.325,0.037,0.682,0.381,1.07c0.385,0.435,0.754,0.618,1.105,0.552c0.354-0.067,0.895-0.424,1.623-1.066
		c0.324-0.286,0.611-0.285,0.867,0.002c0.264,0.3,0.139,0.677-0.377,1.132c-0.498,0.441-0.865,0.496-1.098,0.165l-0.08-0.133
		l-0.848,0.749l0.076,0.086c0.35,0.396,0.697,0.571,1.037,0.528c0.342-0.044,0.805-0.322,1.387-0.837
		c0.605-0.536,0.953-0.987,1.045-1.354c0.094-0.367-0.045-0.759-0.412-1.175c-0.344-0.389-0.66-0.568-0.947-0.539
		s-0.732,0.286-1.34,0.772c-0.451,0.361-0.73,0.557-0.836,0.587s-0.242-0.047-0.408-0.235c-0.244-0.275-0.152-0.602,0.271-0.978
		c0.297-0.263,0.502-0.406,0.615-0.435c0.113-0.027,0.25,0.032,0.412,0.181l0.066,0.055l0.799-0.704
		C170.182,174.537,169.855,174.363,169.541,174.403z"/>
	<path d="M174.523,175.652l-2.576-2.679l0.814-0.784l-0.572-0.597l-0.816,0.784l-0.336-0.35c-0.33-0.343-0.322-0.68,0.023-1.011
		c0.076-0.073,0.18-0.147,0.311-0.226l-0.59-0.614c-0.148,0.13-0.264,0.232-0.342,0.31c-0.471,0.452-0.721,0.845-0.746,1.176
		c-0.027,0.331,0.16,0.704,0.561,1.12l0.334,0.351l-0.461,0.443l0.572,0.597l0.463-0.445l2.576,2.68L174.523,175.652z"/>
	
		<rect x="175.171" y="173.062" transform="matrix(-0.7121 -0.7021 0.7021 -0.7121 179.026 420.6252)" width="1.168" height="1.088"/>
	<path d="M178.512,170.112c0.012,0.155-0.109,0.37-0.361,0.646c-0.322,0.351-0.584,0.516-0.787,0.496
		c-0.203-0.021-0.537-0.245-1.004-0.673c-0.484-0.442-0.752-0.762-0.801-0.958c-0.049-0.195,0.074-0.453,0.367-0.771
		c0.412-0.452,0.814-0.499,1.205-0.142l0.729-0.796c-0.475-0.435-0.891-0.627-1.248-0.576s-0.803,0.365-1.332,0.946
		c-0.551,0.601-0.805,1.11-0.76,1.533c0.041,0.422,0.4,0.941,1.074,1.558c0.688,0.632,1.242,0.947,1.66,0.948
		c0.42,0.001,0.916-0.314,1.494-0.946c0.789-0.859,0.996-1.551,0.623-2.073l-0.463-0.514l-0.117-0.105l-0.73,0.799
		C178.35,169.749,178.5,169.958,178.512,170.112z"/>
	<path d="M181.551,165.973c0.346,0.283,0.307,0.682-0.113,1.192c-0.258,0.313-0.463,0.49-0.615,0.529
		c-0.15,0.04-0.34-0.034-0.568-0.222c-0.328-0.271-0.297-0.643,0.096-1.117C180.797,165.811,181.199,165.683,181.551,165.973z
		 M179.002,165.111c0.244-0.295,0.451-0.455,0.617-0.477c0.168-0.022,0.389,0.081,0.664,0.305l0.568,0.47l-0.012,0.014
		c-0.369-0.095-0.793,0.147-1.271,0.728c-0.715,0.868-0.707,1.604,0.021,2.203c0.721,0.595,1.432,0.468,2.131-0.381
		c0.482-0.585,0.613-1.102,0.396-1.552l0.021-0.019l0.449,0.436l0.691-0.841l-2.293-1.888c-0.49-0.403-0.912-0.565-1.27-0.485
		c-0.357,0.079-0.797,0.435-1.316,1.066c-0.477,0.579-0.727,1.025-0.744,1.338c-0.02,0.312,0.182,0.643,0.602,0.988l0.707-0.858
		C178.637,165.889,178.65,165.539,179.002,165.111z"/>
	
		<rect x="183.277" y="163.715" transform="matrix(-0.7956 -0.6059 0.6059 -0.7956 230.6156 406.3347)" width="1.169" height="1.089"/>
	<path d="M183.355,158.216l2.031,1.427c0.684,0.48,0.826,1.006,0.426,1.577c-0.195,0.276-0.373,0.425-0.535,0.442
		c-0.162,0.019-0.4-0.083-0.717-0.307l-2.283-1.604l-0.627,0.892l2.498,1.754c0.842,0.591,1.561,0.467,2.152-0.376
		c0.438-0.625,0.49-1.186,0.156-1.68l0.016-0.012l0.602,0.497l0.625-0.89l-3.717-2.612L183.355,158.216z"/>
	<path d="M186.553,153.664c-0.289,0.127-0.635,0.512-1.037,1.153c-0.426,0.68-0.637,1.188-0.629,1.524
		c0.006,0.336,0.229,0.643,0.668,0.919c0.492,0.308,0.898,0.379,1.219,0.215c0.318-0.165,0.736-0.659,1.254-1.482
		c0.229-0.366,0.504-0.447,0.83-0.244c0.338,0.213,0.326,0.609-0.039,1.191c-0.354,0.565-0.689,0.722-1.006,0.471l-0.115-0.105
		l-0.6,0.959l0.098,0.061c0.447,0.28,0.828,0.352,1.145,0.213c0.314-0.139,0.68-0.538,1.09-1.196
		c0.43-0.686,0.637-1.216,0.621-1.595c-0.016-0.378-0.258-0.714-0.729-1.009c-0.441-0.274-0.795-0.357-1.061-0.249
		c-0.268,0.109-0.623,0.483-1.066,1.122c-0.332,0.474-0.543,0.74-0.637,0.8c-0.094,0.059-0.246,0.022-0.457-0.11
		c-0.312-0.195-0.318-0.533-0.016-1.015c0.209-0.336,0.365-0.533,0.465-0.592s0.25-0.039,0.445,0.059l0.082,0.032l0.564-0.901
		C187.205,153.609,186.842,153.536,186.553,153.664z"/>
</g>
<path d="M108.241,6.827C52.512,6.83,7.291,52.051,7.289,107.78c0.002,55.729,45.224,100.95,100.953,100.953
	c55.728-0.003,100.949-45.225,100.952-100.953C209.19,52.051,163.969,6.83,108.241,6.827z M176.079,175.619
	c-17.361,17.356-41.31,28.095-67.772,28.113v-6.671h-0.065c-24.641-0.002-46.922-9.981-63.098-26.137
	c-16.168-16.164-26.164-38.438-26.183-63.083v-0.01v-0.052c0-1.203,0.023-2.399,0.071-3.589l-6.659-0.264
	C13.36,78.97,23.878,56.47,40.403,39.941c17.375-17.372,41.349-28.113,67.838-28.114c26.489,0.001,50.462,10.742,67.838,28.114
	c17.371,17.376,28.113,41.349,28.114,67.839C204.192,134.27,193.45,158.243,176.079,175.619z"/>
<path d="M180.363,137.547V76.838l-5.525,3.921l-15.065,10.692h-3.374V70.777c0.001-3.516-1.445-6.727-3.75-9.027
	c-2.3-2.305-5.511-3.751-9.027-3.75h-17.008c-0.727-4.043-2.67-7.676-5.452-10.455c-3.561-3.566-8.516-5.782-13.954-5.78
	c-5.439-0.002-10.395,2.214-13.955,5.781C90.47,50.324,88.528,53.957,87.802,58H70.793c-3.516-0.001-6.727,1.445-9.026,3.75
	c-2.305,2.3-3.751,5.511-3.75,9.027v10.74l-22.769,6.178l26.54,7.883l-26.028,7.731l26.028,7.73l-26.028,7.731l26.071,7.743
	l-3.814,1.142v15.953c-0.001,3.517,1.445,6.727,3.75,9.027c2.3,2.305,5.511,3.751,9.027,3.75h23.68v-3.5
	c0.001-3.528,1.419-6.69,3.729-9.006c2.315-2.31,5.477-3.728,9.005-3.729c3.527,0.002,6.688,1.42,9.003,3.729
	c2.311,2.316,3.729,5.478,3.73,9.006v3.5h23.68c3.517,0.001,6.728-1.445,9.027-3.75c2.305-2.301,3.751-5.512,3.75-9.027v-20.678
	h3.373L180.363,137.547z M164.387,117.623V96.761l8.977-6.371v33.604L164.387,117.623z M157.387,115.931h-14.234V98.452h14.234
	V115.931z M149.398,143.608c-0.001,1.587-0.642,3.015-1.7,4.077c-1.062,1.059-2.49,1.699-4.077,1.7h-17.008
	c-0.727-4.044-2.67-7.677-5.452-10.455c-3.561-3.565-8.516-5.782-13.954-5.78c-5.439-0.002-10.395,2.214-13.955,5.78
	c-2.782,2.778-4.725,6.411-5.451,10.455H70.793c-1.586-0.001-3.014-0.642-4.077-1.7c-1.058-1.062-1.699-2.491-1.7-4.077v-10.742
	l21.314-6.38l-25.985-7.717l26.028-7.73l-26.028-7.73l26.028-7.731l-25.516-7.579l4.159-1.128V70.777
	c0.001-1.586,0.642-3.014,1.7-4.077c1.063-1.058,2.491-1.699,4.077-1.7h23.68v-3.5c0.001-3.528,1.419-6.689,3.729-9.005
	c2.315-2.31,5.477-3.728,9.005-3.73c3.527,0.001,6.688,1.42,9.003,3.73c2.311,2.316,3.729,5.478,3.73,9.005V65h23.68
	c1.587,0.001,3.015,0.642,4.077,1.7c1.059,1.063,1.699,2.491,1.7,4.077v20.675h-13.246v31.479h13.246V143.608z"/>
</svg>
