999
DXF created by Inkscape
  0
SECTION
  2
HEADER
  9
$ACADVER
  1
AC1014
  9
$HANDSEED
  5
FFFF
  9
$MEASUREMENT
 70
     1
  0
ENDSEC
  0
SECTION
  2
TABLES
  0
TABLE
  2
VPORT
  5
8
330
0
100
AcDbSymbolTable
 70
     4
  0
VPORT
  5
2E
330
8
100
AcDbSymbolTableRecord
100
AcDbViewportTableRecord
  2
*ACTIVE
 70
     0
 10
0.0
 20
0.0
 11
1.0
 21
1.0
 12
210.0
 22
148.5
 13
0.0
 23
0.0
 14
10.0
 24
10.0
 15
10.0
 25
10.0
 16
0.0
 26
0.0
 36
1.0
 17
0.0
 27
0.0
 37
0.0
 40
341.0
 41
1.24
 42
50.0
 43
0.0
 44
0.0
 50
0.0
 51
0.0
 71
     0
 72
   100
 73
     1
 74
     3
 75
     0
 76
     0
 77
     0
 78
     0
  0
ENDTAB
  0
TABLE
  2
LTYPE
  5
5
330
0
100
AcDbSymbolTable
 70
     1
  0
LTYPE
  5
14
330
5
100
AcDbSymbolTableRecord
100
AcDbLinetypeTableRecord
  2
BYBLOCK
 70
     0
  3

 72
    65
 73
     0
 40
0.0
  0
LTYPE
  5
15
330
5
100
AcDbSymbolTableRecord
100
AcDbLinetypeTableRecord
  2
BYLAYER
 70
     0
  3

 72
    65
 73
     0
 40
0.0
  0
LTYPE
  5
16
330
5
100
AcDbSymbolTableRecord
100
AcDbLinetypeTableRecord
  2
CONTINUOUS
 70
     0
  3
Solid line
 72
    65
 73
     0
 40
0.0
  0
ENDTAB
  0
TABLE
  2
LAYER
  5
2
330
0
100
AcDbSymbolTable
 70
1
  0
LAYER
  5
10
330
2
100
AcDbSymbolTableRecord
100
AcDbLayerTableRecord
  2
0
 70
     0
 62
     7
  6
CONTINUOUS
  0
ENDTAB
  0
TABLE
  2
STYLE
  5
3
330
0
100
AcDbSymbolTable
 70
     1
  0
STYLE
  5
11
330
3
100
AcDbSymbolTableRecord
100
AcDbTextStyleTableRecord
  2
STANDARD
 70
     0
 40
0.0
 41
1.0
 50
0.0
 71
     0
 42
2.5
  3
txt
  4

  0
ENDTAB
  0
TABLE
  2
VIEW
  5
6
330
0
100
AcDbSymbolTable
 70
     0
  0
ENDTAB
  0
TABLE
  2
UCS
  5
7
330
0
100
AcDbSymbolTable
 70
     0
  0
ENDTAB
  0
TABLE
  2
APPID
  5
9
330
0
100
AcDbSymbolTable
 70
     2
  0
APPID
  5
12
330
9
100
AcDbSymbolTableRecord
100
AcDbRegAppTableRecord
  2
ACAD
 70
     0
  0
ENDTAB
  0
TABLE
  2
DIMSTYLE
  5
A
330
0
100
AcDbSymbolTable
 70
     1
  0
DIMSTYLE
105
27
330
A
100
AcDbSymbolTableRecord
100
AcDbDimStyleTableRecord
  2
ISO-25
 70
     0
  3

  4

  5

  6

  7

 40
1.0
 41
2.5
 42
0.625
 43
3.75
 44
1.25
 45
0.0
 46
0.0
 47
0.0
 48
0.0
140
2.5
141
2.5
142
0.0
143
0.03937007874016
144
1.0
145
0.0
146
1.0
147
0.625
 71
     0
 72
     0
 73
     0
 74
     0
 75
     0
 76
     0
 77
     1
 78
     8
170
     0
171
     3
172
     1
173
     0
174
     0
175
     0
176
     0
177
     0
178
     0
270
     2
271
     2
272
     2
273
     2
274
     3
340
11
275
     0
280
     0
281
     0
282
     0
283
     0
284
     8
285
     0
286
     0
287
     3
288
     0
  0
ENDTAB
  0
TABLE
  2
BLOCK_RECORD
  5
1
330
0
100
AcDbSymbolTable
 70
     1
  0
BLOCK_RECORD
  5
1F
330
1
100
AcDbSymbolTableRecord
100
AcDbBlockTableRecord
  2
*MODEL_SPACE
  0
BLOCK_RECORD
  5
1B
330
1
100
AcDbSymbolTableRecord
100
AcDbBlockTableRecord
  2
*PAPER_SPACE
  0
ENDTAB
  0
ENDSEC
  0
SECTION
  2
BLOCKS
  0
BLOCK
  5
20
330
1F
100
AcDbEntity
  8
0
100
AcDbBlockBegin
  2
*MODEL_SPACE
 70
     0
 10
0.0
 20
0.0
 30
0.0
  3
*MODEL_SPACE
  1

  0
ENDBLK
  5
21
330
1F
100
AcDbEntity
  8
0
100
AcDbBlockEnd
  0
BLOCK
  5
1C
330
1B
100
AcDbEntity
 67
     1
  8
0
100
AcDbBlockBegin
  2
*PAPER_SPACE
  1

  0
ENDBLK
  5
1D
330
1B
100
AcDbEntity
 67
     1
  8
0
100
AcDbBlockEnd
  0
ENDSEC
  0
SECTION
  2
ENTITIES
  0
LWPOLYLINE
  5
100
100
AcDbEntity
  8
0
 62
7
100
AcDbPolyline
 90
643
 70
0
 10
67.770025
 20
60.536632
 30
0.0
 10
67.793054
 20
60.443050
 30
0.0
 10
67.816338
 20
60.345740
 30
0.0
 10
67.839875
 20
60.244822
 30
0.0
 10
67.863638
 20
60.140419
 30
0.0
 10
67.887599
 20
60.032650
 30
0.0
 10
67.911729
 20
59.921637
 30
0.0
 10
67.936028
 20
59.807500
 30
0.0
 10
67.960440
 20
59.690364
 30
0.0
 10
67.984965
 20
59.570343
 30
0.0
 10
68.009575
 20
59.447563
 30
0.0
 10
68.034241
 20
59.322143
 30
0.0
 10
68.058964
 20
59.194203
 30
0.0
 10
68.083687
 20
59.063867
 30
0.0
 10
68.108409
 20
58.931254
 30
0.0
 10
68.133104
 20
58.796484
 30
0.0
 10
68.157742
 20
58.659680
 30
0.0
 10
68.182323
 20
58.520959
 30
0.0
 10
68.206792
 20
58.380449
 30
0.0
 10
68.231148
 20
58.238266
 30
0.0
 10
68.255363
 20
58.094530
 30
0.0
 10
68.279408
 20
57.949363
 30
0.0
 10
68.303284
 20
57.802887
 30
0.0
 10
68.326934
 20
57.655226
 30
0.0
 10
68.350359
 20
57.506492
 30
0.0
 10
68.373529
 20
57.356815
 30
0.0
 10
68.396417
 20
57.206312
 30
0.0
 10
68.419023
 20
57.055103
 30
0.0
 10
68.441291
 20
56.903310
 30
0.0
 10
68.463219
 20
56.751053
 30
0.0
 10
68.484781
 20
56.598456
 30
0.0
 10
68.505948
 20
56.445635
 30
0.0
 10
68.526691
 20
56.292716
 30
0.0
 10
68.547011
 20
56.139819
 30
0.0
 10
68.566879
 20
55.987061
 30
0.0
 10
68.586240
 20
55.834568
 30
0.0
 10
68.605121
 20
55.682456
 30
0.0
 10
68.623465
 20
55.530849
 30
0.0
 10
68.641245
 20
55.379868
 30
0.0
 10
68.658461
 20
55.229633
 30
0.0
 10
68.675083
 20
55.080264
 30
0.0
 10
68.691085
 20
54.931886
 30
0.0
 10
68.706467
 20
54.784614
 30
0.0
 10
68.721170
 20
54.638572
 30
0.0
 10
68.735197
 20
54.493882
 30
0.0
 10
68.748518
 20
54.350663
 30
0.0
 10
68.761105
 20
54.209038
 30
0.0
 10
68.772930
 20
54.069127
 30
0.0
 10
68.783993
 20
53.931047
 30
0.0
 10
68.794238
 20
53.794925
 30
0.0
 10
68.803664
 20
53.660878
 30
0.0
 10
68.812243
 20
53.529030
 30
0.0
 10
68.819976
 20
53.399501
 30
0.0
 10
68.826806
 20
53.272408
 30
0.0
 10
68.832733
 20
53.147877
 30
0.0
 10
68.837728
 20
53.026028
 30
0.0
 10
68.841764
 20
52.906978
 30
0.0
 10
68.844812
 20
52.790852
 30
0.0
 10
68.846787
 20
52.677771
 30
0.0
 10
68.847916
 20
52.567854
 30
0.0
 10
68.847888
 20
52.461222
 30
0.0
 10
68.846759
 20
52.357996
 30
0.0
 10
68.844501
 20
52.258299
 30
0.0
 10
68.841199
 20
52.162250
 30
0.0
 10
68.836740
 20
52.069969
 30
0.0
 10
68.817719
 20
51.751419
 30
0.0
 10
68.796891
 20
51.434718
 30
0.0
 10
68.774228
 20
51.119828
 30
0.0
 10
68.749703
 20
50.806723
 30
0.0
 10
68.723287
 20
50.495361
 30
0.0
 10
68.694977
 20
50.185712
 30
0.0
 10
68.664743
 20
49.877743
 30
0.0
 10
68.632558
 20
49.571419
 30
0.0
 10
68.598407
 20
49.266709
 30
0.0
 10
68.562262
 20
48.963577
 30
0.0
 10
68.524103
 20
48.661992
 30
0.0
 10
68.483906
 20
48.361916
 30
0.0
 10
68.441649
 20
48.063319
 30
0.0
 10
68.397309
 20
47.766168
 30
0.0
 10
68.350864
 20
47.470424
 30
0.0
 10
68.302293
 20
47.176058
 30
0.0
 10
68.251572
 20
46.883038
 30
0.0
 10
68.198678
 20
46.591327
 30
0.0
 10
68.143591
 20
46.300892
 30
0.0
 10
68.086286
 20
46.011699
 30
0.0
 10
68.026740
 20
45.723717
 30
0.0
 10
67.964933
 20
45.436909
 30
0.0
 10
67.900844
 20
45.151243
 30
0.0
 10
67.834445
 20
44.866687
 30
0.0
 10
67.765716
 20
44.583206
 30
0.0
 10
67.694635
 20
44.300767
 30
0.0
 10
67.621181
 20
44.019332
 30
0.0
 10
67.545328
 20
43.738873
 30
0.0
 10
67.467057
 20
43.459355
 30
0.0
 10
67.386344
 20
43.180745
 30
0.0
 10
67.303167
 20
42.903007
 30
0.0
 10
67.217502
 20
42.626108
 30
0.0
 10
67.129327
 20
42.350015
 30
0.0
 10
67.038621
 20
42.074696
 30
0.0
 10
66.945360
 20
41.800117
 30
0.0
 10
66.849523
 20
41.526240
 30
0.0
 10
66.751087
 20
41.253037
 30
0.0
 10
66.650029
 20
40.980473
 30
0.0
 10
66.546326
 20
40.708512
 30
0.0
 10
66.439957
 20
40.437122
 30
0.0
 10
66.330898
 20
40.166270
 30
0.0
 10
66.219129
 20
39.895921
 30
0.0
 10
66.104623
 20
39.626043
 30
0.0
 10
65.987363
 20
39.356603
 30
0.0
 10
65.867322
 20
39.087563
 30
0.0
 10
65.744479
 20
38.818896
 30
0.0
 10
65.618814
 20
38.550562
 30
0.0
 10
65.490302
 20
38.282533
 30
0.0
 10
65.358919
 20
38.014769
 30
0.0
 10
65.224646
 20
37.747242
 30
0.0
 10
65.087460
 20
37.479918
 30
0.0
 10
64.947334
 20
37.212761
 30
0.0
 10
64.804253
 20
36.945737
 30
0.0
 10
64.658189
 20
36.678816
 30
0.0
 10
64.509119
 20
36.411961
 30
0.0
 10
64.357024
 20
36.145140
 30
0.0
 10
64.201881
 20
35.878318
 30
0.0
 10
64.043667
 20
35.611463
 30
0.0
 10
63.882357
 20
35.344540
 30
0.0
 10
63.717932
 20
35.077519
 30
0.0
 10
63.550368
 20
34.810361
 30
0.0
 10
63.379644
 20
34.543035
 30
0.0
 10
63.205733
 20
34.275508
 30
0.0
 10
63.028618
 20
34.007747
 30
0.0
 10
62.975846
 20
33.928696
 30
0.0
 10
62.922573
 20
33.849254
 30
0.0
 10
62.868807
 20
33.769438
 30
0.0
 10
62.814556
 20
33.689265
 30
0.0
 10
62.759830
 20
33.608761
 30
0.0
 10
62.704633
 20
33.527938
 30
0.0
 10
62.648976
 20
33.446822
 30
0.0
 10
62.592867
 20
33.365432
 30
0.0
 10
62.536313
 20
33.283782
 30
0.0
 10
62.479324
 20
33.201898
 30
0.0
 10
62.421903
 20
33.119799
 30
0.0
 10
62.364061
 20
33.037501
 30
0.0
 10
62.305808
 20
32.955027
 30
0.0
 10
62.247148
 20
32.872395
 30
0.0
 10
62.188090
 20
32.789628
 30
0.0
 10
62.128643
 20
32.706739
 30
0.0
 10
62.068817
 20
32.623754
 30
0.0
 10
62.008616
 20
32.540691
 30
0.0
 10
61.948049
 20
32.457571
 30
0.0
 10
61.887125
 20
32.374408
 30
0.0
 10
61.825852
 20
32.291226
 30
0.0
 10
61.764237
 20
32.208047
 30
0.0
 10
61.702287
 20
32.124887
 30
0.0
 10
61.640014
 20
32.041764
 30
0.0
 10
61.577420
 20
31.958703
 30
0.0
 10
61.514519
 20
31.875722
 30
0.0
 10
61.451315
 20
31.792839
 30
0.0
 10
61.387815
 20
31.710074
 30
0.0
 10
61.324033
 20
31.627448
 30
0.0
 10
61.259968
 20
31.544980
 30
0.0
 10
61.195636
 20
31.462686
 30
0.0
 10
61.131041
 20
31.380594
 30
0.0
 10
61.066192
 20
31.298718
 30
0.0
 10
61.001097
 20
31.217077
 30
0.0
 10
60.935763
 20
31.135695
 30
0.0
 10
60.870200
 20
31.054588
 30
0.0
 10
60.804414
 20
30.973776
 30
0.0
 10
60.738410
 20
30.893281
 30
0.0
 10
60.672204
 20
30.813121
 30
0.0
 10
60.605797
 20
30.733317
 30
0.0
 10
60.539201
 20
30.653886
 30
0.0
 10
60.472419
 20
30.574849
 30
0.0
 10
60.405464
 20
30.496228
 30
0.0
 10
60.338343
 20
30.418038
 30
0.0
 10
60.271062
 20
30.340306
 30
0.0
 10
60.203630
 20
30.263044
 30
0.0
 10
60.136055
 20
30.186274
 30
0.0
 10
60.068344
 20
30.110018
 30
0.0
 10
60.000507
 20
30.034295
 30
0.0
 10
59.932550
 20
29.959125
 30
0.0
 10
59.864484
 20
29.884525
 30
0.0
 10
59.796313
 20
29.810515
 30
0.0
 10
59.728046
 20
29.737121
 30
0.0
 10
59.659692
 20
29.664352
 30
0.0
 10
59.591256
 20
29.592239
 30
0.0
 10
59.522752
 20
29.520792
 30
0.0
 10
59.454184
 20
29.450036
 30
0.0
 10
59.385558
 20
29.379991
 30
0.0
 10
59.316885
 20
29.310674
 30
0.0
 10
59.248173
 20
29.242108
 30
0.0
 10
59.179429
 20
29.174310
 30
0.0
 10
59.110663
 20
29.107299
 30
0.0
 10
59.041877
 20
29.041098
 30
0.0
 10
58.973085
 20
28.975725
 30
0.0
 10
58.892482
 20
28.899970
 30
0.0
 10
58.811538
 20
28.824586
 30
0.0
 10
58.730255
 20
28.749563
 30
0.0
 10
58.648640
 20
28.674901
 30
0.0
 10
58.566699
 20
28.600598
 30
0.0
 10
58.484434
 20
28.526641
 30
0.0
 10
58.401856
 20
28.453035
 30
0.0
 10
58.318964
 20
28.379770
 30
0.0
 10
58.235765
 20
28.306847
 30
0.0
 10
58.152267
 20
28.234256
 30
0.0
 10
58.068472
 20
28.161993
 30
0.0
 10
57.984387
 20
28.090060
 30
0.0
 10
57.900017
 20
28.018449
 30
0.0
 10
57.815367
 20
27.947154
 30
0.0
 10
57.730441
 20
27.876173
 30
0.0
 10
57.645244
 20
27.805501
 30
0.0
 10
57.559784
 20
27.735132
 30
0.0
 10
57.474064
 20
27.665068
 30
0.0
 10
57.388091
 20
27.595297
 30
0.0
 10
57.301867
 20
27.525819
 30
0.0
 10
57.215399
 20
27.456632
 30
0.0
 10
57.128692
 20
27.387725
 30
0.0
 10
57.041754
 20
27.319100
 30
0.0
 10
56.954584
 20
27.250751
 30
0.0
 10
56.867194
 20
27.182671
 30
0.0
 10
56.779583
 20
27.114861
 30
0.0
 10
56.691761
 20
27.047311
 30
0.0
 10
56.603731
 20
26.980021
 30
0.0
 10
56.515500
 20
26.912985
 30
0.0
 10
56.427071
 20
26.846200
 30
0.0
 10
56.338450
 20
26.779660
 30
0.0
 10
56.249641
 20
26.713361
 30
0.0
 10
56.160650
 20
26.647301
 30
0.0
 10
56.071485
 20
26.581473
 30
0.0
 10
55.982145
 20
26.515876
 30
0.0
 10
55.892641
 20
26.450502
 30
0.0
 10
55.802973
 20
26.385351
 30
0.0
 10
55.713153
 20
26.320414
 30
0.0
 10
55.623181
 20
26.255692
 30
0.0
 10
55.533061
 20
26.191179
 30
0.0
 10
55.442801
 20
26.126869
 30
0.0
 10
55.352408
 20
26.062757
 30
0.0
 10
55.261883
 20
25.998842
 30
0.0
 10
55.171233
 20
25.935119
 30
0.0
 10
55.080462
 20
25.871585
 30
0.0
 10
54.989578
 20
25.808232
 30
0.0
 10
54.898584
 20
25.745059
 30
0.0
 10
54.807485
 20
25.682059
 30
0.0
 10
54.716288
 20
25.619230
 30
0.0
 10
54.624994
 20
25.556568
 30
0.0
 10
54.533614
 20
25.494067
 30
0.0
 10
54.442151
 20
25.431727
 30
0.0
 10
54.350607
 20
25.369537
 30
0.0
 10
54.258992
 20
25.307499
 30
0.0
 10
54.167306
 20
25.245608
 30
0.0
 10
54.075559
 20
25.183854
 30
0.0
 10
53.983755
 20
25.122240
 30
0.0
 10
53.891897
 20
25.060755
 30
0.0
 10
53.799991
 20
24.999402
 30
0.0
 10
53.708043
 20
24.938172
 30
0.0
 10
53.616056
 20
24.877062
 30
0.0
 10
53.524040
 20
24.816068
 30
0.0
 10
53.431996
 20
24.755187
 30
0.0
 10
53.339929
 20
24.694413
 30
0.0
 10
53.172679
 20
24.585611
 30
0.0
 10
53.003024
 20
24.477500
 30
0.0
 10
52.831024
 20
24.370098
 30
0.0
 10
52.656740
 20
24.263429
 30
0.0
 10
52.480235
 20
24.157511
 30
0.0
 10
52.301572
 20
24.052363
 30
0.0
 10
52.120808
 20
23.948012
 30
0.0
 10
51.938013
 20
23.844473
 30
0.0
 10
51.753242
 20
23.741767
 30
0.0
 10
51.566558
 20
23.639918
 30
0.0
 10
51.378025
 20
23.538942
 30
0.0
 10
51.187700
 20
23.438863
 30
0.0
 10
50.995651
 20
23.339699
 30
0.0
 10
50.801936
 20
23.241471
 30
0.0
 10
50.606619
 20
23.144203
 30
0.0
 10
50.409757
 20
23.047912
 30
0.0
 10
50.211417
 20
22.952617
 30
0.0
 10
50.011657
 20
22.858343
 30
0.0
 10
49.810543
 20
22.765108
 30
0.0
 10
49.608133
 20
22.672935
 30
0.0
 10
49.404490
 20
22.581842
 30
0.0
 10
49.199676
 20
22.491847
 30
0.0
 10
48.993752
 20
22.402975
 30
0.0
 10
48.786782
 20
22.315246
 30
0.0
 10
48.578824
 20
22.228680
 30
0.0
 10
48.369942
 20
22.143297
 30
0.0
 10
48.160198
 20
22.059118
 30
0.0
 10
47.949654
 20
21.976162
 30
0.0
 10
47.738369
 20
21.894453
 30
0.0
 10
47.526408
 20
21.814008
 30
0.0
 10
47.313833
 20
21.734848
 30
0.0
 10
47.100702
 20
21.656997
 30
0.0
 10
46.887079
 20
21.580472
 30
0.0
 10
46.673028
 20
21.505294
 30
0.0
 10
46.458607
 20
21.431484
 30
0.0
 10
46.243878
 20
21.359063
 30
0.0
 10
46.028906
 20
21.288053
 30
0.0
 10
45.813751
 20
21.218471
 30
0.0
 10
45.598472
 20
21.150337
 30
0.0
 10
45.383137
 20
21.083676
 30
0.0
 10
45.167801
 20
21.018508
 30
0.0
 10
44.952531
 20
20.954850
 30
0.0
 10
44.737387
 20
20.892725
 30
0.0
 10
44.522427
 20
20.832154
 30
0.0
 10
44.307720
 20
20.773156
 30
0.0
 10
44.093322
 20
20.715752
 30
0.0
 10
43.879296
 20
20.659962
 30
0.0
 10
43.665704
 20
20.605806
 30
0.0
 10
43.452610
 20
20.553307
 30
0.0
 10
43.240071
 20
20.502485
 30
0.0
 10
43.028156
 20
20.453361
 30
0.0
 10
42.816918
 20
20.405951
 30
0.0
 10
42.606426
 20
20.360282
 30
0.0
 10
42.396737
 20
20.316368
 30
0.0
 10
42.187916
 20
20.274235
 30
0.0
 10
41.980022
 20
20.233902
 30
0.0
 10
41.773119
 20
20.195388
 30
0.0
 10
41.567267
 20
20.158716
 30
0.0
 10
41.362531
 20
20.123904
 30
0.0
 10
41.158967
 20
20.090974
 30
0.0
 10
40.956642
 20
20.059946
 30
0.0
 10
40.755615
 20
20.030841
 30
0.0
 10
40.555951
 20
20.003691
 30
0.0
 10
40.357707
 20
19.978489
 30
0.0
 10
40.095492
 20
19.947041
 30
0.0
 10
39.832994
 20
19.917523
 30
0.0
 10
39.570234
 20
19.889950
 30
0.0
 10
39.307225
 20
19.864296
 30
0.0
 10
39.043985
 20
19.840589
 30
0.0
 10
38.780534
 20
19.818830
 30
0.0
 10
38.516885
 20
19.799018
 30
0.0
 10
38.253052
 20
19.781153
 30
0.0
 10
37.989058
 20
19.765236
 30
0.0
 10
37.724915
 20
19.751294
 30
0.0
 10
37.460642
 20
19.739300
 30
0.0
 10
37.196257
 20
19.729281
 30
0.0
 10
36.931775
 20
19.721209
 30
0.0
 10
36.667211
 20
19.715113
 30
0.0
 10
36.402586
 20
19.710993
 30
0.0
 10
36.137912
 20
19.708735
 30
0.0
 10
35.873210
 20
19.708577
 30
0.0
 10
35.608494
 20
19.710270
 30
0.0
 10
35.343781
 20
19.714080
 30
0.0
 10
35.079088
 20
19.719894
 30
0.0
 10
34.814434
 20
19.727683
 30
0.0
 10
34.549831
 20
19.737476
 30
0.0
 10
34.285301
 20
19.749273
 30
0.0
 10
34.020856
 20
19.763074
 30
0.0
 10
33.756515
 20
19.778878
 30
0.0
 10
33.492296
 20
19.796715
 30
0.0
 10
33.228212
 20
19.816555
 30
0.0
 10
32.964284
 20
19.838427
 30
0.0
 10
32.700527
 20
19.862303
 30
0.0
 10
32.436957
 20
19.888211
 30
0.0
 10
32.173590
 20
19.916151
 30
0.0
 10
31.910446
 20
19.946123
 30
0.0
 10
31.647539
 20
19.978133
 30
0.0
 10
31.384886
 20
20.012180
 30
0.0
 10
31.122504
 20
20.048271
 30
0.0
 10
30.860410
 20
20.086407
 30
0.0
 10
30.598621
 20
20.126593
 30
0.0
 10
30.337153
 20
20.168833
 30
0.0
 10
30.076024
 20
20.213128
 30
0.0
 10
29.815248
 20
20.259483
 30
0.0
 10
29.554845
 20
20.307904
 30
0.0
 10
29.294830
 20
20.358391
 30
0.0
 10
29.035220
 20
20.410946
 30
0.0
 10
28.776033
 20
20.465579
 30
0.0
 10
28.517283
 20
20.522286
 30
0.0
 10
28.258987
 20
20.581072
 30
0.0
 10
28.001165
 20
20.641945
 30
0.0
 10
27.743831
 20
20.704906
 30
0.0
 10
27.487003
 20
20.769955
 30
0.0
 10
27.230696
 20
20.837099
 30
0.0
 10
26.974928
 20
20.906342
 30
0.0
 10
26.719717
 20
20.977685
 30
0.0
 10
26.465077
 20
21.051133
 30
0.0
 10
26.211026
 20
21.126690
 30
0.0
 10
25.957581
 20
21.204355
 30
0.0
 10
25.704759
 20
21.284139
 30
0.0
 10
25.452575
 20
21.366037
 30
0.0
 10
25.201048
 20
21.450060
 30
0.0
 10
24.950194
 20
21.536206
 30
0.0
 10
24.700029
 20
21.624482
 30
0.0
 10
24.450570
 20
21.714889
 30
0.0
 10
24.201834
 20
21.807432
 30
0.0
 10
23.953837
 20
21.902112
 30
0.0
 10
23.706597
 20
21.998937
 30
0.0
 10
22.808840
 20
22.370466
 30
0.0
 10
21.928859
 20
22.765044
 30
0.0
 10
21.066809
 20
23.182151
 30
0.0
 10
20.222841
 20
23.621272
 30
0.0
 10
19.397110
 20
24.081887
 30
0.0
 10
18.589767
 20
24.563482
 30
0.0
 10
17.800967
 20
25.065538
 30
0.0
 10
17.030862
 20
25.587542
 30
0.0
 10
16.279606
 20
26.128972
 30
0.0
 10
15.547351
 20
26.689312
 30
0.0
 10
14.834251
 20
27.268046
 30
0.0
 10
14.140459
 20
27.864658
 30
0.0
 10
13.466127
 20
28.478627
 30
0.0
 10
12.811410
 20
29.109439
 30
0.0
 10
12.176459
 20
29.756577
 30
0.0
 10
11.561429
 20
30.419523
 30
0.0
 10
10.966472
 20
31.097759
 30
0.0
 10
10.391741
 20
31.790770
 30
0.0
 10
9.837389
 20
32.498038
 30
0.0
 10
9.303570
 20
33.219046
 30
0.0
 10
8.790437
 20
33.953275
 30
0.0
 10
8.298141
 20
34.700210
 30
0.0
 10
7.826838
 20
35.459334
 30
0.0
 10
7.376680
 20
36.230131
 30
0.0
 10
6.947819
 20
37.012081
 30
0.0
 10
6.540410
 20
37.804669
 30
0.0
 10
6.154605
 20
38.607376
 30
0.0
 10
5.790557
 20
39.419685
 30
0.0
 10
5.448419
 20
40.241082
 30
0.0
 10
5.128344
 20
41.071049
 30
0.0
 10
4.830486
 20
41.909066
 30
0.0
 10
4.554998
 20
42.754618
 30
0.0
 10
4.302032
 20
43.607188
 30
0.0
 10
4.071742
 20
44.466259
 30
0.0
 10
3.864281
 20
45.331312
 30
0.0
 10
3.679802
 20
46.201832
 30
0.0
 10
3.518458
 20
47.077300
 30
0.0
 10
3.380401
 20
47.957204
 30
0.0
 10
3.265787
 20
48.841019
 30
0.0
 10
3.174766
 20
49.728236
 30
0.0
 10
3.107493
 20
50.618331
 30
0.0
 10
3.064120
 20
51.510791
 30
0.0
 10
3.044802
 20
52.405097
 30
0.0
 10
3.049690
 20
53.300732
 30
0.0
 10
3.078937
 20
54.197182
 30
0.0
 10
3.132697
 20
55.093926
 30
0.0
 10
3.211123
 20
55.990448
 30
0.0
 10
3.314368
 20
56.886232
 30
0.0
 10
3.442586
 20
57.780761
 30
0.0
 10
3.595928
 20
58.673517
 30
0.0
 10
3.774549
 20
59.563982
 30
0.0
 10
3.978601
 20
60.451641
 30
0.0
 10
4.208237
 20
61.335976
 30
0.0
 10
4.463611
 20
62.216469
 30
0.0
 10
4.744876
 20
63.092604
 30
0.0
 10
5.052185
 20
63.963864
 30
0.0
 10
5.385690
 20
64.829731
 30
0.0
 10
5.745545
 20
65.689689
 30
0.0
 10
6.131904
 20
66.543220
 30
0.0
 10
6.544918
 20
67.389808
 30
0.0
 10
6.984742
 20
68.228934
 30
0.0
 10
7.451528
 20
69.060083
 30
0.0
 10
7.945430
 20
69.882737
 30
0.0
 10
8.466599
 20
70.696379
 30
0.0
 10
8.573107
 20
70.856397
 30
0.0
 10
8.680433
 20
71.015774
 30
0.0
 10
8.788577
 20
71.174504
 30
0.0
 10
8.897540
 20
71.332583
 30
0.0
 10
9.007321
 20
71.490006
 30
0.0
 10
9.117921
 20
71.646767
 30
0.0
 10
9.229339
 20
71.802863
 30
0.0
 10
9.341576
 20
71.958287
 30
0.0
 10
9.454632
 20
72.113035
 30
0.0
 10
9.568507
 20
72.267103
 30
0.0
 10
9.683199
 20
72.420485
 30
0.0
 10
9.798710
 20
72.573176
 30
0.0
 10
9.915040
 20
72.725171
 30
0.0
 10
10.032189
 20
72.876466
 30
0.0
 10
10.150156
 20
73.027056
 30
0.0
 10
10.268941
 20
73.176936
 30
0.0
 10
10.388545
 20
73.326100
 30
0.0
 10
10.508968
 20
73.474544
 30
0.0
 10
10.630209
 20
73.622263
 30
0.0
 10
10.752269
 20
73.769252
 30
0.0
 10
10.875147
 20
73.915507
 30
0.0
 10
10.998844
 20
74.061021
 30
0.0
 10
11.123359
 20
74.205791
 30
0.0
 10
11.248693
 20
74.349812
 30
0.0
 10
11.374846
 20
74.493077
 30
0.0
 10
11.501817
 20
74.635584
 30
0.0
 10
11.629606
 20
74.777326
 30
0.0
 10
11.758215
 20
74.918299
 30
0.0
 10
11.887641
 20
75.058498
 30
0.0
 10
12.017887
 20
75.197918
 30
0.0
 10
12.148950
 20
75.336554
 30
0.0
 10
12.280833
 20
75.474401
 30
0.0
 10
12.413534
 20
75.611454
 30
0.0
 10
12.547053
 20
75.747709
 30
0.0
 10
12.681391
 20
75.883160
 30
0.0
 10
12.816548
 20
76.017803
 30
0.0
 10
12.952523
 20
76.151632
 30
0.0
 10
13.089317
 20
76.284643
 30
0.0
 10
13.226929
 20
76.416831
 30
0.0
 10
13.365360
 20
76.548190
 30
0.0
 10
13.504609
 20
76.678717
 30
0.0
 10
13.644677
 20
76.808406
 30
0.0
 10
13.785564
 20
76.937251
 30
0.0
 10
13.927269
 20
77.065250
 30
0.0
 10
14.069792
 20
77.192395
 30
0.0
 10
14.213134
 20
77.318683
 30
0.0
 10
14.357295
 20
77.444108
 30
0.0
 10
14.502274
 20
77.568666
 30
0.0
 10
14.648072
 20
77.692352
 30
0.0
 10
14.794689
 20
77.815160
 30
0.0
 10
14.942123
 20
77.937087
 30
0.0
 10
15.090377
 20
78.058126
 30
0.0
 10
15.239449
 20
78.178273
 30
0.0
 10
15.389340
 20
78.297524
 30
0.0
 10
15.540049
 20
78.415873
 30
0.0
 10
15.691576
 20
78.533315
 30
0.0
 10
15.843923
 20
78.649846
 30
0.0
 10
15.997087
 20
78.765460
 30
0.0
 10
16.151071
 20
78.880152
 30
0.0
 10
16.305873
 20
78.993919
 30
0.0
 10
16.461493
 20
79.106754
 30
0.0
 10
16.617932
 20
79.218653
 30
0.0
 10
16.775190
 20
79.329611
 30
0.0
 10
16.933266
 20
79.439623
 30
0.0
 10
17.170659
 20
79.602290
 30
0.0
 10
17.407154
 20
79.761964
 30
0.0
 10
17.642800
 20
79.918682
 30
0.0
 10
17.877649
 20
80.072477
 30
0.0
 10
18.111754
 20
80.223383
 30
0.0
 10
18.345164
 20
80.371435
 30
0.0
 10
18.577932
 20
80.516668
 30
0.0
 10
18.810110
 20
80.659115
 30
0.0
 10
19.041748
 20
80.798812
 30
0.0
 10
19.272897
 20
80.935792
 30
0.0
 10
19.503610
 20
81.070091
 30
0.0
 10
19.733938
 20
81.201742
 30
0.0
 10
19.963932
 20
81.330780
 30
0.0
 10
20.193644
 20
81.457239
 30
0.0
 10
20.423124
 20
81.581155
 30
0.0
 10
20.652425
 20
81.702560
 30
0.0
 10
20.881598
 20
81.821490
 30
0.0
 10
21.110694
 20
81.937980
 30
0.0
 10
21.339765
 20
82.052063
 30
0.0
 10
21.568862
 20
82.163774
 30
0.0
 10
21.798036
 20
82.273147
 30
0.0
 10
22.027340
 20
82.380217
 30
0.0
 10
22.256823
 20
82.485019
 30
0.0
 10
22.486539
 20
82.587586
 30
0.0
 10
22.716537
 20
82.687953
 30
0.0
 10
22.946871
 20
82.786155
 30
0.0
 10
23.177590
 20
82.882226
 30
0.0
 10
23.408747
 20
82.976200
 30
0.0
 10
23.640392
 20
83.068112
 30
0.0
 10
23.872578
 20
83.157997
 30
0.0
 10
24.105356
 20
83.245888
 30
0.0
 10
24.338776
 20
83.331820
 30
0.0
 10
24.572892
 20
83.415828
 30
0.0
 10
24.807753
 20
83.497946
 30
0.0
 10
25.043411
 20
83.578208
 30
0.0
 10
25.279919
 20
83.656649
 30
0.0
 10
25.517326
 20
83.733304
 30
0.0
 10
25.755686
 20
83.808206
 30
0.0
 10
25.995048
 20
83.881390
 30
0.0
 10
26.235464
 20
83.952891
 30
0.0
 10
26.476987
 20
84.022743
 30
0.0
 10
26.719667
 20
84.090980
 30
0.0
 10
26.963555
 20
84.157637
 30
0.0
 10
27.208704
 20
84.222749
 30
0.0
 10
27.455164
 20
84.286349
 30
0.0
 10
27.702987
 20
84.348472
 30
0.0
 10
27.952225
 20
84.409153
 30
0.0
 10
28.202928
 20
84.468426
 30
0.0
 10
28.455149
 20
84.526325
 30
0.0
 10
28.708940
 20
84.582886
 30
0.0
 10
28.964348
 20
84.638141
 30
0.0
 10
29.221430
 20
84.692126
 30
0.0
 10
29.480233
 20
84.744876
 30
0.0
 10
29.740812
 20
84.796424
 30
0.0
 10
30.003214
 20
84.846805
 30
0.0
 10
30.267495
 20
84.896054
 30
0.0
 10
30.533704
 20
84.944204
 30
0.0
 10
30.801894
 20
84.991291
 30
0.0
 10
31.072116
 20
85.037348
 30
0.0
 10
31.344418
 20
85.082410
 30
0.0
 10
31.618857
 20
85.126513
 30
0.0
 10
31.895480
 20
85.169689
 30
0.0
 10
32.174341
 20
85.211973
 30
0.0
 10
32.455491
 20
85.253401
 30
0.0
 10
33.214711
 20
85.336394
 30
0.0
 10
33.972184
 20
85.400556
 30
0.0
 10
34.727676
 20
85.446078
 30
0.0
 10
35.480950
 20
85.473151
 30
0.0
 10
36.231776
 20
85.481964
 30
0.0
 10
36.979922
 20
85.472708
 30
0.0
 10
37.725147
 20
85.445574
 30
0.0
 10
38.467219
 20
85.400752
 30
0.0
 10
39.205908
 20
85.338432
 30
0.0
 10
39.940975
 20
85.258804
 30
0.0
 10
40.672190
 20
85.162060
 30
0.0
 10
41.399316
 20
85.048390
 30
0.0
 10
42.122118
 20
84.917984
 30
0.0
 10
42.840365
 20
84.771032
 30
0.0
 10
43.553823
 20
84.607725
 30
0.0
 10
44.262254
 20
84.428254
 30
0.0
 10
44.965428
 20
84.232808
 30
0.0
 10
45.663110
 20
84.021578
 30
0.0
 10
46.355065
 20
83.794756
 30
0.0
 10
47.041060
 20
83.552530
 30
0.0
 10
47.720857
 20
83.295091
 30
0.0
 10
48.394228
 20
83.022631
 30
0.0
 10
49.060933
 20
82.735339
 30
0.0
 10
49.720743
 20
82.433406
 30
0.0
 10
50.373418
 20
82.117021
 30
0.0
 10
51.018731
 20
81.786377
 30
0.0
 10
51.656446
 20
81.441663
 30
0.0
 10
52.286323
 20
81.083069
 30
0.0
 10
52.908135
 20
80.710786
 30
0.0
 10
53.521644
 20
80.325004
 30
0.0
 10
54.126618
 20
79.925914
 30
0.0
 10
54.722821
 20
79.513706
 30
0.0
 10
55.310021
 20
79.088571
 30
0.0
 10
55.887981
 20
78.650699
 30
0.0
 10
56.456473
 20
78.200281
 30
0.0
 10
57.015253
 20
77.737506
 30
0.0
 10
57.564096
 20
77.262566
 30
0.0
 10
58.102762
 20
76.775650
 30
0.0
 10
58.631023
 20
76.276950
 30
0.0
 10
59.148639
 20
75.766655
 30
0.0
 10
59.655377
 20
75.244957
 30
0.0
 10
60.151007
 20
74.712044
 30
0.0
 10
60.635289
 20
74.168109
 30
0.0
 10
61.107995
 20
73.613341
 30
0.0
 10
61.568886
 20
73.047931
 30
0.0
 10
62.017729
 20
72.472069
 30
0.0
 10
62.454290
 20
71.885945
 30
0.0
 10
62.878338
 20
71.289751
 30
0.0
 10
63.289634
 20
70.683676
 30
0.0
 10
63.687949
 20
70.067911
 30
0.0
 10
64.073044
 20
69.442646
 30
0.0
 10
64.444688
 20
68.808072
 30
0.0
 10
64.802645
 20
68.164379
 30
0.0
 10
65.146682
 20
67.511758
 30
0.0
 10
65.476566
 20
66.850399
 30
0.0
 10
65.792062
 20
66.180492
 30
0.0
 10
66.092934
 20
65.502228
 30
0.0
 10
66.378952
 20
64.815798
 30
0.0
 10
66.649877
 20
64.121391
 30
0.0
 10
66.905477
 20
63.419199
 30
0.0
 10
67.145521
 20
62.709411
 30
0.0
 10
67.369769
 20
61.992218
 30
0.0
 10
67.577993
 20
61.267810
 30
0.0
 10
67.769954
 20
60.536379
 30
0.0
 10
67.770025
 20
60.536632
 30
0.0
 10
67.770025
 20
60.536632
 30
0.0
  0
LWPOLYLINE
  5
101
100
AcDbEntity
  8
0
 62
7
100
AcDbPolyline
 90
899
 70
0
 10
44.591114
 20
22.411236
 30
0.0
 10
44.906638
 20
22.503401
 30
0.0
 10
45.221618
 20
22.599173
 30
0.0
 10
45.536002
 20
22.698527
 30
0.0
 10
45.849749
 20
22.801436
 30
0.0
 10
46.162801
 20
22.907879
 30
0.0
 10
46.475114
 20
23.017833
 30
0.0
 10
46.786642
 20
23.131269
 30
0.0
 10
47.097332
 20
23.248168
 30
0.0
 10
47.407136
 20
23.368502
 30
0.0
 10
47.716005
 20
23.492248
 30
0.0
 10
48.023893
 20
23.619384
 30
0.0
 10
48.330750
 20
23.749883
 30
0.0
 10
48.636527
 20
23.883722
 30
0.0
 10
48.941177
 20
24.020876
 30
0.0
 10
49.244648
 20
24.161321
 30
0.0
 10
49.546894
 20
24.305034
 30
0.0
 10
49.847864
 20
24.451990
 30
0.0
 10
50.147514
 20
24.602166
 30
0.0
 10
50.445791
 20
24.755537
 30
0.0
 10
50.742647
 20
24.912077
 30
0.0
 10
51.038035
 20
25.071767
 30
0.0
 10
51.331904
 20
25.234575
 30
0.0
 10
51.624207
 20
25.400485
 30
0.0
 10
51.914896
 20
25.569469
 30
0.0
 10
52.203923
 20
25.741500
 30
0.0
 10
52.491236
 20
25.916560
 30
0.0
 10
52.776789
 20
26.094619
 30
0.0
 10
53.060532
 20
26.275657
 30
0.0
 10
53.342419
 20
26.459646
 30
0.0
 10
53.622397
 20
26.646567
 30
0.0
 10
53.900420
 20
26.836390
 30
0.0
 10
54.176439
 20
27.029097
 30
0.0
 10
54.450406
 20
27.224660
 30
0.0
 10
54.722274
 20
27.423054
 30
0.0
 10
54.991988
 20
27.624258
 30
0.0
 10
55.259506
 20
27.828246
 30
0.0
 10
55.524775
 20
28.034993
 30
0.0
 10
55.787750
 20
28.244475
 30
0.0
 10
56.048379
 20
28.456670
 30
0.0
 10
56.306616
 20
28.671554
 30
0.0
 10
56.562411
 20
28.889099
 30
0.0
 10
56.815716
 20
29.109283
 30
0.0
 10
57.066482
 20
29.332084
 30
0.0
 10
57.314660
 20
29.557475
 30
0.0
 10
57.560202
 20
29.785434
 30
0.0
 10
57.803059
 20
30.015934
 30
0.0
 10
58.043183
 20
30.248953
 30
0.0
 10
58.280523
 20
30.484468
 30
0.0
 10
58.515033
 20
30.722451
 30
0.0
 10
58.746664
 20
30.962879
 30
0.0
 10
58.975368
 20
31.205732
 30
0.0
 10
59.201092
 20
31.450980
 30
0.0
 10
59.423794
 20
31.698602
 30
0.0
 10
59.643422
 20
31.948574
 30
0.0
 10
59.859926
 20
32.200873
 30
0.0
 10
60.073258
 20
32.455468
 30
0.0
 10
60.283369
 20
32.712344
 30
0.0
 10
60.490213
 20
32.971472
 30
0.0
 10
60.693740
 20
33.232827
 30
0.0
 10
60.893901
 20
33.496388
 30
0.0
 10
61.090649
 20
33.762129
 30
0.0
 10
61.283932
 20
34.030025
 30
0.0
 10
61.473704
 20
34.300056
 30
0.0
 10
61.659914
 20
34.572191
 30
0.0
 10
61.951156
 20
35.011137
 30
0.0
 10
62.234843
 20
35.453992
 30
0.0
 10
62.510961
 20
35.900645
 30
0.0
 10
62.779487
 20
36.350993
 30
0.0
 10
63.040401
 20
36.804936
 30
0.0
 10
63.293687
 20
37.262364
 30
0.0
 10
63.539322
 20
37.723177
 30
0.0
 10
63.777286
 20
38.187266
 30
0.0
 10
64.007563
 20
38.654527
 30
0.0
 10
64.230129
 20
39.124859
 30
0.0
 10
64.444965
 20
39.598154
 30
0.0
 10
64.652054
 20
40.074311
 30
0.0
 10
64.851376
 20
40.553222
 30
0.0
 10
65.042909
 20
41.034784
 30
0.0
 10
65.226636
 20
41.518891
 30
0.0
 10
65.402533
 20
42.005439
 30
0.0
 10
65.570585
 20
42.494324
 30
0.0
 10
65.730772
 20
42.985442
 30
0.0
 10
65.883073
 20
43.478687
 30
0.0
 10
66.027469
 20
43.973956
 30
0.0
 10
66.163938
 20
44.471144
 30
0.0
 10
66.292465
 20
44.970144
 30
0.0
 10
66.413024
 20
45.470854
 30
0.0
 10
66.525600
 20
45.973170
 30
0.0
 10
66.630175
 20
46.476985
 30
0.0
 10
66.726726
 20
46.982197
 30
0.0
 10
66.815231
 20
47.488698
 30
0.0
 10
66.895675
 20
47.996385
 30
0.0
 10
66.968040
 20
48.505155
 30
0.0
 10
67.032299
 20
49.014902
 30
0.0
 10
67.088439
 20
49.525521
 30
0.0
 10
67.136436
 20
50.036911
 30
0.0
 10
67.176275
 20
50.548961
 30
0.0
 10
67.207932
 20
51.061572
 30
0.0
 10
67.231384
 20
51.574638
 30
0.0
 10
67.246624
 20
52.088051
 30
0.0
 10
67.253623
 20
52.601712
 30
0.0
 10
67.252494
 20
53.115512
 30
0.0
 10
67.242955
 20
53.629348
 30
0.0
 10
67.225119
 20
54.143117
 30
0.0
 10
67.198957
 20
54.656711
 30
0.0
 10
67.164464
 20
55.170028
 30
0.0
 10
67.121614
 20
55.682964
 30
0.0
 10
67.070388
 20
56.195412
 30
0.0
 10
67.010763
 20
56.707267
 30
0.0
 10
66.942724
 20
57.218428
 30
0.0
 10
66.866248
 20
57.728790
 30
0.0
 10
66.781319
 20
58.238243
 30
0.0
 10
66.687914
 20
58.746689
 30
0.0
 10
66.586013
 20
59.254020
 30
0.0
 10
66.475599
 20
59.760129
 30
0.0
 10
66.356651
 20
60.264919
 30
0.0
 10
66.229151
 20
60.768279
 30
0.0
 10
66.093075
 20
61.270107
 30
0.0
 10
65.948408
 20
61.770297
 30
0.0
 10
65.795127
 20
62.268745
 30
0.0
 10
65.633216
 20
62.765347
 30
0.0
 10
65.462652
 20
63.259998
 30
0.0
 10
65.283419
 20
63.752594
 30
0.0
 10
65.095493
 20
64.243029
 30
0.0
 10
64.898857
 20
64.731200
 30
0.0
 10
64.693490
 20
65.217001
 30
0.0
 10
64.479373
 20
65.700329
 30
0.0
 10
64.256488
 20
66.181078
 30
0.0
 10
64.169214
 20
66.363202
 30
0.0
 10
64.080184
 20
66.544970
 30
0.0
 10
63.989421
 20
66.726368
 30
0.0
 10
63.896951
 20
66.907385
 30
0.0
 10
63.802799
 20
67.088006
 30
0.0
 10
63.706990
 20
67.268219
 30
0.0
 10
63.609547
 20
67.448010
 30
0.0
 10
63.510496
 20
67.627367
 30
0.0
 10
63.409861
 20
67.806276
 30
0.0
 10
63.307668
 20
67.984725
 30
0.0
 10
63.203940
 20
68.162701
 30
0.0
 10
63.098705
 20
68.340189
 30
0.0
 10
62.991986
 20
68.517178
 30
0.0
 10
62.883804
 20
68.693654
 30
0.0
 10
62.774192
 20
68.869604
 30
0.0
 10
62.663166
 20
69.045016
 30
0.0
 10
62.550760
 20
69.219875
 30
0.0
 10
62.436990
 20
69.394170
 30
0.0
 10
62.321886
 20
69.567886
 30
0.0
 10
62.205472
 20
69.741012
 30
0.0
 10
62.087771
 20
69.913533
 30
0.0
 10
61.968809
 20
70.085437
 30
0.0
 10
61.848613
 20
70.256712
 30
0.0
 10
61.727204
 20
70.427342
 30
0.0
 10
61.604610
 20
70.597317
 30
0.0
 10
61.480852
 20
70.766622
 30
0.0
 10
61.355958
 20
70.935245
 30
0.0
 10
61.229951
 20
71.103172
 30
0.0
 10
61.102861
 20
71.270391
 30
0.0
 10
60.974704
 20
71.436888
 30
0.0
 10
60.845511
 20
71.602651
 30
0.0
 10
60.715305
 20
71.767666
 30
0.0
 10
60.584111
 20
71.931921
 30
0.0
 10
60.451955
 20
72.095401
 30
0.0
 10
60.318859
 20
72.258095
 30
0.0
 10
60.184848
 20
72.419989
 30
0.0
 10
60.049949
 20
72.581071
 30
0.0
 10
59.914189
 20
72.741326
 30
0.0
 10
59.777588
 20
72.900743
 30
0.0
 10
59.640171
 20
73.059307
 30
0.0
 10
59.501964
 20
73.217006
 30
0.0
 10
59.362995
 20
73.373827
 30
0.0
 10
59.223283
 20
73.529757
 30
0.0
 10
59.082858
 20
73.684783
 30
0.0
 10
58.941744
 20
73.838892
 30
0.0
 10
58.799961
 20
73.992070
 30
0.0
 10
58.657538
 20
74.144305
 30
0.0
 10
58.514499
 20
74.295583
 30
0.0
 10
58.370871
 20
74.445892
 30
0.0
 10
58.226675
 20
74.595219
 30
0.0
 10
58.081937
 20
74.743550
 30
0.0
 10
57.936683
 20
74.890872
 30
0.0
 10
57.790938
 20
75.037173
 30
0.0
 10
57.644724
 20
75.182439
 30
0.0
 10
57.498067
 20
75.326658
 30
0.0
 10
57.350996
 20
75.469815
 30
0.0
 10
57.203529
 20
75.611899
 30
0.0
 10
57.055695
 20
75.752896
 30
0.0
 10
56.907517
 20
75.892793
 30
0.0
 10
56.759023
 20
76.031577
 30
0.0
 10
56.610236
 20
76.169234
 30
0.0
 10
56.461177
 20
76.305753
 30
0.0
 10
56.311876
 20
76.441120
 30
0.0
 10
56.162355
 20
76.575321
 30
0.0
 10
56.068852
 20
76.658099
 30
0.0
 10
55.973579
 20
76.741054
 30
0.0
 10
55.876585
 20
76.824164
 30
0.0
 10
55.777915
 20
76.907409
 30
0.0
 10
55.677613
 20
76.990765
 30
0.0
 10
55.575731
 20
77.074213
 30
0.0
 10
55.472310
 20
77.157730
 30
0.0
 10
55.367397
 20
77.241294
 30
0.0
 10
55.261042
 20
77.324885
 30
0.0
 10
55.153289
 20
77.408481
 30
0.0
 10
55.044182
 20
77.492060
 30
0.0
 10
54.933774
 20
77.575602
 30
0.0
 10
54.822101
 20
77.659083
 30
0.0
 10
54.709221
 20
77.742483
 30
0.0
 10
54.595172
 20
77.825781
 30
0.0
 10
54.480003
 20
77.908954
 30
0.0
 10
54.363758
 20
77.991981
 30
0.0
 10
54.246489
 20
78.074842
 30
0.0
 10
54.128235
 20
78.157513
 30
0.0
 10
54.009050
 20
78.239974
 30
0.0
 10
53.888973
 20
78.322204
 30
0.0
 10
53.768058
 20
78.404180
 30
0.0
 10
53.646344
 20
78.485882
 30
0.0
 10
53.523879
 20
78.567287
 30
0.0
 10
53.400714
 20
78.648374
 30
0.0
 10
53.276889
 20
78.729122
 30
0.0
 10
53.152458
 20
78.809509
 30
0.0
 10
53.027459
 20
78.889514
 30
0.0
 10
52.901940
 20
78.969115
 30
0.0
 10
52.775953
 20
79.048291
 30
0.0
 10
52.649541
 20
79.127020
 30
0.0
 10
52.522747
 20
79.205280
 30
0.0
 10
52.395620
 20
79.283050
 30
0.0
 10
52.268207
 20
79.360309
 30
0.0
 10
52.140556
 20
79.437036
 30
0.0
 10
52.012712
 20
79.513207
 30
0.0
 10
51.884715
 20
79.588803
 30
0.0
 10
51.756623
 20
79.663802
 30
0.0
 10
51.628472
 20
79.738181
 30
0.0
 10
51.500315
 20
79.811920
 30
0.0
 10
51.372194
 20
79.884997
 30
0.0
 10
51.244156
 20
79.957390
 30
0.0
 10
51.116250
 20
80.029079
 30
0.0
 10
50.988522
 20
80.100041
 30
0.0
 10
50.861014
 20
80.170255
 30
0.0
 10
50.733777
 20
80.239699
 30
0.0
 10
50.606856
 20
80.308353
 30
0.0
 10
50.480296
 20
80.376193
 30
0.0
 10
50.354145
 20
80.443200
 30
0.0
 10
50.228446
 20
80.509352
 30
0.0
 10
50.103250
 20
80.574626
 30
0.0
 10
49.978601
 20
80.639001
 30
0.0
 10
49.854547
 20
80.702456
 30
0.0
 10
49.731131
 20
80.764970
 30
0.0
 10
49.608401
 20
80.826521
 30
0.0
 10
49.486405
 20
80.887087
 30
0.0
 10
49.365188
 20
80.946647
 30
0.0
 10
49.244795
 20
81.005180
 30
0.0
 10
49.125271
 20
81.062663
 30
0.0
 10
49.006667
 20
81.119075
 30
0.0
 10
48.889028
 20
81.174395
 30
0.0
 10
48.772397
 20
81.228602
 30
0.0
 10
48.656824
 20
81.281673
 30
0.0
 10
48.542355
 20
81.333588
 30
0.0
 10
48.336482
 20
81.425264
 30
0.0
 10
48.129769
 20
81.515091
 30
0.0
 10
47.922239
 20
81.603082
 30
0.0
 10
47.713906
 20
81.689247
 30
0.0
 10
47.504790
 20
81.773598
 30
0.0
 10
47.294907
 20
81.856148
 30
0.0
 10
47.084279
 20
81.936907
 30
0.0
 10
46.872923
 20
82.015888
 30
0.0
 10
46.660853
 20
82.093102
 30
0.0
 10
46.448091
 20
82.168561
 30
0.0
 10
46.234655
 20
82.242276
 30
0.0
 10
46.020561
 20
82.314260
 30
0.0
 10
45.805829
 20
82.384524
 30
0.0
 10
45.590477
 20
82.453079
 30
0.0
 10
45.374520
 20
82.519938
 30
0.0
 10
45.157980
 20
82.585111
 30
0.0
 10
44.940875
 20
82.648612
 30
0.0
 10
44.723219
 20
82.710451
 30
0.0
 10
44.505036
 20
82.770639
 30
0.0
 10
44.286339
 20
82.829190
 30
0.0
 10
44.067149
 20
82.886114
 30
0.0
 10
43.847481
 20
82.941424
 30
0.0
 10
43.627356
 20
82.995130
 30
0.0
 10
43.406791
 20
83.047245
 30
0.0
 10
43.185805
 20
83.097780
 30
0.0
 10
42.964416
 20
83.146747
 30
0.0
 10
42.742640
 20
83.194157
 30
0.0
 10
42.520497
 20
83.240023
 30
0.0
 10
42.298008
 20
83.284356
 30
0.0
 10
42.075185
 20
83.327168
 30
0.0
 10
41.852048
 20
83.368470
 30
0.0
 10
41.628616
 20
83.408274
 30
0.0
 10
41.404907
 20
83.446592
 30
0.0
 10
41.180941
 20
83.483436
 30
0.0
 10
40.956732
 20
83.518816
 30
0.0
 10
40.732301
 20
83.552746
 30
0.0
 10
40.507666
 20
83.585236
 30
0.0
 10
40.282845
 20
83.616298
 30
0.0
 10
40.057855
 20
83.645944
 30
0.0
 10
39.832712
 20
83.674186
 30
0.0
 10
39.607439
 20
83.701034
 30
0.0
 10
39.382051
 20
83.726501
 30
0.0
 10
39.156569
 20
83.750600
 30
0.0
 10
38.931006
 20
83.773342
 30
0.0
 10
38.705386
 20
83.794737
 30
0.0
 10
38.479722
 20
83.814798
 30
0.0
 10
38.254034
 20
83.833537
 30
0.0
 10
38.028341
 20
83.850964
 30
0.0
 10
37.802662
 20
83.867093
 30
0.0
 10
37.577011
 20
83.881935
 30
0.0
 10
37.351411
 20
83.895502
 30
0.0
 10
37.125876
 20
83.907804
 30
0.0
 10
36.900426
 20
83.918853
 30
0.0
 10
36.675080
 20
83.928660
 30
0.0
 10
36.449852
 20
83.937240
 30
0.0
 10
36.224766
 20
83.944603
 30
0.0
 10
35.999835
 20
83.950758
 30
0.0
 10
35.775082
 20
83.955720
 30
0.0
 10
35.550520
 20
83.959498
 30
0.0
 10
35.326170
 20
83.962095
 30
0.0
 10
35.102049
 20
83.963534
 30
0.0
 10
34.878177
 20
83.963845
 30
0.0
 10
34.654569
 20
83.963026
 30
0.0
 10
34.431244
 20
83.961079
 30
0.0
 10
34.354776
 20
83.959978
 30
0.0
 10
34.279592
 20
83.958539
 30
0.0
 10
34.205658
 20
83.956761
 30
0.0
 10
34.132932
 20
83.954644
 30
0.0
 10
34.061375
 20
83.952217
 30
0.0
 10
33.990946
 20
83.949451
 30
0.0
 10
33.921607
 20
83.946378
 30
0.0
 10
33.853318
 20
83.942994
 30
0.0
 10
33.786036
 20
83.939305
 30
0.0
 10
33.719725
 20
83.935318
 30
0.0
 10
33.654345
 20
83.931034
 30
0.0
 10
33.589857
 20
83.926459
 30
0.0
 10
33.526219
 20
83.921602
 30
0.0
 10
33.463391
 20
83.916465
 30
0.0
 10
33.401336
 20
83.911055
 30
0.0
 10
33.340015
 20
83.905374
 30
0.0
 10
33.279385
 20
83.899430
 30
0.0
 10
33.219407
 20
83.893230
 30
0.0
 10
33.160041
 20
83.886775
 30
0.0
 10
33.101252
 20
83.880073
 30
0.0
 10
33.042995
 20
83.873127
 30
0.0
 10
32.985230
 20
83.865945
 30
0.0
 10
32.927922
 20
83.858531
 30
0.0
 10
32.871029
 20
83.850888
 30
0.0
 10
32.814511
 20
83.843025
 30
0.0
 10
32.758329
 20
83.834945
 30
0.0
 10
32.702441
 20
83.826654
 30
0.0
 10
32.646812
 20
83.818156
 30
0.0
 10
32.591398
 20
83.809458
 30
0.0
 10
32.536158
 20
83.800565
 30
0.0
 10
32.481060
 20
83.791480
 30
0.0
 10
32.426055
 20
83.782212
 30
0.0
 10
32.371112
 20
83.772763
 30
0.0
 10
32.316186
 20
83.763140
 30
0.0
 10
32.261237
 20
83.753346
 30
0.0
 10
32.206226
 20
83.743390
 30
0.0
 10
32.151117
 20
83.733275
 30
0.0
 10
32.095866
 20
83.723005
 30
0.0
 10
32.040438
 20
83.712588
 30
0.0
 10
31.984786
 20
83.702027
 30
0.0
 10
31.928875
 20
83.691328
 30
0.0
 10
31.872668
 20
83.680496
 30
0.0
 10
31.816119
 20
83.669538
 30
0.0
 10
31.759195
 20
83.658458
 30
0.0
 10
31.701850
 20
83.647259
 30
0.0
 10
31.644048
 20
83.635948
 30
0.0
 10
31.585749
 20
83.624532
 30
0.0
 10
31.526915
 20
83.613014
 30
0.0
 10
31.467501
 20
83.601401
 30
0.0
 10
31.407473
 20
83.589697
 30
0.0
 10
31.346786
 20
83.577906
 30
0.0
 10
31.285406
 20
83.566036
 30
0.0
 10
31.223289
 20
83.554089
 30
0.0
 10
31.160398
 20
83.542072
 30
0.0
 10
31.096692
 20
83.529990
 30
0.0
 10
31.032131
 20
83.517849
 30
0.0
 10
30.966678
 20
83.505654
 30
0.0
 10
30.900288
 20
83.493411
 30
0.0
 10
30.832927
 20
83.481123
 30
0.0
 10
30.764553
 20
83.468796
 30
0.0
 10
30.695127
 20
83.456435
 30
0.0
 10
30.624608
 20
83.444048
 30
0.0
 10
30.552954
 20
83.431639
 30
0.0
 10
30.480133
 20
83.419209
 30
0.0
 10
30.047077
 20
83.342617
 30
0.0
 10
29.616547
 20
83.260494
 30
0.0
 10
29.188568
 20
83.172866
 30
0.0
 10
28.763163
 20
83.079759
 30
0.0
 10
28.340355
 20
82.981198
 30
0.0
 10
27.920163
 20
82.877210
 30
0.0
 10
27.502613
 20
82.767820
 30
0.0
 10
27.087728
 20
82.653053
 30
0.0
 10
26.675530
 20
82.532936
 30
0.0
 10
26.266040
 20
82.407494
 30
0.0
 10
25.859283
 20
82.276753
 30
0.0
 10
25.455280
 20
82.140739
 30
0.0
 10
25.054055
 20
81.999476
 30
0.0
 10
24.655630
 20
81.852992
 30
0.0
 10
24.260027
 20
81.701311
 30
0.0
 10
23.867270
 20
81.544460
 30
0.0
 10
23.477381
 20
81.382464
 30
0.0
 10
23.090382
 20
81.215349
 30
0.0
 10
22.706297
 20
81.043140
 30
0.0
 10
22.325148
 20
80.865863
 30
0.0
 10
21.946958
 20
80.683544
 30
0.0
 10
21.571749
 20
80.496210
 30
0.0
 10
21.199544
 20
80.303884
 30
0.0
 10
20.830366
 20
80.106593
 30
0.0
 10
20.464237
 20
79.904363
 30
0.0
 10
20.101181
 20
79.697220
 30
0.0
 10
19.741219
 20
79.485189
 30
0.0
 10
19.384375
 20
79.268295
 30
0.0
 10
19.030671
 20
79.046566
 30
0.0
 10
18.680129
 20
78.820025
 30
0.0
 10
18.332773
 20
78.588700
 30
0.0
 10
17.988625
 20
78.352615
 30
0.0
 10
17.647709
 20
78.111797
 30
0.0
 10
17.310045
 20
77.866271
 30
0.0
 10
16.975658
 20
77.616063
 30
0.0
 10
16.644569
 20
77.361198
 30
0.0
 10
16.316802
 20
77.101703
 30
0.0
 10
15.992379
 20
76.837602
 30
0.0
 10
15.671323
 20
76.568923
 30
0.0
 10
15.353657
 20
76.295689
 30
0.0
 10
15.039402
 20
76.017928
 30
0.0
 10
14.728583
 20
75.735665
 30
0.0
 10
14.421221
 20
75.448925
 30
0.0
 10
14.117339
 20
75.157734
 30
0.0
 10
13.816961
 20
74.862119
 30
0.0
 10
13.520108
 20
74.562104
 30
0.0
 10
13.226802
 20
74.257715
 30
0.0
 10
12.937068
 20
73.948979
 30
0.0
 10
12.650928
 20
73.635920
 30
0.0
 10
12.368404
 20
73.318564
 30
0.0
 10
12.089518
 20
72.996938
 30
0.0
 10
11.814295
 20
72.671067
 30
0.0
 10
11.542755
 20
72.340977
 30
0.0
 10
11.274923
 20
72.006693
 30
0.0
 10
11.010820
 20
71.668240
 30
0.0
 10
10.750469
 20
71.325646
 30
0.0
 10
10.493894
 20
70.978935
 30
0.0
 10
10.241116
 20
70.628133
 30
0.0
 10
9.992158
 20
70.273266
 30
0.0
 10
9.747043
 20
69.914360
 30
0.0
 10
9.505794
 20
69.551440
 30
0.0
 10
9.268433
 20
69.184532
 30
0.0
 10
9.034984
 20
68.813661
 30
0.0
 10
8.805468
 20
68.438854
 30
0.0
 10
8.712074
 20
68.282897
 30
0.0
 10
8.620005
 20
68.126961
 30
0.0
 10
8.529251
 20
67.971033
 30
0.0
 10
8.439800
 20
67.815103
 30
0.0
 10
8.351642
 20
67.659157
 30
0.0
 10
8.264766
 20
67.503184
 30
0.0
 10
8.179162
 20
67.347171
 30
0.0
 10
8.094819
 20
67.191107
 30
0.0
 10
8.011727
 20
67.034979
 30
0.0
 10
7.929874
 20
66.878776
 30
0.0
 10
7.849251
 20
66.722485
 30
0.0
 10
7.769847
 20
66.566094
 30
0.0
 10
7.691651
 20
66.409592
 30
0.0
 10
7.614653
 20
66.252965
 30
0.0
 10
7.538842
 20
66.096202
 30
0.0
 10
7.464207
 20
65.939292
 30
0.0
 10
7.390738
 20
65.782220
 30
0.0
 10
7.318424
 20
65.624977
 30
0.0
 10
7.247254
 20
65.467549
 30
0.0
 10
7.177219
 20
65.309926
 30
0.0
 10
7.108307
 20
65.152093
 30
0.0
 10
7.040509
 20
64.994040
 30
0.0
 10
6.973812
 20
64.835754
 30
0.0
 10
6.908207
 20
64.677223
 30
0.0
 10
6.843683
 20
64.518436
 30
0.0
 10
6.780229
 20
64.359380
 30
0.0
 10
6.717836
 20
64.200042
 30
0.0
 10
6.656492
 20
64.040412
 30
0.0
 10
6.596186
 20
63.880476
 30
0.0
 10
6.536909
 20
63.720224
 30
0.0
 10
6.478649
 20
63.559641
 30
0.0
 10
6.421395
 20
63.398718
 30
0.0
 10
6.365139
 20
63.237441
 30
0.0
 10
6.309868
 20
63.075799
 30
0.0
 10
6.255572
 20
62.913778
 30
0.0
 10
6.202241
 20
62.751369
 30
0.0
 10
6.149863
 20
62.588557
 30
0.0
 10
6.098429
 20
62.425332
 30
0.0
 10
6.047928
 20
62.261680
 30
0.0
 10
5.998349
 20
62.097591
 30
0.0
 10
5.949681
 20
61.933051
 30
0.0
 10
5.901915
 20
61.768050
 30
0.0
 10
5.855039
 20
61.602574
 30
0.0
 10
5.809042
 20
61.436611
 30
0.0
 10
5.763915
 20
61.270151
 30
0.0
 10
5.719647
 20
61.103179
 30
0.0
 10
5.676226
 20
60.935685
 30
0.0
 10
5.633643
 20
60.767657
 30
0.0
 10
5.591886
 20
60.599082
 30
0.0
 10
5.550946
 20
60.429948
 30
0.0
 10
5.510812
 20
60.260243
 30
0.0
 10
5.471473
 20
60.089955
 30
0.0
 10
5.432918
 20
59.919074
 30
0.0
 10
5.395137
 20
59.747582
 30
0.0
 10
5.358119
 20
59.575474
 30
0.0
 10
5.321853
 20
59.402734
 30
0.0
 10
5.286330
 20
59.229348
 30
0.0
 10
5.251539
 20
59.055310
 30
0.0
 10
5.217468
 20
58.880604
 30
0.0
 10
5.184108
 20
58.705217
 30
0.0
 10
5.151447
 20
58.529138
 30
0.0
 10
5.119475
 20
58.352357
 30
0.0
 10
5.088182
 20
58.174859
 30
0.0
 10
5.057557
 20
57.996633
 30
0.0
 10
5.032019
 20
57.848353
 30
0.0
 10
5.006266
 20
57.703271
 30
0.0
 10
4.980389
 20
57.561356
 30
0.0
 10
4.954478
 20
57.422582
 30
0.0
 10
4.928624
 20
57.286914
 30
0.0
 10
4.902919
 20
57.154332
 30
0.0
 10
4.877454
 20
57.024803
 30
0.0
 10
4.852316
 20
56.898300
 30
0.0
 10
4.827602
 20
56.774791
 30
0.0
 10
4.803399
 20
56.654251
 30
0.0
 10
4.779797
 20
56.536652
 30
0.0
 10
4.756889
 20
56.421965
 30
0.0
 10
4.734762
 20
56.310157
 30
0.0
 10
4.713511
 20
56.201208
 30
0.0
 10
4.693228
 20
56.095082
 30
0.0
 10
4.674000
 20
55.991754
 30
0.0
 10
4.655918
 20
55.891196
 30
0.0
 10
4.639075
 20
55.793375
 30
0.0
 10
4.623561
 20
55.698269
 30
0.0
 10
4.609467
 20
55.605847
 30
0.0
 10
4.596883
 20
55.516077
 30
0.0
 10
4.585901
 20
55.428933
 30
0.0
 10
4.576611
 20
55.344390
 30
0.0
 10
4.569104
 20
55.262413
 30
0.0
 10
4.563470
 20
55.182979
 30
0.0
 10
4.559802
 20
55.106059
 30
0.0
 10
4.558193
 20
55.031620
 30
0.0
 10
4.558729
 20
54.959639
 30
0.0
 10
4.561495
 20
54.890083
 30
0.0
 10
4.566592
 20
54.822925
 30
0.0
 10
4.574107
 20
54.758138
 30
0.0
 10
4.584132
 20
54.695694
 30
0.0
 10
4.596759
 20
54.635561
 30
0.0
 10
4.612075
 20
54.577714
 30
0.0
 10
4.630174
 20
54.522122
 30
0.0
 10
4.651146
 20
54.468759
 30
0.0
 10
4.675081
 20
54.417592
 30
0.0
 10
4.702070
 20
54.368598
 30
0.0
 10
4.732205
 20
54.321747
 30
0.0
 10
4.765577
 20
54.277006
 30
0.0
 10
4.802276
 20
54.234354
 30
0.0
 10
4.842392
 20
54.193756
 30
0.0
 10
4.886017
 20
54.155188
 30
0.0
 10
4.933242
 20
54.118620
 30
0.0
 10
4.984156
 20
54.084022
 30
0.0
 10
5.038852
 20
54.051367
 30
0.0
 10
5.097419
 20
54.020624
 30
0.0
 10
5.159950
 20
53.991770
 30
0.0
 10
5.226533
 20
53.964761
 30
0.0
 10
5.297261
 20
53.939587
 30
0.0
 10
5.372224
 20
53.916219
 30
0.0
 10
5.451514
 20
53.894629
 30
0.0
 10
5.535219
 20
53.874760
 30
0.0
 10
5.623433
 20
53.856613
 30
0.0
 10
5.716245
 20
53.840160
 30
0.0
 10
5.813746
 20
53.825371
 30
0.0
 10
5.916027
 20
53.812220
 30
0.0
 10
6.023179
 20
53.800649
 30
0.0
 10
6.135293
 20
53.790658
 30
0.0
 10
6.252459
 20
53.782220
 30
0.0
 10
6.374769
 20
53.775277
 30
0.0
 10
6.502313
 20
53.769830
 30
0.0
 10
6.635182
 20
53.765851
 30
0.0
 10
6.773467
 20
53.763311
 30
0.0
 10
6.773467
 20
53.761617
 30
0.0
 10
6.773467
 20
53.756763
 30
0.0
 10
6.773467
 20
53.748833
 30
0.0
 10
6.773467
 20
53.737911
 30
0.0
 10
6.773467
 20
53.724082
 30
0.0
 10
6.773467
 20
53.707459
 30
0.0
 10
6.773467
 20
53.688155
 30
0.0
 10
6.773467
 20
53.666255
 30
0.0
 10
6.773467
 20
53.641871
 30
0.0
 10
6.773467
 20
53.615116
 30
0.0
 10
6.773467
 20
53.586089
 30
0.0
 10
6.773467
 20
53.554895
 30
0.0
 10
6.773467
 20
53.521633
 30
0.0
 10
6.773467
 20
53.486406
 30
0.0
 10
6.773467
 20
53.449319
 30
0.0
 10
6.773467
 20
53.410477
 30
0.0
 10
6.773467
 20
53.369980
 30
0.0
 10
6.773467
 20
53.327932
 30
0.0
 10
6.773467
 20
53.284439
 30
0.0
 10
6.773467
 20
53.239599
 30
0.0
 10
6.773467
 20
53.193521
 30
0.0
 10
6.773467
 20
53.146305
 30
0.0
 10
6.773467
 20
53.098059
 30
0.0
 10
6.773467
 20
53.048879
 30
0.0
 10
6.773467
 20
52.998872
 30
0.0
 10
6.773467
 20
52.948146
 30
0.0
 10
6.773467
 20
52.896795
 30
0.0
 10
6.773467
 20
52.844929
 30
0.0
 10
6.773467
 20
52.792650
 30
0.0
 10
6.773467
 20
52.740060
 30
0.0
 10
6.773467
 20
52.687265
 30
0.0
 10
6.773467
 20
52.634365
 30
0.0
 10
6.773467
 20
52.581466
 30
0.0
 10
6.773467
 20
52.528670
 30
0.0
 10
6.773467
 20
52.476081
 30
0.0
 10
6.773467
 20
52.423802
 30
0.0
 10
6.773467
 20
52.371935
 30
0.0
 10
6.773467
 20
52.320585
 30
0.0
 10
6.773467
 20
52.269858
 30
0.0
 10
6.773467
 20
52.219852
 30
0.0
 10
6.773467
 20
52.170671
 30
0.0
 10
6.773467
 20
52.122426
 30
0.0
 10
6.773467
 20
52.075210
 30
0.0
 10
6.773467
 20
52.029131
 30
0.0
 10
6.773467
 20
51.984292
 30
0.0
 10
6.773467
 20
51.940799
 30
0.0
 10
6.773467
 20
51.898750
 30
0.0
 10
6.773467
 20
51.858254
 30
0.0
 10
6.773467
 20
51.819412
 30
0.0
 10
6.773467
 20
51.782325
 30
0.0
 10
6.773467
 20
51.747098
 30
0.0
 10
6.773467
 20
51.713836
 30
0.0
 10
6.773467
 20
51.682642
 30
0.0
 10
6.773467
 20
51.653615
 30
0.0
 10
6.773467
 20
51.626860
 30
0.0
 10
6.773467
 20
51.602476
 30
0.0
 10
6.773467
 20
51.580576
 30
0.0
 10
6.773467
 20
51.561272
 30
0.0
 10
6.773467
 20
51.544649
 30
0.0
 10
6.773467
 20
51.530820
 30
0.0
 10
6.773467
 20
51.519870
 30
0.0
 10
6.773467
 20
51.511939
 30
0.0
 10
6.773467
 20
51.507085
 30
0.0
 10
6.773467
 20
51.505392
 30
0.0
 10
6.779811
 20
50.979846
 30
0.0
 10
6.797182
 20
50.455802
 30
0.0
 10
6.825460
 20
49.933372
 30
0.0
 10
6.864531
 20
49.412666
 30
0.0
 10
6.914277
 20
48.893806
 30
0.0
 10
6.974582
 20
48.376905
 30
0.0
 10
7.045330
 20
47.862072
 30
0.0
 10
7.126404
 20
47.349427
 30
0.0
 10
7.217688
 20
46.839082
 30
0.0
 10
7.319065
 20
46.331152
 30
0.0
 10
7.430419
 20
45.825754
 30
0.0
 10
7.551633
 20
45.322998
 30
0.0
 10
7.682591
 20
44.822999
 30
0.0
 10
7.823177
 20
44.325876
 30
0.0
 10
7.973273
 20
43.831739
 30
0.0
 10
8.132764
 20
43.340703
 30
0.0
 10
8.301533
 20
42.852885
 30
0.0
 10
8.479463
 20
42.368397
 30
0.0
 10
8.666438
 20
41.887354
 30
0.0
 10
8.862342
 20
41.409871
 30
0.0
 10
9.067058
 20
40.936062
 30
0.0
 10
9.280469
 20
40.466041
 30
0.0
 10
9.502460
 20
39.999923
 30
0.0
 10
9.732914
 20
39.537823
 30
0.0
 10
9.971714
 20
39.079859
 30
0.0
 10
10.218743
 20
38.626136
 30
0.0
 10
10.473886
 20
38.176776
 30
0.0
 10
10.737026
 20
37.731892
 30
0.0
 10
11.008046
 20
37.291597
 30
0.0
 10
11.286831
 20
36.856007
 30
0.0
 10
11.573262
 20
36.425237
 30
0.0
 10
11.867225
 20
35.999397
 30
0.0
 10
12.168602
 20
35.578607
 30
0.0
 10
12.477277
 20
35.162978
 30
0.0
 10
12.793134
 20
34.752627
 30
0.0
 10
13.116056
 20
34.347666
 30
0.0
 10
13.445927
 20
33.948212
 30
0.0
 10
13.782630
 20
33.554376
 30
0.0
 10
14.126048
 20
33.166279
 30
0.0
 10
14.476066
 20
32.784026
 30
0.0
 10
14.832567
 20
32.407739
 30
0.0
 10
15.195434
 20
32.037528
 30
0.0
 10
15.564551
 20
31.673512
 30
0.0
 10
15.939801
 20
31.315801
 30
0.0
 10
16.321068
 20
30.964511
 30
0.0
 10
16.708236
 20
30.619759
 30
0.0
 10
17.101188
 20
30.281654
 30
0.0
 10
17.499807
 20
29.950317
 30
0.0
 10
17.903977
 20
29.625857
 30
0.0
 10
18.313583
 20
29.308391
 30
0.0
 10
18.728506
 20
28.998034
 30
0.0
 10
19.148630
 20
28.694899
 30
0.0
 10
19.573841
 20
28.399102
 30
0.0
 10
20.004019
 20
28.110756
 30
0.0
 10
20.439050
 20
27.829973
 30
0.0
 10
20.878817
 20
27.556875
 30
0.0
 10
21.323203
 20
27.291569
 30
0.0
 10
21.772093
 20
27.034174
 30
0.0
 10
22.225368
 20
26.784800
 30
0.0
 10
22.682914
 20
26.543567
 30
0.0
 10
23.144613
 20
26.310584
 30
0.0
 10
23.610349
 20
26.085972
 30
0.0
 10
24.080005
 20
25.869838
 30
0.0
 10
24.553466
 20
25.662303
 30
0.0
 10
24.728234
 20
25.588256
 30
0.0
 10
24.902768
 20
25.515858
 30
0.0
 10
25.077081
 20
25.445085
 30
0.0
 10
25.251188
 20
25.375910
 30
0.0
 10
25.425101
 20
25.308314
 30
0.0
 10
25.598836
 20
25.242274
 30
0.0
 10
25.772406
 20
25.177764
 30
0.0
 10
25.945825
 20
25.114764
 30
0.0
 10
26.119106
 20
25.053250
 30
0.0
 10
26.292263
 20
24.993196
 30
0.0
 10
26.465311
 20
24.934585
 30
0.0
 10
26.638263
 20
24.877389
 30
0.0
 10
26.811132
 20
24.821588
 30
0.0
 10
26.983934
 20
24.767156
 30
0.0
 10
27.156680
 20
24.714070
 30
0.0
 10
27.329386
 20
24.662311
 30
0.0
 10
27.502065
 20
24.611852
 30
0.0
 10
27.674731
 20
24.562669
 30
0.0
 10
27.847398
 20
24.514745
 30
0.0
 10
28.020080
 20
24.468051
 30
0.0
 10
28.192790
 20
24.422566
 30
0.0
 10
28.365543
 20
24.378265
 30
0.0
 10
28.538351
 20
24.335130
 30
0.0
 10
28.711229
 20
24.293133
 30
0.0
 10
28.884191
 20
24.252253
 30
0.0
 10
29.057250
 20
24.212468
 30
0.0
 10
29.230422
 20
24.173753
 30
0.0
 10
29.403717
 20
24.136085
 30
0.0
 10
29.577151
 20
24.099441
 30
0.0
 10
29.750738
 20
24.063799
 30
0.0
 10
29.924494
 20
24.029137
 30
0.0
 10
30.098427
 20
23.995428
 30
0.0
 10
30.272558
 20
23.962651
 30
0.0
 10
30.446895
 20
23.930785
 30
0.0
 10
30.621453
 20
23.899805
 30
0.0
 10
30.796250
 20
23.869687
 30
0.0
 10
30.971292
 20
23.840409
 30
0.0
 10
31.146600
 20
23.811950
 30
0.0
 10
31.322188
 20
23.784292
 30
0.0
 10
31.498063
 20
23.757396
 30
0.0
 10
31.674243
 20
23.731234
 30
0.0
 10
31.850745
 20
23.705806
 30
0.0
 10
32.027577
 20
23.681083
 30
0.0
 10
32.204756
 20
23.657038
 30
0.0
 10
32.382293
 20
23.633642
 30
0.0
 10
32.560206
 20
23.610895
 30
0.0
 10
32.738509
 20
23.588740
 30
0.0
 10
32.917212
 20
23.567178
 30
0.0
 10
33.096330
 20
23.546181
 30
0.0
 10
33.275877
 20
23.525720
 30
0.0
 10
33.455867
 20
23.505767
 30
0.0
 10
33.636314
 20
23.486322
 30
0.0
 10
33.817233
 20
23.467356
 30
0.0
 10
33.998634
 20
23.448814
 30
0.0
 10
34.180534
 20
23.430724
 30
0.0
 10
34.362949
 20
23.413029
 30
0.0
 10
34.545888
 20
23.395700
 30
0.0
 10
34.729366
 20
23.378739
 30
0.0
 10
34.913401
 20
23.362116
 30
0.0
 10
35.098002
 20
23.345803
 30
0.0
 10
35.283182
 20
23.329773
 30
0.0
 10
35.468961
 20
23.313997
 30
0.0
 10
35.655346
 20
23.298475
 30
0.0
 10
35.842355
 20
23.283150
 30
0.0
 10
35.842558
 20
23.281457
 30
0.0
 10
35.843123
 20
23.276602
 30
0.0
 10
35.844251
 20
23.268672
 30
0.0
 10
35.845663
 20
23.257722
 30
0.0
 10
35.847356
 20
23.243893
 30
0.0
 10
35.849331
 20
23.227270
 30
0.0
 10
35.851871
 20
23.207966
 30
0.0
 10
35.854694
 20
23.186065
 30
0.0
 10
35.857742
 20
23.161681
 30
0.0
 10
35.861072
 20
23.134927
 30
0.0
 10
35.864713
 20
23.105900
 30
0.0
 10
35.868607
 20
23.074706
 30
0.0
 10
35.872756
 20
23.041443
 30
0.0
 10
35.877159
 20
23.006217
 30
0.0
 10
35.881787
 20
22.969130
 30
0.0
 10
35.886641
 20
22.930287
 30
0.0
 10
35.891693
 20
22.889791
 30
0.0
 10
35.896942
 20
22.847743
 30
0.0
 10
35.902389
 20
22.804250
 30
0.0
 10
35.908005
 20
22.759410
 30
0.0
 10
35.913763
 20
22.713332
 30
0.0
 10
35.919661
 20
22.666116
 30
0.0
 10
35.925701
 20
22.617870
 30
0.0
 10
35.931853
 20
22.568690
 30
0.0
 10
35.938090
 20
22.518683
 30
0.0
 10
35.944440
 20
22.467957
 30
0.0
 10
35.950875
 20
22.416606
 30
0.0
 10
35.957366
 20
22.364740
 30
0.0
 10
35.963914
 20
22.312461
 30
0.0
 10
35.970489
 20
22.259871
 30
0.0
 10
35.977093
 20
22.207076
 30
0.0
 10
35.983697
 20
22.154176
 30
0.0
 10
35.990301
 20
22.101277
 30
0.0
 10
35.996905
 20
22.048481
 30
0.0
 10
36.003481
 20
21.995892
 30
0.0
 10
36.010029
 20
21.943613
 30
0.0
 10
36.016520
 20
21.891746
 30
0.0
 10
36.022955
 20
21.840396
 30
0.0
 10
36.029305
 20
21.789669
 30
0.0
 10
36.035542
 20
21.739662
 30
0.0
 10
36.041694
 20
21.690482
 30
0.0
 10
36.047734
 20
21.642237
 30
0.0
 10
36.053632
 20
21.595021
 30
0.0
 10
36.059389
 20
21.548942
 30
0.0
 10
36.065006
 20
21.504103
 30
0.0
 10
36.070453
 20
21.460610
 30
0.0
 10
36.075702
 20
21.418561
 30
0.0
 10
36.080754
 20
21.378065
 30
0.0
 10
36.085608
 20
21.339223
 30
0.0
 10
36.090236
 20
21.302136
 30
0.0
 10
36.094639
 20
21.266909
 30
0.0
 10
36.098788
 20
21.233646
 30
0.0
 10
36.102682
 20
21.202452
 30
0.0
 10
36.106323
 20
21.173426
 30
0.0
 10
36.109681
 20
21.146671
 30
0.0
 10
36.112729
 20
21.122287
 30
0.0
 10
36.115552
 20
21.100387
 30
0.0
 10
36.118092
 20
21.081083
 30
0.0
 10
36.120067
 20
21.064460
 30
0.0
 10
36.121761
 20
21.050631
 30
0.0
 10
36.123172
 20
21.039681
 30
0.0
 10
36.124301
 20
21.031750
 30
0.0
 10
36.124865
 20
21.026896
 30
0.0
 10
36.125068
 20
21.025203
 30
0.0
 10
36.131192
 20
21.026332
 30
0.0
 10
36.149339
 20
21.029295
 30
0.0
 10
36.179117
 20
21.034177
 30
0.0
 10
36.220135
 20
21.040894
 30
0.0
 10
36.272007
 20
21.049389
 30
0.0
 10
36.334342
 20
21.059606
 30
0.0
 10
36.406751
 20
21.071459
 30
0.0
 10
36.488853
 20
21.084893
 30
0.0
 10
36.580256
 20
21.099851
 30
0.0
 10
36.680572
 20
21.116276
 30
0.0
 10
36.789416
 20
21.134084
 30
0.0
 10
36.906398
 20
21.153219
 30
0.0
 10
37.031134
 20
21.173623
 30
0.0
 10
37.163231
 20
21.195242
 30
0.0
 10
37.302305
 20
21.217989
 30
0.0
 10
37.447968
 20
21.241837
 30
0.0
 10
37.599832
 20
21.266700
 30
0.0
 10
37.757509
 20
21.292495
 30
0.0
 10
37.920614
 20
21.319194
 30
0.0
 10
38.088756
 20
21.346710
 30
0.0
 10
38.261550
 20
21.374992
 30
0.0
 10
38.438605
 20
21.403970
 30
0.0
 10
38.619537
 20
21.433584
 30
0.0
 10
38.803958
 20
21.463765
 30
0.0
 10
38.991478
 20
21.494456
 30
0.0
 10
39.181713
 20
21.525591
 30
0.0
 10
39.374273
 20
21.557107
 30
0.0
 10
39.568769
 20
21.588939
 30
0.0
 10
39.764815
 20
21.621028
 30
0.0
 10
39.962026
 20
21.653302
 30
0.0
 10
40.160011
 20
21.685707
 30
0.0
 10
40.358385
 20
21.718174
 30
0.0
 10
40.556759
 20
21.750641
 30
0.0
 10
40.754743
 20
21.783046
 30
0.0
 10
40.951954
 20
21.815321
 30
0.0
 10
41.148000
 20
21.847409
 30
0.0
 10
41.342496
 20
21.879241
 30
0.0
 10
41.535056
 20
21.910757
 30
0.0
 10
41.725291
 20
21.941892
 30
0.0
 10
41.912811
 20
21.972583
 30
0.0
 10
42.097232
 20
22.002764
 30
0.0
 10
42.278165
 20
22.032378
 30
0.0
 10
42.455219
 20
22.061356
 30
0.0
 10
42.628013
 20
22.089638
 30
0.0
 10
42.796155
 20
22.117154
 30
0.0
 10
42.959260
 20
22.143853
 30
0.0
 10
43.116937
 20
22.169648
 30
0.0
 10
43.268801
 20
22.194512
 30
0.0
 10
43.414465
 20
22.218359
 30
0.0
 10
43.553538
 20
22.241106
 30
0.0
 10
43.685635
 20
22.262725
 30
0.0
 10
43.810372
 20
22.283129
 30
0.0
 10
43.927353
 20
22.302264
 30
0.0
 10
44.036197
 20
22.320072
 30
0.0
 10
44.136513
 20
22.336498
 30
0.0
 10
44.227917
 20
22.351455
 30
0.0
 10
44.310018
 20
22.364889
 30
0.0
 10
44.382428
 20
22.376742
 30
0.0
 10
44.444762
 20
22.386931
 30
0.0
 10
44.496634
 20
22.395426
 30
0.0
 10
44.537653
 20
22.402142
 30
0.0
 10
44.567430
 20
22.407025
 30
0.0
 10
44.585577
 20
22.409988
 30
0.0
 10
44.591701
 20
22.411117
 30
0.0
 10
44.591137
 20
22.411236
 30
0.0
 10
44.591114
 20
22.411236
 30
0.0
  0
LWPOLYLINE
  5
102
100
AcDbEntity
  8
0
 62
7
100
AcDbPolyline
 90
808
 70
0
 10
42.499588
 20
67.393674
 30
0.0
 10
42.709174
 20
67.394747
 30
0.0
 10
42.929920
 20
67.397741
 30
0.0
 10
43.160998
 20
67.402279
 30
0.0
 10
43.401581
 20
67.407994
 30
0.0
 10
43.650837
 20
67.414516
 30
0.0
 10
43.907944
 20
67.421479
 30
0.0
 10
44.172068
 20
67.428512
 30
0.0
 10
44.442380
 20
67.435248
 30
0.0
 10
44.718055
 20
67.441319
 30
0.0
 10
44.998265
 20
67.446357
 30
0.0
 10
45.282177
 20
67.449992
 30
0.0
 10
45.568969
 20
67.451854
 30
0.0
 10
45.857809
 20
67.451575
 30
0.0
 10
46.147869
 20
67.448781
 30
0.0
 10
46.438320
 20
67.443126
 30
0.0
 10
46.728335
 20
67.434224
 30
0.0
 10
47.017085
 20
67.421708
 30
0.0
 10
47.303741
 20
67.405209
 30
0.0
 10
47.587476
 20
67.384358
 30
0.0
 10
47.867460
 20
67.358789
 30
0.0
 10
48.142864
 20
67.328134
 30
0.0
 10
48.412863
 20
67.292024
 30
0.0
 10
48.676628
 20
67.250090
 30
0.0
 10
48.933326
 20
67.201963
 30
0.0
 10
49.182133
 20
67.147275
 30
0.0
 10
49.422222
 20
67.085659
 30
0.0
 10
49.652761
 20
67.016744
 30
0.0
 10
49.872923
 20
66.940163
 30
0.0
 10
50.081877
 20
66.855548
 30
0.0
 10
50.278800
 20
66.762530
 30
0.0
 10
50.462860
 20
66.660739
 30
0.0
 10
50.633229
 20
66.549809
 30
0.0
 10
50.852022
 20
66.376767
 30
0.0
 10
51.053258
 20
66.181800
 30
0.0
 10
51.237628
 20
65.966169
 30
0.0
 10
51.405830
 20
65.731133
 30
0.0
 10
51.558560
 20
65.477953
 30
0.0
 10
51.696513
 20
65.207888
 30
0.0
 10
51.820389
 20
64.922198
 30
0.0
 10
51.930879
 20
64.622143
 30
0.0
 10
52.028683
 20
64.308983
 30
0.0
 10
52.114495
 20
63.983978
 30
0.0
 10
52.189010
 20
63.648387
 30
0.0
 10
52.252928
 20
63.303471
 30
0.0
 10
52.306940
 20
62.950489
 30
0.0
 10
52.351745
 20
62.590701
 30
0.0
 10
52.388042
 20
62.225367
 30
0.0
 10
52.416521
 20
61.855748
 30
0.0
 10
52.437885
 20
61.483102
 30
0.0
 10
52.452815
 20
61.108689
 30
0.0
 10
52.462015
 20
60.733771
 30
0.0
 10
52.466192
 20
60.359606
 30
0.0
 10
52.466040
 20
59.987454
 30
0.0
 10
52.462258
 20
59.618575
 30
0.0
 10
52.455513
 20
59.254229
 30
0.0
 10
52.446538
 20
58.895677
 30
0.0
 10
52.436011
 20
58.544178
 30
0.0
 10
52.424638
 20
58.200990
 30
0.0
 10
52.413095
 20
57.867375
 30
0.0
 10
52.402088
 20
57.544595
 30
0.0
 10
52.392323
 20
57.233905
 30
0.0
 10
52.384477
 20
56.936567
 30
0.0
 10
52.379256
 20
56.653842
 30
0.0
 10
52.377281
 20
56.386987
 30
0.0
 10
52.399125
 20
56.399941
 30
0.0
 10
52.462842
 20
56.437699
 30
0.0
 10
52.565627
 20
56.498609
 30
0.0
 10
52.704690
 20
56.581015
 30
0.0
 10
52.877237
 20
56.683264
 30
0.0
 10
53.080480
 20
56.803705
 30
0.0
 10
53.311628
 20
56.940681
 30
0.0
 10
53.567892
 20
57.092542
 30
0.0
 10
53.846479
 20
57.257631
 30
0.0
 10
54.144599
 20
57.434297
 30
0.0
 10
54.459465
 20
57.620882
 30
0.0
 10
54.788283
 20
57.815737
 30
0.0
 10
55.128262
 20
58.017207
 30
0.0
 10
55.476611
 20
58.223635
 30
0.0
 10
55.830543
 20
58.433375
 30
0.0
 10
56.187264
 20
58.644765
 30
0.0
 10
56.543987
 20
58.856155
 30
0.0
 10
56.897919
 20
59.065894
 30
0.0
 10
57.246269
 20
59.272322
 30
0.0
 10
57.586248
 20
59.473792
 30
0.0
 10
57.915065
 20
59.668647
 30
0.0
 10
58.229932
 20
59.855233
 30
0.0
 10
58.528052
 20
60.031897
 30
0.0
 10
58.806639
 20
60.196986
 30
0.0
 10
59.062902
 20
60.348846
 30
0.0
 10
59.294051
 20
60.485823
 30
0.0
 10
59.497293
 20
60.606264
 30
0.0
 10
59.669841
 20
60.708514
 30
0.0
 10
59.808903
 20
60.790921
 30
0.0
 10
59.911688
 20
60.851830
 30
0.0
 10
59.975406
 20
60.889588
 30
0.0
 10
59.997250
 20
60.902542
 30
0.0
 10
59.997250
 20
60.847490
 30
0.0
 10
59.997250
 20
60.687017
 30
0.0
 10
59.997250
 20
60.428153
 30
0.0
 10
59.997250
 20
60.077924
 30
0.0
 10
59.997250
 20
59.643360
 30
0.0
 10
59.997250
 20
59.131488
 30
0.0
 10
59.997250
 20
58.549337
 30
0.0
 10
59.997250
 20
57.903931
 30
0.0
 10
59.997250
 20
57.202304
 30
0.0
 10
59.997250
 20
56.451480
 30
0.0
 10
59.997250
 20
55.658487
 30
0.0
 10
59.997250
 20
54.830353
 30
0.0
 10
59.997250
 20
53.974111
 30
0.0
 10
59.997250
 20
53.096784
 30
0.0
 10
59.997250
 20
52.205399
 30
0.0
 10
59.997250
 20
51.306987
 30
0.0
 10
59.997250
 20
50.408575
 30
0.0
 10
59.997250
 20
49.517190
 30
0.0
 10
59.997250
 20
48.639863
 30
0.0
 10
59.997250
 20
47.783620
 30
0.0
 10
59.997250
 20
46.955487
 30
0.0
 10
59.997250
 20
46.162496
 30
0.0
 10
59.997250
 20
45.411669
 30
0.0
 10
59.997250
 20
44.710042
 30
0.0
 10
59.997250
 20
44.064637
 30
0.0
 10
59.997250
 20
43.482486
 30
0.0
 10
59.997250
 20
42.970614
 30
0.0
 10
59.997250
 20
42.536051
 30
0.0
 10
59.997250
 20
42.185821
 30
0.0
 10
59.997250
 20
41.926956
 30
0.0
 10
59.997250
 20
41.766484
 30
0.0
 10
59.997250
 20
41.711431
 30
0.0
 10
59.782851
 20
41.838285
 30
0.0
 10
59.565215
 20
41.973853
 30
0.0
 10
59.344515
 20
42.117351
 30
0.0
 10
59.120919
 20
42.268005
 30
0.0
 10
58.894599
 20
42.425033
 30
0.0
 10
58.665722
 20
42.587658
 30
0.0
 10
58.434467
 20
42.755098
 30
0.0
 10
58.200996
 20
42.926576
 30
0.0
 10
57.965484
 20
43.101311
 30
0.0
 10
57.728098
 20
43.278524
 30
0.0
 10
57.489014
 20
43.457436
 30
0.0
 10
57.248397
 20
43.637268
 30
0.0
 10
57.006419
 20
43.817241
 30
0.0
 10
56.763254
 20
43.996576
 30
0.0
 10
56.519070
 20
44.174492
 30
0.0
 10
56.274036
 20
44.350209
 30
0.0
 10
56.028325
 20
44.522952
 30
0.0
 10
55.782103
 20
44.691938
 30
0.0
 10
55.535548
 20
44.856389
 30
0.0
 10
55.288826
 20
45.015525
 30
0.0
 10
55.042108
 20
45.168569
 30
0.0
 10
54.795567
 20
45.314740
 30
0.0
 10
54.549367
 20
45.453258
 30
0.0
 10
54.303684
 20
45.583345
 30
0.0
 10
54.058687
 20
45.704221
 30
0.0
 10
53.814548
 20
45.815106
 30
0.0
 10
53.571436
 20
45.915222
 30
0.0
 10
53.329521
 20
46.003789
 30
0.0
 10
53.088975
 20
46.080028
 30
0.0
 10
52.849966
 20
46.143161
 30
0.0
 10
52.612671
 20
46.192406
 30
0.0
 10
52.377253
 20
46.226987
 30
0.0
 10
52.378664
 20
45.985145
 30
0.0
 10
52.382474
 20
45.728667
 30
0.0
 10
52.388203
 20
45.458665
 30
0.0
 10
52.395371
 20
45.176245
 30
0.0
 10
52.403443
 20
44.882517
 30
0.0
 10
52.411938
 20
44.578589
 30
0.0
 10
52.420348
 20
44.265568
 30
0.0
 10
52.428165
 20
43.944563
 30
0.0
 10
52.434911
 20
43.616682
 30
0.0
 10
52.440075
 20
43.283037
 30
0.0
 10
52.443151
 20
42.944734
 30
0.0
 10
52.443716
 20
42.602881
 30
0.0
 10
52.441176
 20
42.258587
 30
0.0
 10
52.434967
 20
41.912958
 30
0.0
 10
52.424722
 20
41.567106
 30
0.0
 10
52.409877
 20
41.222140
 30
0.0
 10
52.389924
 20
40.879164
 30
0.0
 10
52.364383
 20
40.539289
 30
0.0
 10
52.332735
 20
40.203625
 30
0.0
 10
52.294488
 20
39.873278
 30
0.0
 10
52.249143
 20
39.549358
 30
0.0
 10
52.196198
 20
39.232973
 30
0.0
 10
52.135151
 20
38.925229
 30
0.0
 10
52.065504
 20
38.627239
 30
0.0
 10
51.986753
 20
38.340109
 30
0.0
 10
51.898398
 20
38.064945
 30
0.0
 10
51.799936
 20
37.802862
 30
0.0
 10
51.690868
 20
37.554961
 30
0.0
 10
51.570692
 20
37.322356
 30
0.0
 10
51.438906
 20
37.106154
 30
0.0
 10
51.295012
 20
36.907462
 30
0.0
 10
51.138503
 20
36.727390
 30
0.0
 10
51.027573
 20
36.615627
 30
0.0
 10
50.915457
 20
36.510894
 30
0.0
 10
50.802156
 20
36.412960
 30
0.0
 10
50.687676
 20
36.321599
 30
0.0
 10
50.572018
 20
36.236583
 30
0.0
 10
50.455184
 20
36.157679
 30
0.0
 10
50.337181
 20
36.084660
 30
0.0
 10
50.218007
 20
36.017299
 30
0.0
 10
50.097670
 20
35.955365
 30
0.0
 10
49.976171
 20
35.898630
 30
0.0
 10
49.853509
 20
35.846868
 30
0.0
 10
49.729692
 20
35.799844
 30
0.0
 10
49.604721
 20
35.757333
 30
0.0
 10
49.478599
 20
35.719108
 30
0.0
 10
49.351331
 20
35.684937
 30
0.0
 10
49.222917
 20
35.654590
 30
0.0
 10
49.093363
 20
35.627835
 30
0.0
 10
48.962671
 20
35.604467
 30
0.0
 10
48.830842
 20
35.584232
 30
0.0
 10
48.697885
 20
35.566903
 30
0.0
 10
48.563798
 20
35.552256
 30
0.0
 10
48.428585
 20
35.540064
 30
0.0
 10
48.292250
 20
35.530101
 30
0.0
 10
48.154796
 20
35.522114
 30
0.0
 10
48.016225
 20
35.515906
 30
0.0
 10
47.876542
 20
35.511221
 30
0.0
 10
47.735747
 20
35.507862
 30
0.0
 10
47.593845
 20
35.505604
 30
0.0
 10
47.450841
 20
35.504193
 30
0.0
 10
47.306735
 20
35.503347
 30
0.0
 10
47.161532
 20
35.503064
 30
0.0
 10
47.015233
 20
35.502782
 30
0.0
 10
46.996607
 20
35.502782
 30
0.0
 10
46.942330
 20
35.502782
 30
0.0
 10
46.854773
 20
35.502782
 30
0.0
 10
46.736313
 20
35.502782
 30
0.0
 10
46.589329
 20
35.502782
 30
0.0
 10
46.416194
 20
35.502782
 30
0.0
 10
46.219291
 20
35.502782
 30
0.0
 10
46.000992
 20
35.502782
 30
0.0
 10
45.763677
 20
35.502782
 30
0.0
 10
45.509722
 20
35.502782
 30
0.0
 10
45.241504
 20
35.502782
 30
0.0
 10
44.961401
 20
35.502782
 30
0.0
 10
44.671787
 20
35.502782
 30
0.0
 10
44.375045
 20
35.502782
 30
0.0
 10
44.073547
 20
35.502782
 30
0.0
 10
43.769672
 20
35.502782
 30
0.0
 10
43.465798
 20
35.502782
 30
0.0
 10
43.164300
 20
35.502782
 30
0.0
 10
42.867557
 20
35.502782
 30
0.0
 10
42.577944
 20
35.502782
 30
0.0
 10
42.297841
 20
35.502782
 30
0.0
 10
42.029626
 20
35.502782
 30
0.0
 10
41.775668
 20
35.502782
 30
0.0
 10
41.538353
 20
35.502782
 30
0.0
 10
41.320054
 20
35.502782
 30
0.0
 10
41.123150
 20
35.502782
 30
0.0
 10
40.950018
 20
35.502782
 30
0.0
 10
40.803031
 20
35.502782
 30
0.0
 10
40.684571
 20
35.502782
 30
0.0
 10
40.597015
 20
35.502782
 30
0.0
 10
40.542738
 20
35.502782
 30
0.0
 10
40.524111
 20
35.502782
 30
0.0
 10
40.522136
 20
35.588821
 30
0.0
 10
40.520160
 20
35.673933
 30
0.0
 10
40.518184
 20
35.758171
 30
0.0
 10
40.515927
 20
35.841582
 30
0.0
 10
40.513669
 20
35.924216
 30
0.0
 10
40.510847
 20
36.006120
 30
0.0
 10
40.507742
 20
36.087349
 30
0.0
 10
40.504158
 20
36.167946
 30
0.0
 10
40.500009
 20
36.247967
 30
0.0
 10
40.495240
 20
36.327458
 30
0.0
 10
40.489765
 20
36.406469
 30
0.0
 10
40.483528
 20
36.485051
 30
0.0
 10
40.476444
 20
36.563252
 30
0.0
 10
40.468429
 20
36.641123
 30
0.0
 10
40.459426
 20
36.718711
 30
0.0
 10
40.449350
 20
36.796068
 30
0.0
 10
40.438118
 20
36.873245
 30
0.0
 10
40.425644
 20
36.950289
 30
0.0
 10
40.411871
 20
37.027248
 30
0.0
 10
40.396744
 20
37.104176
 30
0.0
 10
40.380150
 20
37.181121
 30
0.0
 10
40.362031
 20
37.258131
 30
0.0
 10
40.342332
 20
37.335257
 30
0.0
 10
40.320968
 20
37.412549
 30
0.0
 10
40.297825
 20
37.490056
 30
0.0
 10
40.272877
 20
37.567825
 30
0.0
 10
40.246009
 20
37.645910
 30
0.0
 10
40.217186
 20
37.724359
 30
0.0
 10
40.186314
 20
37.803221
 30
0.0
 10
40.153319
 20
37.882548
 30
0.0
 10
40.118123
 20
37.962386
 30
0.0
 10
40.080655
 20
38.042785
 30
0.0
 10
40.056610
 20
38.092247
 30
0.0
 10
40.032113
 20
38.141162
 30
0.0
 10
40.007193
 20
38.189543
 30
0.0
 10
39.981821
 20
38.237403
 30
0.0
 10
39.955970
 20
38.284757
 30
0.0
 10
39.929666
 20
38.331617
 30
0.0
 10
39.902912
 20
38.378000
 30
0.0
 10
39.875706
 20
38.423918
 30
0.0
 10
39.848048
 20
38.469384
 30
0.0
 10
39.819910
 20
38.514412
 30
0.0
 10
39.791324
 20
38.559020
 30
0.0
 10
39.762275
 20
38.603222
 30
0.0
 10
39.732760
 20
38.647026
 30
0.0
 10
39.702780
 20
38.690448
 30
0.0
 10
39.672331
 20
38.733504
 30
0.0
 10
39.641410
 20
38.776207
 30
0.0
 10
39.610019
 20
38.818572
 30
0.0
 10
39.578156
 20
38.860611
 30
0.0
 10
39.545819
 20
38.902341
 30
0.0
 10
39.513005
 20
38.943771
 30
0.0
 10
39.479714
 20
38.984919
 30
0.0
 10
39.445940
 20
39.025799
 30
0.0
 10
39.411690
 20
39.066422
 30
0.0
 10
39.376957
 20
39.106805
 30
0.0
 10
39.341741
 20
39.146960
 30
0.0
 10
39.306040
 20
39.186903
 30
0.0
 10
39.269851
 20
39.226645
 30
0.0
 10
39.233173
 20
39.266201
 30
0.0
 10
39.196004
 20
39.305586
 30
0.0
 10
39.158347
 20
39.344814
 30
0.0
 10
39.120194
 20
39.383897
 30
0.0
 10
39.081549
 20
39.422852
 30
0.0
 10
38.798226
 20
39.687794
 30
0.0
 10
38.510289
 20
39.921090
 30
0.0
 10
38.218607
 20
40.123404
 30
0.0
 10
37.924054
 20
40.295398
 30
0.0
 10
37.627504
 20
40.437743
 30
0.0
 10
37.329832
 20
40.551097
 30
0.0
 10
37.031907
 20
40.636134
 30
0.0
 10
36.734609
 20
40.693512
 30
0.0
 10
36.438806
 20
40.723899
 30
0.0
 10
36.145371
 20
40.727963
 30
0.0
 10
35.855182
 20
40.706373
 30
0.0
 10
35.569107
 20
40.659775
 30
0.0
 10
35.288022
 20
40.588847
 30
0.0
 10
35.012802
 20
40.494252
 30
0.0
 10
34.744319
 20
40.376656
 30
0.0
 10
34.483444
 20
40.236721
 30
0.0
 10
34.231052
 20
40.075118
 30
0.0
 10
33.988019
 20
39.892509
 30
0.0
 10
33.755214
 20
39.689560
 30
0.0
 10
33.533512
 20
39.466935
 30
0.0
 10
33.323787
 20
39.225299
 30
0.0
 10
33.126914
 20
38.965316
 30
0.0
 10
32.943760
 20
38.687652
 30
0.0
 10
32.775206
 20
38.392975
 30
0.0
 10
32.622120
 20
38.081946
 30
0.0
 10
32.485378
 20
37.755232
 30
0.0
 10
32.365854
 20
37.413497
 30
0.0
 10
32.264418
 20
37.057406
 30
0.0
 10
32.181944
 20
36.687625
 30
0.0
 10
32.119308
 20
36.304821
 30
0.0
 10
32.077381
 20
35.909656
 30
0.0
 10
32.057032
 20
35.502796
 30
0.0
 10
32.037587
 20
35.502796
 30
0.0
 10
31.980951
 20
35.502796
 30
0.0
 10
31.889587
 20
35.502796
 30
0.0
 10
31.765977
 20
35.502796
 30
0.0
 10
31.612600
 20
35.502796
 30
0.0
 10
31.431941
 20
35.502796
 30
0.0
 10
31.226475
 20
35.502796
 30
0.0
 10
30.998685
 20
35.502796
 30
0.0
 10
30.751052
 20
35.502796
 30
0.0
 10
30.486056
 20
35.502796
 30
0.0
 10
30.206177
 20
35.502796
 30
0.0
 10
29.913896
 20
35.502796
 30
0.0
 10
29.611693
 20
35.502796
 30
0.0
 10
29.302047
 20
35.502796
 30
0.0
 10
28.987442
 20
35.502796
 30
0.0
 10
28.670354
 20
35.502796
 30
0.0
 10
28.353269
 20
35.502796
 30
0.0
 10
28.038662
 20
35.502796
 30
0.0
 10
27.729018
 20
35.502796
 30
0.0
 10
27.426814
 20
35.502796
 30
0.0
 10
27.134532
 20
35.502796
 30
0.0
 10
26.854653
 20
35.502796
 30
0.0
 10
26.589657
 20
35.502796
 30
0.0
 10
26.342024
 20
35.502796
 30
0.0
 10
26.114234
 20
35.502796
 30
0.0
 10
25.908769
 20
35.502796
 30
0.0
 10
25.728108
 20
35.502796
 30
0.0
 10
25.574733
 20
35.502796
 30
0.0
 10
25.451123
 20
35.502796
 30
0.0
 10
25.359759
 20
35.502796
 30
0.0
 10
25.303122
 20
35.502796
 30
0.0
 10
25.283691
 20
35.502796
 30
0.0
 10
25.178612
 20
35.503361
 30
0.0
 10
25.074486
 20
35.503925
 30
0.0
 10
24.971277
 20
35.504772
 30
0.0
 10
24.868944
 20
35.505901
 30
0.0
 10
24.767452
 20
35.507312
 30
0.0
 10
24.666760
 20
35.509287
 30
0.0
 10
24.566830
 20
35.511827
 30
0.0
 10
24.467626
 20
35.515129
 30
0.0
 10
24.369107
 20
35.519278
 30
0.0
 10
24.271237
 20
35.524443
 30
0.0
 10
24.173977
 20
35.530708
 30
0.0
 10
24.077288
 20
35.538215
 30
0.0
 10
23.981132
 20
35.547077
 30
0.0
 10
23.885472
 20
35.557406
 30
0.0
 10
23.790269
 20
35.569344
 30
0.0
 10
23.695483
 20
35.583004
 30
0.0
 10
23.601079
 20
35.598498
 30
0.0
 10
23.507016
 20
35.615939
 30
0.0
 10
23.413257
 20
35.635469
 30
0.0
 10
23.319764
 20
35.657200
 30
0.0
 10
23.226498
 20
35.681217
 30
0.0
 10
23.133421
 20
35.707690
 30
0.0
 10
23.040496
 20
35.736711
 30
0.0
 10
22.947683
 20
35.768407
 30
0.0
 10
22.854944
 20
35.802897
 30
0.0
 10
22.762242
 20
35.840303
 30
0.0
 10
22.669537
 20
35.880743
 30
0.0
 10
22.576793
 20
35.924335
 30
0.0
 10
22.483969
 20
35.971203
 30
0.0
 10
22.391029
 20
36.021467
 30
0.0
 10
22.297934
 20
36.075242
 30
0.0
 10
22.204646
 20
36.132651
 30
0.0
 10
21.999477
 20
36.270906
 30
0.0
 10
21.808554
 20
36.416127
 30
0.0
 10
21.631373
 20
36.568019
 30
0.0
 10
21.467429
 20
36.726295
 30
0.0
 10
21.316218
 20
36.890655
 30
0.0
 10
21.177236
 20
37.060813
 30
0.0
 10
21.049979
 20
37.236468
 30
0.0
 10
20.933941
 20
37.417335
 30
0.0
 10
20.828619
 20
37.603117
 30
0.0
 10
20.733509
 20
37.793521
 30
0.0
 10
20.648105
 20
37.988254
 30
0.0
 10
20.571904
 20
38.187026
 30
0.0
 10
20.504401
 20
38.389540
 30
0.0
 10
20.445092
 20
38.595503
 30
0.0
 10
20.393472
 20
38.804624
 30
0.0
 10
20.349038
 20
39.016610
 30
0.0
 10
20.311284
 20
39.231166
 30
0.0
 10
20.279706
 20
39.448001
 30
0.0
 10
20.253801
 20
39.666822
 30
0.0
 10
20.233063
 20
39.887336
 30
0.0
 10
20.216988
 20
40.109247
 30
0.0
 10
20.205072
 20
40.332268
 30
0.0
 10
20.196812
 20
40.556101
 30
0.0
 10
20.191701
 20
40.780454
 30
0.0
 10
20.189245
 20
41.005035
 30
0.0
 10
20.188907
 20
41.229548
 30
0.0
 10
20.190205
 20
41.453703
 30
0.0
 10
20.192660
 20
41.677209
 30
0.0
 10
20.195734
 20
41.899767
 30
0.0
 10
20.198931
 20
42.121091
 30
0.0
 10
20.201753
 20
42.340880
 30
0.0
 10
20.203701
 20
42.558849
 30
0.0
 10
20.204209
 20
42.686323
 30
0.0
 10
20.204323
 20
42.808042
 30
0.0
 10
20.204299
 20
42.924276
 30
0.0
 10
20.204401
 20
43.035282
 30
0.0
 10
20.204909
 20
43.141330
 30
0.0
 10
20.206066
 20
43.242684
 30
0.0
 10
20.208154
 20
43.339611
 30
0.0
 10
20.211425
 20
43.432372
 30
0.0
 10
20.216147
 20
43.521235
 30
0.0
 10
20.222585
 20
43.606466
 30
0.0
 10
20.231000
 20
43.688327
 30
0.0
 10
20.241660
 20
43.767087
 30
0.0
 10
20.254826
 20
43.843008
 30
0.0
 10
20.270763
 20
43.916357
 30
0.0
 10
20.289736
 20
43.987395
 30
0.0
 10
20.312009
 20
44.056393
 30
0.0
 10
20.337847
 20
44.123613
 30
0.0
 10
20.367512
 20
44.189320
 30
0.0
 10
20.401268
 20
44.253779
 30
0.0
 10
20.439379
 20
44.317254
 30
0.0
 10
20.482112
 20
44.380015
 30
0.0
 10
20.529727
 20
44.442321
 30
0.0
 10
20.582491
 20
44.504441
 30
0.0
 10
20.640667
 20
44.566640
 30
0.0
 10
20.704519
 20
44.629183
 30
0.0
 10
20.774311
 20
44.692333
 30
0.0
 10
20.850307
 20
44.756355
 30
0.0
 10
20.932772
 20
44.821517
 30
0.0
 10
21.021969
 20
44.888082
 30
0.0
 10
21.118163
 20
44.956315
 30
0.0
 10
21.221617
 20
45.026481
 30
0.0
 10
21.332596
 20
45.098849
 30
0.0
 10
21.310738
 20
45.106130
 30
0.0
 10
21.247021
 20
45.127381
 30
0.0
 10
21.144237
 20
45.161643
 30
0.0
 10
21.005175
 20
45.207995
 30
0.0
 10
20.832628
 20
45.265509
 30
0.0
 10
20.629384
 20
45.333260
 30
0.0
 10
20.398235
 20
45.410309
 30
0.0
 10
20.141972
 20
45.495729
 30
0.0
 10
19.863384
 20
45.588592
 30
0.0
 10
19.565263
 20
45.687968
 30
0.0
 10
19.250398
 20
45.792923
 30
0.0
 10
18.921581
 20
45.902527
 30
0.0
 10
18.581602
 20
46.015854
 30
0.0
 10
18.233251
 20
46.131971
 30
0.0
 10
17.879319
 20
46.249948
 30
0.0
 10
17.522597
 20
46.368857
 30
0.0
 10
17.165874
 20
46.487766
 30
0.0
 10
16.811942
 20
46.605740
 30
0.0
 10
16.463591
 20
46.721858
 30
0.0
 10
16.123612
 20
46.835184
 30
0.0
 10
15.794795
 20
46.944791
 30
0.0
 10
15.479931
 20
47.049744
 30
0.0
 10
15.181809
 20
47.149120
 30
0.0
 10
14.903221
 20
47.241982
 30
0.0
 10
14.646958
 20
47.327402
 30
0.0
 10
14.415809
 20
47.404452
 30
0.0
 10
14.212566
 20
47.472199
 30
0.0
 10
14.040018
 20
47.529716
 30
0.0
 10
13.900957
 20
47.576068
 30
0.0
 10
13.798172
 20
47.610330
 30
0.0
 10
13.734455
 20
47.631581
 30
0.0
 10
13.712597
 20
47.638863
 30
0.0
 10
13.733645
 20
47.646963
 30
0.0
 10
13.795002
 20
47.670556
 30
0.0
 10
13.893980
 20
47.708622
 30
0.0
 10
14.027891
 20
47.760128
 30
0.0
 10
14.194048
 20
47.824034
 30
0.0
 10
14.389764
 20
47.899309
 30
0.0
 10
14.612352
 20
47.984921
 30
0.0
 10
14.859124
 20
48.079832
 30
0.0
 10
15.127394
 20
48.183013
 30
0.0
 10
15.414473
 20
48.293426
 30
0.0
 10
15.717676
 20
48.410043
 30
0.0
 10
16.034315
 20
48.531828
 30
0.0
 10
16.361702
 20
48.657747
 30
0.0
 10
16.697151
 20
48.786765
 30
0.0
 10
17.037975
 20
48.917852
 30
0.0
 10
17.381485
 20
49.049971
 30
0.0
 10
17.724996
 20
49.182091
 30
0.0
 10
18.065819
 20
49.313174
 30
0.0
 10
18.401268
 20
49.442192
 30
0.0
 10
18.728656
 20
49.568111
 30
0.0
 10
19.045295
 20
49.689896
 30
0.0
 10
19.348497
 20
49.806513
 30
0.0
 10
19.635577
 20
49.916927
 30
0.0
 10
19.903847
 20
50.020107
 30
0.0
 10
20.150619
 20
50.115018
 30
0.0
 10
20.373207
 20
50.200631
 30
0.0
 10
20.568923
 20
50.275905
 30
0.0
 10
20.735079
 20
50.339811
 30
0.0
 10
20.868991
 20
50.391317
 30
0.0
 10
20.967968
 20
50.429383
 30
0.0
 10
21.029325
 20
50.452977
 30
0.0
 10
21.050373
 20
50.461077
 30
0.0
 10
21.029325
 20
50.467539
 30
0.0
 10
20.967968
 20
50.486420
 30
0.0
 10
20.868991
 20
50.516875
 30
0.0
 10
20.735079
 20
50.558079
 30
0.0
 10
20.568923
 20
50.609204
 30
0.0
 10
20.373207
 20
50.669424
 30
0.0
 10
20.150619
 20
50.737914
 30
0.0
 10
19.903847
 20
50.813843
 30
0.0
 10
19.635577
 20
50.896387
 30
0.0
 10
19.348497
 20
50.984720
 30
0.0
 10
19.045295
 20
51.078014
 30
0.0
 10
18.728656
 20
51.175440
 30
0.0
 10
18.401268
 20
51.276174
 30
0.0
 10
18.065819
 20
51.379391
 30
0.0
 10
17.724996
 20
51.484259
 30
0.0
 10
17.381485
 20
51.589954
 30
0.0
 10
17.037975
 20
51.695649
 30
0.0
 10
16.697151
 20
51.800517
 30
0.0
 10
16.361702
 20
51.903734
 30
0.0
 10
16.034315
 20
52.004468
 30
0.0
 10
15.717676
 20
52.101894
 30
0.0
 10
15.414473
 20
52.195188
 30
0.0
 10
15.127394
 20
52.283521
 30
0.0
 10
14.859124
 20
52.366065
 30
0.0
 10
14.612352
 20
52.441994
 30
0.0
 10
14.389764
 20
52.510484
 30
0.0
 10
14.194048
 20
52.570705
 30
0.0
 10
14.027891
 20
52.621829
 30
0.0
 10
13.893980
 20
52.663034
 30
0.0
 10
13.795002
 20
52.693488
 30
0.0
 10
13.733645
 20
52.712369
 30
0.0
 10
13.712597
 20
52.718832
 30
0.0
 10
13.734455
 20
52.726113
 30
0.0
 10
13.798172
 20
52.747364
 30
0.0
 10
13.900957
 20
52.781626
 30
0.0
 10
14.040018
 20
52.827981
 30
0.0
 10
14.212566
 20
52.885498
 30
0.0
 10
14.415810
 20
52.953245
 30
0.0
 10
14.646958
 20
53.030295
 30
0.0
 10
14.903222
 20
53.115715
 30
0.0
 10
15.181809
 20
53.208578
 30
0.0
 10
15.479931
 20
53.307951
 30
0.0
 10
15.794795
 20
53.412906
 30
0.0
 10
16.123612
 20
53.522513
 30
0.0
 10
16.463592
 20
53.635839
 30
0.0
 10
16.811943
 20
53.751957
 30
0.0
 10
17.165875
 20
53.869931
 30
0.0
 10
17.522597
 20
53.988840
 30
0.0
 10
17.879319
 20
54.107749
 30
0.0
 10
18.233251
 20
54.225723
 30
0.0
 10
18.581603
 20
54.341841
 30
0.0
 10
18.921582
 20
54.455167
 30
0.0
 10
19.250399
 20
54.564774
 30
0.0
 10
19.565263
 20
54.669730
 30
0.0
 10
19.863384
 20
54.769103
 30
0.0
 10
20.141972
 20
54.861965
 30
0.0
 10
20.398236
 20
54.947388
 30
0.0
 10
20.629385
 20
55.024438
 30
0.0
 10
20.832628
 20
55.092182
 30
0.0
 10
21.005176
 20
55.149699
 30
0.0
 10
21.144237
 20
55.196054
 30
0.0
 10
21.247021
 20
55.230316
 30
0.0
 10
21.310738
 20
55.251539
 30
0.0
 10
21.332596
 20
55.258820
 30
0.0
 10
21.309928
 20
55.266102
 30
0.0
 10
21.243851
 20
55.287353
 30
0.0
 10
21.137260
 20
55.321615
 30
0.0
 10
20.993048
 20
55.367970
 30
0.0
 10
20.814110
 20
55.425487
 30
0.0
 10
20.603339
 20
55.493234
 30
0.0
 10
20.363629
 20
55.570284
 30
0.0
 10
20.097874
 20
55.655704
 30
0.0
 10
19.808969
 20
55.748566
 30
0.0
 10
19.499806
 20
55.847940
 30
0.0
 10
19.173280
 20
55.952895
 30
0.0
 10
18.832284
 20
56.062502
 30
0.0
 10
18.479713
 20
56.175828
 30
0.0
 10
18.118460
 20
56.291946
 30
0.0
 10
17.751420
 20
56.409920
 30
0.0
 10
17.381485
 20
56.528829
 30
0.0
 10
17.011551
 20
56.647738
 30
0.0
 10
16.644510
 20
56.765712
 30
0.0
 10
16.283258
 20
56.881830
 30
0.0
 10
15.930686
 20
56.995156
 30
0.0
 10
15.589691
 20
57.104763
 30
0.0
 10
15.263165
 20
57.209718
 30
0.0
 10
14.954002
 20
57.309091
 30
0.0
 10
14.665096
 20
57.401954
 30
0.0
 10
14.399341
 20
57.487374
 30
0.0
 10
14.159631
 20
57.564424
 30
0.0
 10
13.948860
 20
57.632171
 30
0.0
 10
13.769922
 20
57.689688
 30
0.0
 10
13.625710
 20
57.736043
 30
0.0
 10
13.519119
 20
57.770305
 30
0.0
 10
13.453042
 20
57.791528
 30
0.0
 10
13.430374
 20
57.798809
 30
0.0
 10
13.442518
 20
57.802506
 30
0.0
 10
13.477917
 20
57.813315
 30
0.0
 10
13.535019
 20
57.830757
 30
0.0
 10
13.612275
 20
57.854350
 30
0.0
 10
13.708135
 20
57.883617
 30
0.0
 10
13.821048
 20
57.918096
 30
0.0
 10
13.949464
 20
57.957305
 30
0.0
 10
14.091833
 20
58.000773
 30
0.0
 10
14.246603
 20
58.048031
 30
0.0
 10
14.412226
 20
58.098600
 30
0.0
 10
14.587151
 20
58.152010
 30
0.0
 10
14.769827
 20
58.207789
 30
0.0
 10
14.958705
 20
58.265458
 30
0.0
 10
15.152233
 20
58.324550
 30
0.0
 10
15.348862
 20
58.384587
 30
0.0
 10
15.547041
 20
58.445098
 30
0.0
 10
15.745220
 20
58.505609
 30
0.0
 10
15.941849
 20
58.565646
 30
0.0
 10
16.135377
 20
58.624738
 30
0.0
 10
16.324254
 20
58.682407
 30
0.0
 10
16.506930
 20
58.738186
 30
0.0
 10
16.681855
 20
58.791596
 30
0.0
 10
16.847478
 20
58.842165
 30
0.0
 10
17.002249
 20
58.889423
 30
0.0
 10
17.144617
 20
58.932891
 30
0.0
 10
17.273033
 20
58.972100
 30
0.0
 10
17.385947
 20
59.006576
 30
0.0
 10
17.481806
 20
59.035846
 30
0.0
 10
17.559063
 20
59.059439
 30
0.0
 10
17.616165
 20
59.076881
 30
0.0
 10
17.651563
 20
59.087690
 30
0.0
 10
17.663707
 20
59.091387
 30
0.0
 10
17.723789
 20
59.107840
 30
0.0
 10
17.785915
 20
59.124379
 30
0.0
 10
17.849915
 20
59.141086
 30
0.0
 10
17.915618
 20
59.157991
 30
0.0
 10
17.982852
 20
59.175150
 30
0.0
 10
18.051448
 20
59.192648
 30
0.0
 10
18.121233
 20
59.210513
 30
0.0
 10
18.192036
 20
59.228801
 30
0.0
 10
18.263687
 20
59.247540
 30
0.0
 10
18.336014
 20
59.266816
 30
0.0
 10
18.408847
 20
59.286685
 30
0.0
 10
18.482014
 20
59.307174
 30
0.0
 10
18.555345
 20
59.328369
 30
0.0
 10
18.628667
 20
59.350298
 30
0.0
 10
18.701811
 20
59.373016
 30
0.0
 10
18.774605
 20
59.396582
 30
0.0
 10
18.846878
 20
59.421051
 30
0.0
 10
18.918459
 20
59.446479
 30
0.0
 10
18.989177
 20
59.472923
 30
0.0
 10
19.058861
 20
59.500412
 30
0.0
 10
19.127340
 20
59.529020
 30
0.0
 10
19.194443
 20
59.558795
 30
0.0
 10
19.259999
 20
59.589791
 30
0.0
 10
19.323837
 20
59.622061
 30
0.0
 10
19.385785
 20
59.655656
 30
0.0
 10
19.445672
 20
59.690632
 30
0.0
 10
19.503329
 20
59.727044
 30
0.0
 10
19.558583
 20
59.764941
 30
0.0
 10
19.611263
 20
59.804376
 30
0.0
 10
19.661199
 20
59.845408
 30
0.0
 10
19.708220
 20
59.888083
 30
0.0
 10
19.752153
 20
59.932460
 30
0.0
 10
19.835390
 20
60.030507
 30
0.0
 10
19.907797
 20
60.134059
 30
0.0
 10
19.970120
 20
60.242981
 30
0.0
 10
20.023107
 20
60.357139
 30
0.0
 10
20.067503
 20
60.476398
 30
0.0
 10
20.104055
 20
60.600625
 30
0.0
 10
20.133508
 20
60.729684
 30
0.0
 10
20.156608
 20
60.863442
 30
0.0
 10
20.174103
 20
61.001764
 30
0.0
 10
20.186738
 20
61.144516
 30
0.0
 10
20.195261
 20
61.291563
 30
0.0
 10
20.200414
 20
61.442772
 30
0.0
 10
20.202954
 20
61.598006
 30
0.0
 10
20.203603
 20
61.757133
 30
0.0
 10
20.203124
 20
61.920018
 30
0.0
 10
20.202277
 20
62.086527
 30
0.0
 10
20.201769
 20
62.256524
 30
0.0
 10
20.202390
 20
62.429877
 30
0.0
 10
20.204873
 20
62.606449
 30
0.0
 10
20.209959
 20
62.786108
 30
0.0
 10
20.218389
 20
62.968719
 30
0.0
 10
20.230914
 20
63.154147
 30
0.0
 10
20.248279
 20
63.342257
 30
0.0
 10
20.271232
 20
63.532916
 30
0.0
 10
20.300519
 20
63.725990
 30
0.0
 10
20.336886
 20
63.921343
 30
0.0
 10
20.381079
 20
64.118842
 30
0.0
 10
20.433844
 20
64.318352
 30
0.0
 10
20.495929
 20
64.519739
 30
0.0
 10
20.568077
 20
64.722868
 30
0.0
 10
20.651037
 20
64.927605
 30
0.0
 10
20.745554
 20
65.133816
 30
0.0
 10
20.897284
 20
65.414681
 30
0.0
 10
21.067681
 20
65.673130
 30
0.0
 10
21.255782
 20
65.910049
 30
0.0
 10
21.460622
 20
66.126324
 30
0.0
 10
21.681239
 20
66.322839
 30
0.0
 10
21.916670
 20
66.500480
 30
0.0
 10
22.165950
 20
66.660132
 30
0.0
 10
22.428116
 20
66.802681
 30
0.0
 10
22.702206
 20
66.929011
 30
0.0
 10
22.987256
 20
67.040008
 30
0.0
 10
23.282302
 20
67.136558
 30
0.0
 10
23.586380
 20
67.219545
 30
0.0
 10
23.898529
 20
67.289855
 30
0.0
 10
24.217784
 20
67.348373
 30
0.0
 10
24.543181
 20
67.395984
 30
0.0
 10
24.873758
 20
67.433574
 30
0.0
 10
25.208551
 20
67.462028
 30
0.0
 10
25.546598
 20
67.482230
 30
0.0
 10
25.886935
 20
67.495065
 30
0.0
 10
26.228600
 20
67.501421
 30
0.0
 10
26.570628
 20
67.502183
 30
0.0
 10
26.912057
 20
67.498232
 30
0.0
 10
27.251923
 20
67.490457
 30
0.0
 10
27.589263
 20
67.479741
 30
0.0
 10
27.923114
 20
67.466970
 30
0.0
 10
28.252513
 20
67.453031
 30
0.0
 10
28.576496
 20
67.438807
 30
0.0
 10
28.894100
 20
67.425184
 30
0.0
 10
29.204361
 20
67.413049
 30
0.0
 10
29.506316
 20
67.403284
 30
0.0
 10
29.799003
 20
67.396776
 30
0.0
 10
30.081460
 20
67.394405
 30
0.0
 10
30.215755
 20
68.036274
 30
0.0
 10
30.399479
 20
68.636345
 30
0.0
 10
30.629327
 20
69.194655
 30
0.0
 10
30.901993
 20
69.711245
 30
0.0
 10
31.214170
 20
70.186153
 30
0.0
 10
31.562554
 20
70.619417
 30
0.0
 10
31.943836
 20
71.011077
 30
0.0
 10
32.354715
 20
71.361170
 30
0.0
 10
32.791883
 20
71.669737
 30
0.0
 10
33.252032
 20
71.936815
 30
0.0
 10
33.731860
 20
72.162443
 30
0.0
 10
34.228061
 20
72.346661
 30
0.0
 10
34.737325
 20
72.489506
 30
0.0
 10
35.256349
 20
72.591018
 30
0.0
 10
35.781829
 20
72.651234
 30
0.0
 10
36.310457
 20
72.670197
 30
0.0
 10
36.838930
 20
72.647944
 30
0.0
 10
37.363936
 20
72.584510
 30
0.0
 10
37.882175
 20
72.479935
 30
0.0
 10
38.390342
 20
72.334260
 30
0.0
 10
38.885128
 20
72.147524
 30
0.0
 10
39.363227
 20
71.919764
 30
0.0
 10
39.821335
 20
71.651019
 30
0.0
 10
40.256147
 20
71.341329
 30
0.0
 10
40.664353
 20
70.990731
 30
0.0
 10
41.042652
 20
70.599266
 30
0.0
 10
41.387736
 20
70.166970
 30
0.0
 10
41.696301
 20
69.693884
 30
0.0
 10
41.965039
 20
69.180046
 30
0.0
 10
42.190645
 20
68.625495
 30
0.0
 10
42.369813
 20
68.030269
 30
0.0
 10
42.499240
 20
67.394407
 30
0.0
 10
42.499240
 20
67.394381
 30
0.0
 10
42.499243
 20
67.394355
 30
0.0
 10
42.499243
 20
67.394329
 30
0.0
 10
42.499246
 20
67.394304
 30
0.0
 10
42.499528
 20
67.393683
 30
0.0
 10
42.499588
 20
67.393674
 30
0.0
 10
42.499588
 20
67.393674
 30
0.0
  0
LWPOLYLINE
  5
103
100
AcDbEntity
  8
0
 62
7
100
AcDbPolyline
 90
968
 70
0
 10
39.756388
 20
68.779385
 30
0.0
 10
39.654711
 20
68.726110
 30
0.0
 10
39.489583
 20
68.939801
 30
0.0
 10
39.293371
 20
69.252887
 30
0.0
 10
39.098440
 20
69.497795
 30
0.0
 10
38.910748
 20
69.646604
 30
0.0
 10
38.715129
 20
69.783107
 30
0.0
 10
38.512256
 20
69.907311
 30
0.0
 10
38.302811
 20
70.019222
 30
0.0
 10
38.087464
 20
70.118847
 30
0.0
 10
37.866893
 20
70.206192
 30
0.0
 10
37.641776
 20
70.281262
 30
0.0
 10
37.412789
 20
70.344065
 30
0.0
 10
37.180610
 20
70.394605
 30
0.0
 10
36.945911
 20
70.432890
 30
0.0
 10
36.709373
 20
70.458925
 30
0.0
 10
36.471671
 20
70.472717
 30
0.0
 10
36.233481
 20
70.474270
 30
0.0
 10
35.995480
 20
70.463593
 30
0.0
 10
35.758343
 20
70.440694
 30
0.0
 10
35.522749
 20
70.405576
 30
0.0
 10
35.289371
 20
70.358246
 30
0.0
 10
35.058889
 20
70.298709
 30
0.0
 10
34.831977
 20
70.226973
 30
0.0
 10
34.609312
 20
70.143043
 30
0.0
 10
34.391572
 20
70.046926
 30
0.0
 10
34.179431
 20
69.938628
 30
0.0
 10
33.973567
 20
69.818154
 30
0.0
 10
33.774657
 20
69.685512
 30
0.0
 10
33.583389
 20
69.540697
 30
0.0
 10
33.400436
 20
69.383717
 30
0.0
 10
33.226448
 20
69.214602
 30
0.0
 10
33.062074
 20
69.033381
 30
0.0
 10
32.974099
 20
68.927142
 30
0.0
 10
32.891420
 20
68.821224
 30
0.0
 10
32.813975
 20
68.715467
 30
0.0
 10
32.741554
 20
68.609832
 30
0.0
 10
32.673987
 20
68.504249
 30
0.0
 10
32.611100
 20
68.398647
 30
0.0
 10
32.552725
 20
68.292958
 30
0.0
 10
32.498688
 20
68.187111
 30
0.0
 10
32.448819
 20
68.081036
 30
0.0
 10
32.402944
 20
67.974665
 30
0.0
 10
32.360893
 20
67.867927
 30
0.0
 10
32.322496
 20
67.760752
 30
0.0
 10
32.287580
 20
67.653070
 30
0.0
 10
32.255974
 20
67.544812
 30
0.0
 10
32.227506
 20
67.435908
 30
0.0
 10
32.201993
 20
67.326289
 30
0.0
 10
32.179274
 20
67.215884
 30
0.0
 10
32.159180
 20
67.104624
 30
0.0
 10
32.141541
 20
66.992439
 30
0.0
 10
32.126188
 20
66.879259
 30
0.0
 10
32.112952
 20
66.765014
 30
0.0
 10
32.101635
 20
66.649636
 30
0.0
 10
32.092096
 20
66.533053
 30
0.0
 10
32.084137
 20
66.415196
 30
0.0
 10
32.077618
 20
66.295996
 30
0.0
 10
32.072340
 20
66.175383
 30
0.0
 10
32.068135
 20
66.053286
 30
0.0
 10
32.064833
 20
65.929636
 30
0.0
 10
32.062293
 20
65.804364
 30
0.0
 10
32.060317
 20
65.677399
 30
0.0
 10
32.058624
 20
65.548673
 30
0.0
 10
32.057213
 20
65.418114
 30
0.0
 10
32.041013
 20
65.418114
 30
0.0
 10
31.993815
 20
65.418114
 30
0.0
 10
31.917680
 20
65.418114
 30
0.0
 10
31.814671
 20
65.418114
 30
0.0
 10
31.686858
 20
65.418114
 30
0.0
 10
31.536307
 20
65.418114
 30
0.0
 10
31.365086
 20
65.418114
 30
0.0
 10
31.175260
 20
65.418114
 30
0.0
 10
30.968899
 20
65.418114
 30
0.0
 10
30.748069
 20
65.418114
 30
0.0
 10
30.514835
 20
65.418114
 30
0.0
 10
30.271268
 20
65.418114
 30
0.0
 10
30.019430
 20
65.418114
 30
0.0
 10
29.761394
 20
65.418114
 30
0.0
 10
29.499224
 20
65.418114
 30
0.0
 10
29.234985
 20
65.418114
 30
0.0
 10
28.970746
 20
65.418114
 30
0.0
 10
28.708576
 20
65.418114
 30
0.0
 10
28.450537
 20
65.418114
 30
0.0
 10
28.198700
 20
65.418114
 30
0.0
 10
27.955132
 20
65.418114
 30
0.0
 10
27.721899
 20
65.418114
 30
0.0
 10
27.501069
 20
65.418114
 30
0.0
 10
27.294707
 20
65.418114
 30
0.0
 10
27.104883
 20
65.418114
 30
0.0
 10
26.933662
 20
65.418114
 30
0.0
 10
26.783111
 20
65.418114
 30
0.0
 10
26.655298
 20
65.418114
 30
0.0
 10
26.552290
 20
65.418114
 30
0.0
 10
26.476153
 20
65.418114
 30
0.0
 10
26.428955
 20
65.418114
 30
0.0
 10
26.412764
 20
65.418114
 30
0.0
 10
26.293259
 20
65.418029
 30
0.0
 10
26.171957
 20
65.418114
 30
0.0
 10
26.049079
 20
65.418114
 30
0.0
 10
25.924845
 20
65.417775
 30
0.0
 10
25.799477
 20
65.416844
 30
0.0
 10
25.673194
 20
65.415066
 30
0.0
 10
25.546218
 20
65.412170
 30
0.0
 10
25.418769
 20
65.407909
 30
0.0
 10
25.291068
 20
65.402030
 30
0.0
 10
25.163335
 20
65.394275
 30
0.0
 10
25.035792
 20
65.384386
 30
0.0
 10
24.908658
 20
65.372106
 30
0.0
 10
24.782155
 20
65.357182
 30
0.0
 10
24.656502
 20
65.339354
 30
0.0
 10
24.531922
 20
65.318368
 30
0.0
 10
24.408634
 20
65.293967
 30
0.0
 10
24.286859
 20
65.265895
 30
0.0
 10
24.166818
 20
65.233895
 30
0.0
 10
24.048732
 20
65.197712
 30
0.0
 10
23.932820
 20
65.157089
 30
0.0
 10
23.819304
 20
65.111769
 30
0.0
 10
23.708405
 20
65.061497
 30
0.0
 10
23.600342
 20
65.006016
 30
0.0
 10
23.495337
 20
64.945069
 30
0.0
 10
23.393611
 20
64.878402
 30
0.0
 10
23.295384
 20
64.805755
 30
0.0
 10
23.200876
 20
64.726875
 30
0.0
 10
23.110309
 20
64.641505
 30
0.0
 10
23.023880
 20
64.549400
 30
0.0
 10
22.941818
 20
64.450301
 30
0.0
 10
22.864389
 20
64.343925
 30
0.0
 10
22.791856
 20
64.229989
 30
0.0
 10
22.689234
 20
64.040026
 30
0.0
 10
22.604504
 20
63.847877
 30
0.0
 10
22.536076
 20
63.653731
 30
0.0
 10
22.482602
 20
63.457637
 30
0.0
 10
22.442672
 20
63.259679
 30
0.0
 10
22.414875
 20
63.059940
 30
0.0
 10
22.397801
 20
62.858503
 30
0.0
 10
22.390043
 20
62.655454
 30
0.0
 10
22.390189
 20
62.450874
 30
0.0
 10
22.396829
 20
62.244849
 30
0.0
 10
22.408553
 20
62.037462
 30
0.0
 10
22.423954
 20
61.828796
 30
0.0
 10
22.441621
 20
61.618935
 30
0.0
 10
22.460143
 20
61.407963
 30
0.0
 10
22.478112
 20
61.195965
 30
0.0
 10
22.494117
 20
60.983022
 30
0.0
 10
22.506746
 20
60.769219
 30
0.0
 10
22.514592
 20
60.554641
 30
0.0
 10
22.516257
 20
60.339370
 30
0.0
 10
22.510308
 20
60.123490
 30
0.0
 10
22.495347
 20
59.907083
 30
0.0
 10
22.469964
 20
59.690237
 30
0.0
 10
22.432750
 20
59.473033
 30
0.0
 10
22.382293
 20
59.255556
 30
0.0
 10
22.317186
 20
59.037889
 30
0.0
 10
22.236017
 20
58.820115
 30
0.0
 10
22.137378
 20
58.602318
 30
0.0
 10
22.019858
 20
58.384581
 30
0.0
 10
21.882048
 20
58.166991
 30
0.0
 10
21.722538
 20
57.949626
 30
0.0
 10
21.539919
 20
57.732574
 30
0.0
 10
21.332780
 20
57.515921
 30
0.0
 10
21.354638
 20
57.509458
 30
0.0
 10
21.418354
 20
57.490577
 30
0.0
 10
21.521139
 20
57.460123
 30
0.0
 10
21.660200
 20
57.418918
 30
0.0
 10
21.832748
 20
57.367794
 30
0.0
 10
22.035991
 20
57.307573
 30
0.0
 10
22.267139
 20
57.239083
 30
0.0
 10
22.523403
 20
57.163154
 30
0.0
 10
22.801990
 20
57.080610
 30
0.0
 10
23.100111
 20
56.992277
 30
0.0
 10
23.414975
 20
56.898983
 30
0.0
 10
23.743792
 20
56.801557
 30
0.0
 10
24.083771
 20
56.700824
 30
0.0
 10
24.432122
 20
56.597606
 30
0.0
 10
24.786053
 20
56.492738
 30
0.0
 10
25.142775
 20
56.387043
 30
0.0
 10
25.499497
 20
56.281348
 30
0.0
 10
25.853429
 20
56.176480
 30
0.0
 10
26.201780
 20
56.073263
 30
0.0
 10
26.541759
 20
55.972529
 30
0.0
 10
26.870575
 20
55.875103
 30
0.0
 10
27.185440
 20
55.781809
 30
0.0
 10
27.483561
 20
55.693477
 30
0.0
 10
27.762148
 20
55.610932
 30
0.0
 10
28.018411
 20
55.535003
 30
0.0
 10
28.249561
 20
55.466513
 30
0.0
 10
28.452803
 20
55.406293
 30
0.0
 10
28.625351
 20
55.355168
 30
0.0
 10
28.764413
 20
55.313964
 30
0.0
 10
28.867196
 20
55.283509
 30
0.0
 10
28.930913
 20
55.264629
 30
0.0
 10
28.952785
 20
55.258137
 30
0.0
 10
28.751809
 20
55.175909
 30
0.0
 10
28.538447
 20
55.094762
 30
0.0
 10
28.313642
 20
55.014543
 30
0.0
 10
28.078332
 20
54.935109
 30
0.0
 10
27.833464
 20
54.856315
 30
0.0
 10
27.579977
 20
54.778013
 30
0.0
 10
27.318814
 20
54.700054
 30
0.0
 10
27.050918
 20
54.622299
 30
0.0
 10
26.777229
 20
54.544598
 30
0.0
 10
26.498691
 20
54.466803
 30
0.0
 10
26.216245
 20
54.388769
 30
0.0
 10
25.930833
 20
54.310351
 30
0.0
 10
25.643397
 20
54.231402
 30
0.0
 10
25.354880
 20
54.151773
 30
0.0
 10
25.066224
 20
54.071322
 30
0.0
 10
24.778369
 20
53.989901
 30
0.0
 10
24.492260
 20
53.907363
 30
0.0
 10
24.208837
 20
53.823565
 30
0.0
 10
23.929043
 20
53.738357
 30
0.0
 10
23.653819
 20
53.651593
 30
0.0
 10
23.384108
 20
53.563128
 30
0.0
 10
23.120853
 20
53.472817
 30
0.0
 10
22.864994
 20
53.380510
 30
0.0
 10
22.617474
 20
53.286065
 30
0.0
 10
22.379235
 20
53.189333
 30
0.0
 10
22.151219
 20
53.090168
 30
0.0
 10
21.934369
 20
52.988427
 30
0.0
 10
21.729626
 20
52.883960
 30
0.0
 10
21.537932
 20
52.776620
 30
0.0
 10
21.360230
 20
52.666265
 30
0.0
 10
21.197461
 20
52.552744
 30
0.0
 10
21.050567
 20
52.435915
 30
0.0
 10
21.073236
 20
52.430243
 30
0.0
 10
21.139313
 20
52.413733
 30
0.0
 10
21.245904
 20
52.387091
 30
0.0
 10
21.390115
 20
52.351037
 30
0.0
 10
21.569053
 20
52.306302
 30
0.0
 10
21.779824
 20
52.253608
 30
0.0
 10
22.019534
 20
52.193681
 30
0.0
 10
22.285288
 20
52.127243
 30
0.0
 10
22.574194
 20
52.055017
 30
0.0
 10
22.883356
 20
51.977725
 30
0.0
 10
23.209882
 20
51.896095
 30
0.0
 10
23.550877
 20
51.810847
 30
0.0
 10
23.903448
 20
51.722703
 30
0.0
 10
24.264701
 20
51.632389
 30
0.0
 10
24.631741
 20
51.540630
 30
0.0
 10
25.001675
 20
51.448146
 30
0.0
 10
25.371609
 20
51.355662
 30
0.0
 10
25.738649
 20
51.263903
 30
0.0
 10
26.099902
 20
51.173589
 30
0.0
 10
26.452472
 20
51.085445
 30
0.0
 10
26.793468
 20
51.000197
 30
0.0
 10
27.119993
 20
50.918567
 30
0.0
 10
27.429156
 20
50.841275
 30
0.0
 10
27.718062
 20
50.769049
 30
0.0
 10
27.983816
 20
50.702611
 30
0.0
 10
28.223523
 20
50.642684
 30
0.0
 10
28.434295
 20
50.589990
 30
0.0
 10
28.613235
 20
50.545255
 30
0.0
 10
28.757445
 20
50.509204
 30
0.0
 10
28.864035
 20
50.482562
 30
0.0
 10
28.930112
 20
50.466052
 30
0.0
 10
28.952774
 20
50.460379
 30
0.0
 10
28.952774
 20
50.458686
 30
0.0
 10
28.952774
 20
50.453973
 30
0.0
 10
28.952774
 20
50.446353
 30
0.0
 10
28.952774
 20
50.436052
 30
0.0
 10
28.952774
 20
50.423267
 30
0.0
 10
28.952774
 20
50.408225
 30
0.0
 10
28.952774
 20
50.391094
 30
0.0
 10
28.952774
 20
50.372100
 30
0.0
 10
28.952774
 20
50.351470
 30
0.0
 10
28.952774
 20
50.329400
 30
0.0
 10
28.952774
 20
50.306060
 30
0.0
 10
28.952774
 20
50.281705
 30
0.0
 10
28.952774
 20
50.256530
 30
0.0
 10
28.952774
 20
50.230735
 30
0.0
 10
28.952774
 20
50.204517
 30
0.0
 10
28.952774
 20
50.178101
 30
0.0
 10
28.952774
 20
50.151685
 30
0.0
 10
28.952774
 20
50.125466
 30
0.0
 10
28.952774
 20
50.099671
 30
0.0
 10
28.952774
 20
50.074497
 30
0.0
 10
28.952774
 20
50.050141
 30
0.0
 10
28.952774
 20
50.026830
 30
0.0
 10
28.952774
 20
50.004760
 30
0.0
 10
28.952774
 20
49.984129
 30
0.0
 10
28.952774
 20
49.965164
 30
0.0
 10
28.952774
 20
49.948033
 30
0.0
 10
28.952774
 20
49.932991
 30
0.0
 10
28.952774
 20
49.920206
 30
0.0
 10
28.952774
 20
49.909905
 30
0.0
 10
28.952774
 20
49.902285
 30
0.0
 10
28.952774
 20
49.897572
 30
0.0
 10
28.952774
 20
49.895879
 30
0.0
 10
28.803061
 20
49.880610
 30
0.0
 10
28.634715
 20
49.858343
 30
0.0
 10
28.449030
 20
49.829395
 30
0.0
 10
28.247298
 20
49.794123
 30
0.0
 10
28.030809
 20
49.752871
 30
0.0
 10
27.800859
 20
49.705985
 30
0.0
 10
27.558740
 20
49.653808
 30
0.0
 10
27.305745
 20
49.596683
 30
0.0
 10
27.043167
 20
49.534959
 30
0.0
 10
26.772299
 20
49.468978
 30
0.0
 10
26.494435
 20
49.399086
 30
0.0
 10
26.210866
 20
49.325626
 30
0.0
 10
25.922887
 20
49.248941
 30
0.0
 10
25.631789
 20
49.169379
 30
0.0
 10
25.338866
 20
49.087286
 30
0.0
 10
25.045411
 20
49.003004
 30
0.0
 10
24.752716
 20
48.916878
 30
0.0
 10
24.462075
 20
48.829254
 30
0.0
 10
24.174780
 20
48.740472
 30
0.0
 10
23.892126
 20
48.650883
 30
0.0
 10
23.615403
 20
48.560829
 30
0.0
 10
23.345906
 20
48.470653
 30
0.0
 10
23.084927
 20
48.380704
 30
0.0
 10
22.833760
 20
48.291321
 30
0.0
 10
22.593697
 20
48.202853
 30
0.0
 10
22.366031
 20
48.115643
 30
0.0
 10
22.152055
 20
48.030034
 30
0.0
 10
21.953062
 20
47.946375
 30
0.0
 10
21.770345
 20
47.865010
 30
0.0
 10
21.605198
 20
47.786279
 30
0.0
 10
21.458912
 20
47.710530
 30
0.0
 10
21.332781
 20
47.638109
 30
0.0
 10
21.354639
 20
47.630828
 30
0.0
 10
21.418356
 20
47.609577
 30
0.0
 10
21.521140
 20
47.575315
 30
0.0
 10
21.660201
 20
47.528963
 30
0.0
 10
21.832749
 20
47.471449
 30
0.0
 10
22.035992
 20
47.403698
 30
0.0
 10
22.267141
 20
47.326649
 30
0.0
 10
22.523404
 20
47.241229
 30
0.0
 10
22.801991
 20
47.148366
 30
0.0
 10
23.100112
 20
47.048990
 30
0.0
 10
23.414976
 20
46.944037
 30
0.0
 10
23.743793
 20
46.834431
 30
0.0
 10
24.083772
 20
46.721104
 30
0.0
 10
24.432123
 20
46.604990
 30
0.0
 10
24.786054
 20
46.487012
 30
0.0
 10
25.142776
 20
46.368104
 30
0.0
 10
25.499499
 20
46.249195
 30
0.0
 10
25.853430
 20
46.131218
 30
0.0
 10
26.201781
 20
46.015100
 30
0.0
 10
26.541760
 20
45.901774
 30
0.0
 10
26.870576
 20
45.792167
 30
0.0
 10
27.185441
 20
45.687214
 30
0.0
 10
27.483562
 20
45.587838
 30
0.0
 10
27.762149
 20
45.494976
 30
0.0
 10
28.018412
 20
45.409556
 30
0.0
 10
28.249561
 20
45.332506
 30
0.0
 10
28.452803
 20
45.264759
 30
0.0
 10
28.625351
 20
45.207242
 30
0.0
 10
28.764413
 20
45.160890
 30
0.0
 10
28.867196
 20
45.126628
 30
0.0
 10
28.930913
 20
45.105376
 30
0.0
 10
28.952785
 20
45.098095
 30
0.0
 10
28.842200
 20
45.062800
 30
0.0
 10
28.713464
 20
45.023224
 30
0.0
 10
28.567880
 20
44.979627
 30
0.0
 10
28.406765
 20
44.932253
 30
0.0
 10
28.231420
 20
44.881360
 30
0.0
 10
28.043161
 20
44.827198
 30
0.0
 10
27.843295
 20
44.770023
 30
0.0
 10
27.633133
 20
44.710085
 30
0.0
 10
27.413983
 20
44.647637
 30
0.0
 10
27.187155
 20
44.582935
 30
0.0
 10
26.953958
 20
44.516226
 30
0.0
 10
26.715702
 20
44.447768
 30
0.0
 10
26.473697
 20
44.377810
 30
0.0
 10
26.229251
 20
44.306606
 30
0.0
 10
25.983675
 20
44.234410
 30
0.0
 10
25.738277
 20
44.161473
 30
0.0
 10
25.494368
 20
44.088047
 30
0.0
 10
25.253256
 20
44.014387
 30
0.0
 10
25.016252
 20
43.940744
 30
0.0
 10
24.784664
 20
43.867372
 30
0.0
 10
24.559803
 20
43.794522
 30
0.0
 10
24.342977
 20
43.722448
 30
0.0
 10
24.135496
 20
43.651404
 30
0.0
 10
23.938670
 20
43.581639
 30
0.0
 10
23.753808
 20
43.513409
 30
0.0
 10
23.582220
 20
43.446965
 30
0.0
 10
23.425215
 20
43.382559
 30
0.0
 10
23.284102
 20
43.320445
 30
0.0
 10
23.160183
 20
43.260885
 30
0.0
 10
23.054770
 20
43.204130
 30
0.0
 10
22.969189
 20
43.150409
 30
0.0
 10
22.904766
 20
43.099965
 30
0.0
 10
22.833095
 20
43.023914
 30
0.0
 10
22.767345
 20
42.932858
 30
0.0
 10
22.707374
 20
42.827871
 30
0.0
 10
22.653126
 20
42.709931
 30
0.0
 10
22.604525
 20
42.580032
 30
0.0
 10
22.561495
 20
42.439184
 30
0.0
 10
22.523959
 20
42.288384
 30
0.0
 10
22.491841
 20
42.128635
 30
0.0
 10
22.465064
 20
41.960933
 30
0.0
 10
22.443553
 20
41.786282
 30
0.0
 10
22.427229
 20
41.605683
 30
0.0
 10
22.416016
 20
41.420138
 30
0.0
 10
22.409839
 20
41.230649
 30
0.0
 10
22.408625
 20
41.038213
 30
0.0
 10
22.412291
 20
40.843832
 30
0.0
 10
22.420761
 20
40.648509
 30
0.0
 10
22.433960
 20
40.453242
 30
0.0
 10
22.451814
 20
40.259037
 30
0.0
 10
22.474242
 20
40.066891
 30
0.0
 10
22.501171
 20
39.877805
 30
0.0
 10
22.532524
 20
39.692780
 30
0.0
 10
22.568224
 20
39.512821
 30
0.0
 10
22.608195
 20
39.338925
 30
0.0
 10
22.652359
 20
39.172092
 30
0.0
 10
22.700641
 20
39.013325
 30
0.0
 10
22.752964
 20
38.863626
 30
0.0
 10
22.809252
 20
38.723991
 30
0.0
 10
22.869428
 20
38.595427
 30
0.0
 10
22.933428
 20
38.478948
 30
0.0
 10
23.001172
 20
38.375548
 30
0.0
 10
23.072558
 20
38.286202
 30
0.0
 10
23.147483
 20
38.211876
 30
0.0
 10
23.206639
 20
38.163201
 30
0.0
 10
23.268004
 20
38.118003
 30
0.0
 10
23.331557
 20
38.076268
 30
0.0
 10
23.397144
 20
38.037824
 30
0.0
 10
23.464644
 20
38.002537
 30
0.0
 10
23.533933
 20
37.970279
 30
0.0
 10
23.604892
 20
37.940914
 30
0.0
 10
23.677399
 20
37.914301
 30
0.0
 10
23.751331
 20
37.890312
 30
0.0
 10
23.826569
 20
37.868835
 30
0.0
 10
23.902990
 20
37.849728
 30
0.0
 10
23.980473
 20
37.832851
 30
0.0
 10
24.058896
 20
37.818063
 30
0.0
 10
24.138139
 20
37.805250
 30
0.0
 10
24.218079
 20
37.794271
 30
0.0
 10
24.298595
 20
37.784986
 30
0.0
 10
24.379567
 20
37.777282
 30
0.0
 10
24.460871
 20
37.771016
 30
0.0
 10
24.542387
 20
37.766049
 30
0.0
 10
24.623994
 20
37.762267
 30
0.0
 10
24.705570
 20
37.759445
 30
0.0
 10
24.786993
 20
37.757752
 30
0.0
 10
24.868143
 20
37.756623
 30
0.0
 10
24.948897
 20
37.756341
 30
0.0
 10
25.029135
 20
37.756462
 30
0.0
 10
25.108734
 20
37.757027
 30
0.0
 10
25.187573
 20
37.757873
 30
0.0
 10
25.265532
 20
37.758720
 30
0.0
 10
25.342488
 20
37.759567
 30
0.0
 10
25.418320
 20
37.760131
 30
0.0
 10
25.492907
 20
37.760696
 30
0.0
 10
25.566127
 20
37.760727
 30
0.0
 10
25.572604
 20
37.760727
 30
0.0
 10
25.591485
 20
37.760727
 30
0.0
 10
25.621939
 20
37.760727
 30
0.0
 10
25.663142
 20
37.760727
 30
0.0
 10
25.714267
 20
37.760727
 30
0.0
 10
25.774488
 20
37.760727
 30
0.0
 10
25.842976
 20
37.760727
 30
0.0
 10
25.918906
 20
37.760727
 30
0.0
 10
26.001450
 20
37.760727
 30
0.0
 10
26.089782
 20
37.760727
 30
0.0
 10
26.183075
 20
37.760727
 30
0.0
 10
26.280503
 20
37.760727
 30
0.0
 10
26.381237
 20
37.760727
 30
0.0
 10
26.484452
 20
37.760727
 30
0.0
 10
26.589320
 20
37.760727
 30
0.0
 10
26.695016
 20
37.760727
 30
0.0
 10
26.800711
 20
37.760727
 30
0.0
 10
26.905579
 20
37.760727
 30
0.0
 10
27.008794
 20
37.760727
 30
0.0
 10
27.109529
 20
37.760727
 30
0.0
 10
27.206956
 20
37.760727
 30
0.0
 10
27.300249
 20
37.760727
 30
0.0
 10
27.388581
 20
37.760727
 30
0.0
 10
27.471125
 20
37.760727
 30
0.0
 10
27.547055
 20
37.760727
 30
0.0
 10
27.615544
 20
37.760727
 30
0.0
 10
27.675764
 20
37.760727
 30
0.0
 10
27.726889
 20
37.760727
 30
0.0
 10
27.768092
 20
37.760727
 30
0.0
 10
27.798547
 20
37.760727
 30
0.0
 10
27.817427
 20
37.760727
 30
0.0
 10
27.823904
 20
37.760727
 30
0.0
 10
27.879612
 20
37.760529
 30
0.0
 10
27.937610
 20
37.759965
 30
0.0
 10
27.997727
 20
37.759118
 30
0.0
 10
28.059789
 20
37.757989
 30
0.0
 10
28.123622
 20
37.756860
 30
0.0
 10
28.189054
 20
37.756013
 30
0.0
 10
28.255911
 20
37.755167
 30
0.0
 10
28.324023
 20
37.754602
 30
0.0
 10
28.393209
 20
37.754320
 30
0.0
 10
28.463305
 20
37.754385
 30
0.0
 10
28.534131
 20
37.754949
 30
0.0
 10
28.605520
 20
37.756078
 30
0.0
 10
28.677291
 20
37.757772
 30
0.0
 10
28.749278
 20
37.760312
 30
0.0
 10
28.821307
 20
37.763670
 30
0.0
 10
28.893200
 20
37.767988
 30
0.0
 10
28.964788
 20
37.773350
 30
0.0
 10
29.035897
 20
37.779841
 30
0.0
 10
29.106354
 20
37.787546
 30
0.0
 10
29.175984
 20
37.796549
 30
0.0
 10
29.244615
 20
37.806963
 30
0.0
 10
29.312074
 20
37.818873
 30
0.0
 10
29.378188
 20
37.832363
 30
0.0
 10
29.442785
 20
37.847518
 30
0.0
 10
29.505690
 20
37.864452
 30
0.0
 10
29.566732
 20
37.883248
 30
0.0
 10
29.625736
 20
37.903991
 30
0.0
 10
29.682527
 20
37.926766
 30
0.0
 10
29.736934
 20
37.951658
 30
0.0
 10
29.788784
 20
37.978780
 30
0.0
 10
29.837908
 20
38.008221
 30
0.0
 10
29.884124
 20
38.040070
 30
0.0
 10
29.944957
 20
38.089772
 30
0.0
 10
30.003386
 20
38.146663
 30
0.0
 10
30.059864
 20
38.210453
 30
0.0
 10
30.114850
 20
38.280871
 30
0.0
 10
30.168799
 20
38.357635
 30
0.0
 10
30.222170
 20
38.440467
 30
0.0
 10
30.275420
 20
38.529088
 30
0.0
 10
30.329005
 20
38.623217
 30
0.0
 10
30.383381
 20
38.722579
 30
0.0
 10
30.439010
 20
38.826892
 30
0.0
 10
30.496343
 20
38.935877
 30
0.0
 10
30.555844
 20
39.049257
 30
0.0
 10
30.617964
 20
39.166752
 30
0.0
 10
30.683166
 20
39.288085
 30
0.0
 10
30.751901
 20
39.412974
 30
0.0
 10
30.824630
 20
39.541140
 30
0.0
 10
30.901807
 20
39.672305
 30
0.0
 10
30.983888
 20
39.806194
 30
0.0
 10
31.071335
 20
39.942527
 30
0.0
 10
31.164598
 20
40.081025
 30
0.0
 10
31.264138
 20
40.221411
 30
0.0
 10
31.370408
 20
40.363408
 30
0.0
 10
31.483867
 20
40.506732
 30
0.0
 10
31.604974
 20
40.651108
 30
0.0
 10
31.734184
 20
40.796258
 30
0.0
 10
31.871954
 20
40.941904
 30
0.0
 10
32.018738
 20
41.087762
 30
0.0
 10
32.174998
 20
41.233561
 30
0.0
 10
32.341188
 20
41.379013
 30
0.0
 10
32.517769
 20
41.523844
 30
0.0
 10
32.705190
 20
41.667780
 30
0.0
 10
32.903902
 20
41.810556
 30
0.0
 10
33.260360
 20
42.041425
 30
0.0
 10
33.621147
 20
42.242410
 30
0.0
 10
33.985485
 20
42.414159
 30
0.0
 10
34.352569
 20
42.557370
 30
0.0
 10
34.721597
 20
42.672728
 30
0.0
 10
35.091768
 20
42.760917
 30
0.0
 10
35.462289
 20
42.822625
 30
0.0
 10
35.832356
 20
42.858529
 30
0.0
 10
36.201169
 20
42.869310
 30
0.0
 10
36.567931
 20
42.855679
 30
0.0
 10
36.931843
 20
42.818293
 30
0.0
 10
37.292102
 20
42.757849
 30
0.0
 10
37.647908
 20
42.675028
 30
0.0
 10
37.998468
 20
42.570516
 30
0.0
 10
38.342976
 20
42.444995
 30
0.0
 10
38.680638
 20
42.299156
 30
0.0
 10
39.010652
 20
42.133678
 30
0.0
 10
39.332216
 20
41.949246
 30
0.0
 10
39.644534
 20
41.746548
 30
0.0
 10
39.946809
 20
41.526268
 30
0.0
 10
40.238234
 20
41.289089
 30
0.0
 10
40.518015
 20
41.035698
 30
0.0
 10
40.785350
 20
40.766777
 30
0.0
 10
41.039443
 20
40.483011
 30
0.0
 10
41.279493
 20
40.185086
 30
0.0
 10
41.504698
 20
39.873688
 30
0.0
 10
41.714262
 20
39.549496
 30
0.0
 10
41.907384
 20
39.213203
 30
0.0
 10
42.083262
 20
38.865488
 30
0.0
 10
42.241100
 20
38.507041
 30
0.0
 10
42.380100
 20
38.138537
 30
0.0
 10
42.499461
 20
37.760670
 30
0.0
 10
42.514023
 20
37.760670
 30
0.0
 10
42.556503
 20
37.760670
 30
0.0
 10
42.625027
 20
37.760670
 30
0.0
 10
42.717734
 20
37.760670
 30
0.0
 10
42.832765
 20
37.760670
 30
0.0
 10
42.968260
 20
37.760670
 30
0.0
 10
43.122359
 20
37.760670
 30
0.0
 10
43.293202
 20
37.760670
 30
0.0
 10
43.478927
 20
37.760670
 30
0.0
 10
43.677673
 20
37.760670
 30
0.0
 10
43.887582
 20
37.760670
 30
0.0
 10
44.106795
 20
37.760670
 30
0.0
 10
44.333448
 20
37.760670
 30
0.0
 10
44.565683
 20
37.760670
 30
0.0
 10
44.801638
 20
37.760670
 30
0.0
 10
45.039452
 20
37.760670
 30
0.0
 10
45.277267
 20
37.760670
 30
0.0
 10
45.513221
 20
37.760670
 30
0.0
 10
45.745456
 20
37.760670
 30
0.0
 10
45.972109
 20
37.760670
 30
0.0
 10
46.191320
 20
37.760670
 30
0.0
 10
46.401231
 20
37.760670
 30
0.0
 10
46.599977
 20
37.760670
 30
0.0
 10
46.785702
 20
37.760670
 30
0.0
 10
46.956543
 20
37.760670
 30
0.0
 10
47.110642
 20
37.760670
 30
0.0
 10
47.246136
 20
37.760670
 30
0.0
 10
47.361170
 20
37.760670
 30
0.0
 10
47.453877
 20
37.760670
 30
0.0
 10
47.522401
 20
37.760670
 30
0.0
 10
47.564878
 20
37.760670
 30
0.0
 10
47.579441
 20
37.760670
 30
0.0
 10
47.640387
 20
37.761799
 30
0.0
 10
47.701499
 20
37.762928
 30
0.0
 10
47.762736
 20
37.764057
 30
0.0
 10
47.824065
 20
37.765186
 30
0.0
 10
47.885449
 20
37.766597
 30
0.0
 10
47.946855
 20
37.768290
 30
0.0
 10
48.008244
 20
37.770266
 30
0.0
 10
48.069582
 20
37.772806
 30
0.0
 10
48.130833
 20
37.775910
 30
0.0
 10
48.191962
 20
37.779664
 30
0.0
 10
48.252933
 20
37.784151
 30
0.0
 10
48.313710
 20
37.789457
 30
0.0
 10
48.374258
 20
37.795694
 30
0.0
 10
48.434538
 20
37.802947
 30
0.0
 10
48.494521
 20
37.811301
 30
0.0
 10
48.554166
 20
37.820868
 30
0.0
 10
48.613438
 20
37.831705
 30
0.0
 10
48.672304
 20
37.843926
 30
0.0
 10
48.730727
 20
37.857642
 30
0.0
 10
48.788670
 20
37.872910
 30
0.0
 10
48.846097
 20
37.889843
 30
0.0
 10
48.902973
 20
37.908526
 30
0.0
 10
48.959265
 20
37.929044
 30
0.0
 10
49.014936
 20
37.951509
 30
0.0
 10
49.069950
 20
37.975977
 30
0.0
 10
49.124269
 20
38.002563
 30
0.0
 10
49.177860
 20
38.031369
 30
0.0
 10
49.230686
 20
38.062473
 30
0.0
 10
49.282708
 20
38.095978
 30
0.0
 10
49.333895
 20
38.131970
 30
0.0
 10
49.384212
 20
38.170536
 30
0.0
 10
49.433638
 20
38.211754
 30
0.0
 10
49.505359
 20
38.278065
 30
0.0
 10
49.571997
 20
38.347718
 30
0.0
 10
49.633705
 20
38.420579
 30
0.0
 10
49.690680
 20
38.496457
 30
0.0
 10
49.743106
 20
38.575186
 30
0.0
 10
49.791171
 20
38.656587
 30
0.0
 10
49.835062
 20
38.740495
 30
0.0
 10
49.874963
 20
38.826734
 30
0.0
 10
49.911059
 20
38.915128
 30
0.0
 10
49.943537
 20
39.005510
 30
0.0
 10
49.972587
 20
39.097704
 30
0.0
 10
49.998382
 20
39.191540
 30
0.0
 10
50.021129
 20
39.286840
 30
0.0
 10
50.040997
 20
39.383437
 30
0.0
 10
50.058185
 20
39.481156
 30
0.0
 10
50.072860
 20
39.579827
 30
0.0
 10
50.085221
 20
39.679273
 30
0.0
 10
50.095466
 20
39.779324
 30
0.0
 10
50.103763
 20
39.879806
 30
0.0
 10
50.110311
 20
39.980548
 30
0.0
 10
50.115278
 20
40.081378
 30
0.0
 10
50.118862
 20
40.182120
 30
0.0
 10
50.121120
 20
40.282608
 30
0.0
 10
50.122531
 20
40.382661
 30
0.0
 10
50.123096
 20
40.482111
 30
0.0
 10
50.123000
 20
40.580784
 30
0.0
 10
50.122435
 20
40.678509
 30
0.0
 10
50.121589
 20
40.775114
 30
0.0
 10
50.120742
 20
40.870426
 30
0.0
 10
50.119895
 20
40.964268
 30
0.0
 10
50.119331
 20
41.056473
 30
0.0
 10
50.119257
 20
41.146865
 30
0.0
 10
50.119257
 20
41.161428
 30
0.0
 10
50.119257
 20
41.203905
 30
0.0
 10
50.119257
 20
41.272429
 30
0.0
 10
50.119257
 20
41.365136
 30
0.0
 10
50.119257
 20
41.480167
 30
0.0
 10
50.119257
 20
41.615662
 30
0.0
 10
50.119257
 20
41.769761
 30
0.0
 10
50.119257
 20
41.940604
 30
0.0
 10
50.119257
 20
42.126329
 30
0.0
 10
50.119257
 20
42.325076
 30
0.0
 10
50.119257
 20
42.534987
 30
0.0
 10
50.119257
 20
42.754197
 30
0.0
 10
50.119257
 20
42.980850
 30
0.0
 10
50.119257
 20
43.213085
 30
0.0
 10
50.119257
 20
43.449040
 30
0.0
 10
50.119257
 20
43.686854
 30
0.0
 10
50.119257
 20
43.924669
 30
0.0
 10
50.119257
 20
44.160621
 30
0.0
 10
50.119257
 20
44.392856
 30
0.0
 10
50.119257
 20
44.619508
 30
0.0
 10
50.119257
 20
44.838719
 30
0.0
 10
50.119257
 20
45.048630
 30
0.0
 10
50.119257
 20
45.247377
 30
0.0
 10
50.119257
 20
45.433101
 30
0.0
 10
50.119257
 20
45.603945
 30
0.0
 10
50.119257
 20
45.758044
 30
0.0
 10
50.119257
 20
45.893538
 30
0.0
 10
50.119257
 20
46.008569
 30
0.0
 10
50.119257
 20
46.101277
 30
0.0
 10
50.119257
 20
46.169800
 30
0.0
 10
50.119257
 20
46.212277
 30
0.0
 10
50.119257
 20
46.226840
 30
0.0
 10
50.107122
 20
46.226840
 30
0.0
 10
50.071723
 20
46.226840
 30
0.0
 10
50.014621
 20
46.226840
 30
0.0
 10
49.937365
 20
46.226840
 30
0.0
 10
49.841506
 20
46.226840
 30
0.0
 10
49.728591
 20
46.226840
 30
0.0
 10
49.600177
 20
46.226840
 30
0.0
 10
49.457808
 20
46.226840
 30
0.0
 10
49.303037
 20
46.226840
 30
0.0
 10
49.137415
 20
46.226840
 30
0.0
 10
48.962491
 20
46.226840
 30
0.0
 10
48.779814
 20
46.226840
 30
0.0
 10
48.590937
 20
46.226840
 30
0.0
 10
48.397406
 20
46.226840
 30
0.0
 10
48.200778
 20
46.226840
 30
0.0
 10
48.002599
 20
46.226840
 30
0.0
 10
47.804420
 20
46.226840
 30
0.0
 10
47.607793
 20
46.226840
 30
0.0
 10
47.414265
 20
46.226840
 30
0.0
 10
47.225387
 20
46.226840
 30
0.0
 10
47.042711
 20
46.226840
 30
0.0
 10
46.867786
 20
46.226840
 30
0.0
 10
46.702164
 20
46.226840
 30
0.0
 10
46.547394
 20
46.226840
 30
0.0
 10
46.405024
 20
46.226840
 30
0.0
 10
46.276607
 20
46.226840
 30
0.0
 10
46.163696
 20
46.226840
 30
0.0
 10
46.067836
 20
46.226840
 30
0.0
 10
45.990578
 20
46.226840
 30
0.0
 10
45.933476
 20
46.226840
 30
0.0
 10
45.898079
 20
46.226840
 30
0.0
 10
45.885944
 20
46.226840
 30
0.0
 10
45.885944
 20
46.255985
 30
0.0
 10
45.885944
 20
46.340943
 30
0.0
 10
45.885944
 20
46.477987
 30
0.0
 10
45.885944
 20
46.663404
 30
0.0
 10
45.885944
 20
46.893466
 30
0.0
 10
45.885944
 20
47.164458
 30
0.0
 10
45.885944
 20
47.472656
 30
0.0
 10
45.885944
 20
47.814340
 30
0.0
 10
45.885944
 20
48.185790
 30
0.0
 10
45.885944
 20
48.583286
 30
0.0
 10
45.885944
 20
49.003105
 30
0.0
 10
45.885944
 20
49.441529
 30
0.0
 10
45.885944
 20
49.894834
 30
0.0
 10
45.885944
 20
50.359302
 30
0.0
 10
45.885944
 20
50.831211
 30
0.0
 10
45.885944
 20
51.306840
 30
0.0
 10
45.885944
 20
51.782469
 30
0.0
 10
45.885944
 20
52.254379
 30
0.0
 10
45.885944
 20
52.718849
 30
0.0
 10
45.885944
 20
53.172154
 30
0.0
 10
45.885944
 20
53.610575
 30
0.0
 10
45.885944
 20
54.030395
 30
0.0
 10
45.885944
 20
54.427890
 30
0.0
 10
45.885944
 20
54.799340
 30
0.0
 10
45.885944
 20
55.141024
 30
0.0
 10
45.885944
 20
55.449222
 30
0.0
 10
45.885944
 20
55.720214
 30
0.0
 10
45.885944
 20
55.950279
 30
0.0
 10
45.885944
 20
56.135693
 30
0.0
 10
45.885944
 20
56.272738
 30
0.0
 10
45.885944
 20
56.357695
 30
0.0
 10
45.885944
 20
56.386840
 30
0.0
 10
45.898079
 20
56.386840
 30
0.0
 10
45.933476
 20
56.386840
 30
0.0
 10
45.990578
 20
56.386840
 30
0.0
 10
46.067836
 20
56.386840
 30
0.0
 10
46.163696
 20
56.386840
 30
0.0
 10
46.276607
 20
56.386840
 30
0.0
 10
46.405024
 20
56.386840
 30
0.0
 10
46.547394
 20
56.386840
 30
0.0
 10
46.702164
 20
56.386840
 30
0.0
 10
46.867786
 20
56.386840
 30
0.0
 10
47.042711
 20
56.386840
 30
0.0
 10
47.225387
 20
56.386840
 30
0.0
 10
47.414265
 20
56.386840
 30
0.0
 10
47.607793
 20
56.386840
 30
0.0
 10
47.804420
 20
56.386840
 30
0.0
 10
48.002599
 20
56.386840
 30
0.0
 10
48.200778
 20
56.386840
 30
0.0
 10
48.397406
 20
56.386840
 30
0.0
 10
48.590937
 20
56.386840
 30
0.0
 10
48.779814
 20
56.386840
 30
0.0
 10
48.962491
 20
56.386840
 30
0.0
 10
49.137415
 20
56.386840
 30
0.0
 10
49.303037
 20
56.386840
 30
0.0
 10
49.457808
 20
56.386840
 30
0.0
 10
49.600177
 20
56.386840
 30
0.0
 10
49.728591
 20
56.386840
 30
0.0
 10
49.841506
 20
56.386840
 30
0.0
 10
49.937365
 20
56.386840
 30
0.0
 10
50.014621
 20
56.386840
 30
0.0
 10
50.071723
 20
56.386840
 30
0.0
 10
50.107122
 20
56.386840
 30
0.0
 10
50.119257
 20
56.386840
 30
0.0
 10
50.119257
 20
56.403830
 30
0.0
 10
50.119257
 20
56.453388
 30
0.0
 10
50.119257
 20
56.533330
 30
0.0
 10
50.119257
 20
56.641489
 30
0.0
 10
50.119257
 20
56.775694
 30
0.0
 10
50.119257
 20
56.933773
 30
0.0
 10
50.119257
 20
57.113554
 30
0.0
 10
50.119257
 20
57.312870
 30
0.0
 10
50.119257
 20
57.529549
 30
0.0
 10
50.119257
 20
57.761423
 30
0.0
 10
50.119257
 20
58.006316
 30
0.0
 10
50.119257
 20
58.262063
 30
0.0
 10
50.119257
 20
58.526491
 30
0.0
 10
50.119257
 20
58.797430
 30
0.0
 10
50.119257
 20
59.072712
 30
0.0
 10
50.119257
 20
59.350162
 30
0.0
 10
50.119257
 20
59.627612
 30
0.0
 10
50.119257
 20
59.902894
 30
0.0
 10
50.119257
 20
60.173834
 30
0.0
 10
50.119257
 20
60.438262
 30
0.0
 10
50.119257
 20
60.694009
 30
0.0
 10
50.119257
 20
60.938904
 30
0.0
 10
50.119257
 20
61.170776
 30
0.0
 10
50.119257
 20
61.387455
 30
0.0
 10
50.119257
 20
61.586771
 30
0.0
 10
50.119257
 20
61.766554
 30
0.0
 10
50.119257
 20
61.924632
 30
0.0
 10
50.119257
 20
62.058836
 30
0.0
 10
50.119257
 20
62.166994
 30
0.0
 10
50.119257
 20
62.246938
 30
0.0
 10
50.119257
 20
62.296496
 30
0.0
 10
50.119257
 20
62.313497
 30
0.0
 10
50.118411
 20
62.383945
 30
0.0
 10
50.117564
 20
62.454508
 30
0.0
 10
50.116717
 20
62.525155
 30
0.0
 10
50.115589
 20
62.595851
 30
0.0
 10
50.114177
 20
62.666564
 30
0.0
 10
50.112484
 20
62.737260
 30
0.0
 10
50.110509
 20
62.807906
 30
0.0
 10
50.107969
 20
62.878470
 30
0.0
 10
50.104723
 20
62.948918
 30
0.0
 10
50.100772
 20
63.019218
 30
0.0
 10
50.095974
 20
63.089335
 30
0.0
 10
50.090245
 20
63.159237
 30
0.0
 10
50.083500
 20
63.228891
 30
0.0
 10
50.075626
 20
63.298264
 30
0.0
 10
50.066538
 20
63.367323
 30
0.0
 10
50.056124
 20
63.436035
 30
0.0
 10
50.044271
 20
63.504367
 30
0.0
 10
50.030922
 20
63.572284
 30
0.0
 10
50.015936
 20
63.639756
 30
0.0
 10
49.999228
 20
63.706748
 30
0.0
 10
49.980715
 20
63.773227
 30
0.0
 10
49.960282
 20
63.839161
 30
0.0
 10
49.937817
 20
63.904516
 30
0.0
 10
49.913235
 20
63.969259
 30
0.0
 10
49.886452
 20
64.033357
 30
0.0
 10
49.857347
 20
64.096777
 30
0.0
 10
49.825828
 20
64.159486
 30
0.0
 10
49.791798
 20
64.221451
 30
0.0
 10
49.755160
 20
64.282645
 30
0.0
 10
49.715818
 20
64.343033
 30
0.0
 10
49.673651
 20
64.402570
 30
0.0
 10
49.628549
 20
64.461207
 30
0.0
 10
49.549256
 20
64.554593
 30
0.0
 10
49.466444
 20
64.641678
 30
0.0
 10
49.380338
 20
64.722732
 30
0.0
 10
49.291079
 20
64.797956
 30
0.0
 10
49.198829
 20
64.867565
 30
0.0
 10
49.103751
 20
64.931777
 30
0.0
 10
49.006004
 20
64.990809
 30
0.0
 10
48.905753
 20
65.044878
 30
0.0
 10
48.803156
 20
65.094201
 30
0.0
 10
48.698379
 20
65.138995
 30
0.0
 10
48.591580
 20
65.179478
 30
0.0
 10
48.482922
 20
65.215865
 30
0.0
 10
48.372567
 20
65.248375
 30
0.0
 10
48.260675
 20
65.277224
 30
0.0
 10
48.147410
 20
65.302629
 30
0.0
 10
48.032935
 20
65.324809
 30
0.0
 10
47.917410
 20
65.343978
 30
0.0
 10
47.800997
 20
65.360355
 30
0.0
 10
47.683857
 20
65.374156
 30
0.0
 10
47.566151
 20
65.385597
 30
0.0
 10
47.448041
 20
65.394899
 30
0.0
 10
47.329691
 20
65.402273
 30
0.0
 10
47.211262
 20
65.407943
 30
0.0
 10
47.092915
 20
65.412120
 30
0.0
 10
46.974811
 20
65.415024
 30
0.0
 10
46.857116
 20
65.416887
 30
0.0
 10
46.739985
 20
65.417903
 30
0.0
 10
46.623585
 20
65.418298
 30
0.0
 10
46.508075
 20
65.418281
 30
0.0
 10
46.393616
 20
65.418076
 30
0.0
 10
46.280375
 20
65.417897
 30
0.0
 10
46.168508
 20
65.417959
 30
0.0
 10
46.152308
 20
65.417959
 30
0.0
 10
46.105112
 20
65.417959
 30
0.0
 10
46.028974
 20
65.417959
 30
0.0
 10
45.925966
 20
65.417959
 30
0.0
 10
45.798153
 20
65.417959
 30
0.0
 10
45.647602
 20
65.417959
 30
0.0
 10
45.476383
 20
65.417959
 30
0.0
 10
45.286557
 20
65.417959
 30
0.0
 10
45.080197
 20
65.417959
 30
0.0
 10
44.859366
 20
65.417959
 30
0.0
 10
44.626132
 20
65.417959
 30
0.0
 10
44.382563
 20
65.417959
 30
0.0
 10
44.130728
 20
65.417959
 30
0.0
 10
43.872689
 20
65.417959
 30
0.0
 10
43.610516
 20
65.417959
 30
0.0
 10
43.346277
 20
65.417959
 30
0.0
 10
43.082038
 20
65.417959
 30
0.0
 10
42.819865
 20
65.417959
 30
0.0
 10
42.561829
 20
65.417959
 30
0.0
 10
42.309994
 20
65.417959
 30
0.0
 10
42.066424
 20
65.417959
 30
0.0
 10
41.833190
 20
65.417959
 30
0.0
 10
41.612360
 20
65.417959
 30
0.0
 10
41.405999
 20
65.417959
 30
0.0
 10
41.216174
 20
65.417959
 30
0.0
 10
41.044952
 20
65.417959
 30
0.0
 10
40.894404
 20
65.417959
 30
0.0
 10
40.766591
 20
65.417959
 30
0.0
 10
40.663580
 20
65.417959
 30
0.0
 10
40.587445
 20
65.417959
 30
0.0
 10
40.540246
 20
65.417959
 30
0.0
 10
40.524046
 20
65.417959
 30
0.0
 10
40.521506
 20
65.524921
 30
0.0
 10
40.518656
 20
65.632503
 30
0.0
 10
40.515354
 20
65.740631
 30
0.0
 10
40.511516
 20
65.849230
 30
0.0
 10
40.507028
 20
65.958226
 30
0.0
 10
40.501779
 20
66.067545
 30
0.0
 10
40.495683
 20
66.177111
 30
0.0
 10
40.488599
 20
66.286851
 30
0.0
 10
40.480443
 20
66.396690
 30
0.0
 10
40.471130
 20
66.506555
 30
0.0
 10
40.460546
 20
66.616369
 30
0.0
 10
40.448552
 20
66.726059
 30
0.0
 10
40.435062
 20
66.835551
 30
0.0
 10
40.419991
 20
66.944771
 30
0.0
 10
40.403227
 20
67.053643
 30
0.0
 10
40.384657
 20
67.162093
 30
0.0
 10
40.364167
 20
67.270047
 30
0.0
 10
40.341674
 20
67.377431
 30
0.0
 10
40.317064
 20
67.484169
 30
0.0
 10
40.290225
 20
67.590189
 30
0.0
 10
40.261052
 20
67.695414
 30
0.0
 10
40.229443
 20
67.799772
 30
0.0
 10
40.195294
 20
67.903187
 30
0.0
 10
40.158503
 20
68.005584
 30
0.0
 10
40.118961
 20
68.106891
 30
0.0
 10
40.076563
 20
68.207031
 30
0.0
 10
40.031210
 20
68.305932
 30
0.0
 10
39.982792
 20
68.403518
 30
0.0
 10
39.931205
 20
68.499715
 30
0.0
 10
39.876343
 20
68.594448
 30
0.0
 10
39.818104
 20
68.687643
 30
0.0
 10
39.756382
 20
68.779226
 30
0.0
 10
39.756368
 20
68.779172
 30
0.0
 10
39.756354
 20
68.779117
 30
0.0
 10
39.756342
 20
68.779063
 30
0.0
 10
39.756328
 20
68.779008
 30
0.0
 10
39.756388
 20
68.779375
 30
0.0
 10
39.756388
 20
68.779385
 30
0.0
 10
39.756388
 20
68.779385
 30
0.0
  0
LWPOLYLINE
  5
104
100
AcDbEntity
  8
0
 62
7
100
AcDbPolyline
 90
135
 70
0
 10
55.205232
 20
54.891229
 30
0.0
 10
55.311424
 20
54.797153
 30
0.0
 10
55.256932
 20
54.568646
 30
0.0
 10
55.140747
 20
54.286291
 30
0.0
 10
55.061858
 20
54.030677
 30
0.0
 10
55.036599
 20
53.815234
 30
0.0
 10
55.015206
 20
53.599678
 30
0.0
 10
54.997511
 20
53.384018
 30
0.0
 10
54.983287
 20
53.168254
 30
0.0
 10
54.972393
 20
52.952390
 30
0.0
 10
54.964604
 20
52.736434
 30
0.0
 10
54.959750
 20
52.520387
 30
0.0
 10
54.957492
 20
52.304259
 30
0.0
 10
54.958056
 20
52.088048
 30
0.0
 10
54.960878
 20
51.871764
 30
0.0
 10
54.965902
 20
51.655410
 30
0.0
 10
54.972901
 20
51.438991
 30
0.0
 10
54.981706
 20
51.222509
 30
0.0
 10
54.992149
 20
51.005971
 30
0.0
 10
55.004058
 20
50.789383
 30
0.0
 10
55.017210
 20
50.572746
 30
0.0
 10
55.031434
 20
50.356067
 30
0.0
 10
55.046533
 20
50.139352
 30
0.0
 10
55.062337
 20
49.922602
 30
0.0
 10
55.078650
 20
49.705824
 30
0.0
 10
55.095301
 20
49.489024
 30
0.0
 10
55.112093
 20
49.272204
 30
0.0
 10
55.128829
 20
49.055370
 30
0.0
 10
55.145339
 20
48.838525
 30
0.0
 10
55.161426
 20
48.621673
 30
0.0
 10
55.176891
 20
48.404825
 30
0.0
 10
55.191567
 20
48.187977
 30
0.0
 10
55.205255
 20
47.971140
 30
0.0
 10
55.212536
 20
47.965326
 30
0.0
 10
55.233731
 20
47.948393
 30
0.0
 10
55.267916
 20
47.921074
 30
0.0
 10
55.314167
 20
47.884094
 30
0.0
 10
55.371554
 20
47.838210
 30
0.0
 10
55.439152
 20
47.784162
 30
0.0
 10
55.516032
 20
47.722694
 30
0.0
 10
55.601263
 20
47.654546
 30
0.0
 10
55.693920
 20
47.580463
 30
0.0
 10
55.793070
 20
47.501186
 30
0.0
 10
55.897794
 20
47.417454
 30
0.0
 10
56.007155
 20
47.330013
 30
0.0
 10
56.120230
 20
47.239603
 30
0.0
 10
56.236088
 20
47.146969
 30
0.0
 10
56.353803
 20
47.052848
 30
0.0
 10
56.472447
 20
46.957988
 30
0.0
 10
56.591090
 20
46.863127
 30
0.0
 10
56.708805
 20
46.769006
 30
0.0
 10
56.824663
 20
46.676372
 30
0.0
 10
56.937738
 20
46.585962
 30
0.0
 10
57.047099
 20
46.498521
 30
0.0
 10
57.151820
 20
46.414789
 30
0.0
 10
57.250973
 20
46.335510
 30
0.0
 10
57.343630
 20
46.261426
 30
0.0
 10
57.428861
 20
46.193278
 30
0.0
 10
57.505741
 20
46.131813
 30
0.0
 10
57.573339
 20
46.077765
 30
0.0
 10
57.630726
 20
46.031881
 30
0.0
 10
57.676977
 20
45.994901
 30
0.0
 10
57.711162
 20
45.967582
 30
0.0
 10
57.732357
 20
45.950649
 30
0.0
 10
57.739638
 20
45.944835
 30
0.0
 10
57.739638
 20
45.976410
 30
0.0
 10
57.739638
 20
46.068446
 30
0.0
 10
57.739638
 20
46.216911
 30
0.0
 10
57.739638
 20
46.417778
 30
0.0
 10
57.739638
 20
46.667014
 30
0.0
 10
57.739638
 20
46.960587
 30
0.0
 10
57.739638
 20
47.294467
 30
0.0
 10
57.739638
 20
47.664627
 30
0.0
 10
57.739638
 20
48.067031
 30
0.0
 10
57.739638
 20
48.497651
 30
0.0
 10
57.739638
 20
48.952455
 30
0.0
 10
57.739638
 20
49.427412
 30
0.0
 10
57.739638
 20
49.918493
 30
0.0
 10
57.739638
 20
50.421667
 30
0.0
 10
57.739638
 20
50.932904
 30
0.0
 10
57.739638
 20
51.448168
 30
0.0
 10
57.739638
 20
51.963433
 30
0.0
 10
57.739638
 20
52.474670
 30
0.0
 10
57.739638
 20
52.977844
 30
0.0
 10
57.739638
 20
53.468925
 30
0.0
 10
57.739638
 20
53.943882
 30
0.0
 10
57.739638
 20
54.398686
 30
0.0
 10
57.739638
 20
54.829306
 30
0.0
 10
57.739638
 20
55.231710
 30
0.0
 10
57.739638
 20
55.601867
 30
0.0
 10
57.739638
 20
55.935750
 30
0.0
 10
57.739638
 20
56.229323
 30
0.0
 10
57.739638
 20
56.478559
 30
0.0
 10
57.739638
 20
56.679425
 30
0.0
 10
57.739638
 20
56.827891
 30
0.0
 10
57.739638
 20
56.919927
 30
0.0
 10
57.739638
 20
56.951502
 30
0.0
 10
57.732357
 20
56.945603
 30
0.0
 10
57.711162
 20
56.928388
 30
0.0
 10
57.676977
 20
56.900589
 30
0.0
 10
57.630726
 20
56.862991
 30
0.0
 10
57.573336
 20
56.816340
 30
0.0
 10
57.505741
 20
56.761388
 30
0.0
 10
57.428861
 20
56.698890
 30
0.0
 10
57.343630
 20
56.629605
 30
0.0
 10
57.250973
 20
56.554285
 30
0.0
 10
57.151823
 20
56.473680
 30
0.0
 10
57.047099
 20
56.388550
 30
0.0
 10
56.937738
 20
56.299648
 30
0.0
 10
56.824663
 20
56.207728
 30
0.0
 10
56.708805
 20
56.113545
 30
0.0
 10
56.591090
 20
56.017851
 30
0.0
 10
56.472447
 20
55.921405
 30
0.0
 10
56.353803
 20
55.824958
 30
0.0
 10
56.236088
 20
55.729265
 30
0.0
 10
56.120230
 20
55.635082
 30
0.0
 10
56.007155
 20
55.543162
 30
0.0
 10
55.897794
 20
55.454259
 30
0.0
 10
55.793073
 20
55.369127
 30
0.0
 10
55.693920
 20
55.288524
 30
0.0
 10
55.601263
 20
55.213202
 30
0.0
 10
55.516032
 20
55.143916
 30
0.0
 10
55.439152
 20
55.081421
 30
0.0
 10
55.371557
 20
55.026470
 30
0.0
 10
55.314167
 20
54.979818
 30
0.0
 10
55.267916
 20
54.942221
 30
0.0
 10
55.233731
 20
54.914422
 30
0.0
 10
55.212536
 20
54.897206
 30
0.0
 10
55.205255
 20
54.891308
 30
0.0
 10
55.205257
 20
54.891308
 30
0.0
 10
55.205260
 20
54.891308
 30
0.0
 10
55.205263
 20
54.891308
 30
0.0
 10
55.205266
 20
54.891308
 30
0.0
 10
55.205232
 20
54.891229
 30
0.0
 10
55.205232
 20
54.891229
 30
0.0
  0
LWPOLYLINE
  5
105
100
AcDbEntity
  8
0
 62
7
100
AcDbPolyline
 90
135
 70
0
 10
48.313365
 20
54.123584
 30
0.0
 10
48.248753
 20
54.060197
 30
0.0
 10
48.189698
 20
53.977721
 30
0.0
 10
48.135969
 20
53.877331
 30
0.0
 10
48.087339
 20
53.760212
 30
0.0
 10
48.043578
 20
53.627545
 30
0.0
 10
48.004453
 20
53.480510
 30
0.0
 10
47.969737
 20
53.320290
 30
0.0
 10
47.939201
 20
53.148066
 30
0.0
 10
47.912615
 20
52.965017
 30
0.0
 10
47.889755
 20
52.772327
 30
0.0
 10
47.870367
 20
52.571179
 30
0.0
 10
47.854252
 20
52.362749
 30
0.0
 10
47.841157
 20
52.148221
 30
0.0
 10
47.830856
 20
51.928779
 30
0.0
 10
47.823123
 20
51.705600
 30
0.0
 10
47.817732
 20
51.479868
 30
0.0
 10
47.814459
 20
51.252763
 30
0.0
 10
47.813047
 20
51.025467
 30
0.0
 10
47.813279
 20
50.799162
 30
0.0
 10
47.814972
 20
50.575027
 30
0.0
 10
47.817823
 20
50.354244
 30
0.0
 10
47.821633
 20
50.137997
 30
0.0
 10
47.826176
 20
49.927465
 30
0.0
 10
47.831200
 20
49.723827
 30
0.0
 10
47.836506
 20
49.528270
 30
0.0
 10
47.841840
 20
49.341972
 30
0.0
 10
47.846976
 20
49.166117
 30
0.0
 10
47.851718
 20
49.001880
 30
0.0
 10
47.855782
 20
48.850448
 30
0.0
 10
47.858971
 20
48.713001
 30
0.0
 10
47.860946
 20
48.590719
 30
0.0
 10
47.861793
 20
48.484784
 30
0.0
 10
47.875565
 20
48.484784
 30
0.0
 10
47.915683
 20
48.484784
 30
0.0
 10
47.980400
 20
48.484784
 30
0.0
 10
48.067956
 20
48.484784
 30
0.0
 10
48.176598
 20
48.484784
 30
0.0
 10
48.304566
 20
48.484784
 30
0.0
 10
48.450102
 20
48.484784
 30
0.0
 10
48.611454
 20
48.484784
 30
0.0
 10
48.786861
 20
48.484784
 30
0.0
 10
48.974567
 20
48.484784
 30
0.0
 10
49.172814
 20
48.484784
 30
0.0
 10
49.379846
 20
48.484784
 30
0.0
 10
49.593909
 20
48.484784
 30
0.0
 10
49.813241
 20
48.484784
 30
0.0
 10
50.036087
 20
48.484784
 30
0.0
 10
50.260690
 20
48.484784
 30
0.0
 10
50.485291
 20
48.484784
 30
0.0
 10
50.708137
 20
48.484784
 30
0.0
 10
50.927468
 20
48.484784
 30
0.0
 10
51.141531
 20
48.484784
 30
0.0
 10
51.348564
 20
48.484784
 30
0.0
 10
51.546811
 20
48.484784
 30
0.0
 10
51.734517
 20
48.484784
 30
0.0
 10
51.909924
 20
48.484784
 30
0.0
 10
52.071276
 20
48.484784
 30
0.0
 10
52.216815
 20
48.484784
 30
0.0
 10
52.344780
 20
48.484784
 30
0.0
 10
52.453421
 20
48.484784
 30
0.0
 10
52.540978
 20
48.484784
 30
0.0
 10
52.605694
 20
48.484784
 30
0.0
 10
52.645812
 20
48.484784
 30
0.0
 10
52.659585
 20
48.484784
 30
0.0
 10
52.659585
 20
48.501774
 30
0.0
 10
52.659585
 20
48.551332
 30
0.0
 10
52.659585
 20
48.631275
 30
0.0
 10
52.659585
 20
48.739433
 30
0.0
 10
52.659585
 20
48.873639
 30
0.0
 10
52.659585
 20
49.031714
 30
0.0
 10
52.659585
 20
49.211498
 30
0.0
 10
52.659585
 20
49.410815
 30
0.0
 10
52.659585
 20
49.627494
 30
0.0
 10
52.659585
 20
49.859365
 30
0.0
 10
52.659585
 20
50.104260
 30
0.0
 10
52.659585
 20
50.360007
 30
0.0
 10
52.659585
 20
50.624435
 30
0.0
 10
52.659585
 20
50.895374
 30
0.0
 10
52.659585
 20
51.170657
 30
0.0
 10
52.659585
 20
51.448106
 30
0.0
 10
52.659585
 20
51.725556
 30
0.0
 10
52.659585
 20
52.000839
 30
0.0
 10
52.659585
 20
52.271778
 30
0.0
 10
52.659585
 20
52.536206
 30
0.0
 10
52.659585
 20
52.791953
 30
0.0
 10
52.659585
 20
53.036845
 30
0.0
 10
52.659585
 20
53.268719
 30
0.0
 10
52.659585
 20
53.485398
 30
0.0
 10
52.659585
 20
53.684715
 30
0.0
 10
52.659585
 20
53.864496
 30
0.0
 10
52.659585
 20
54.022574
 30
0.0
 10
52.659585
 20
54.156779
 30
0.0
 10
52.659585
 20
54.264938
 30
0.0
 10
52.659585
 20
54.344880
 30
0.0
 10
52.659585
 20
54.394439
 30
0.0
 10
52.659585
 20
54.411428
 30
0.0
 10
52.574227
 20
54.411993
 30
0.0
 10
52.477450
 20
54.413122
 30
0.0
 10
52.370070
 20
54.415097
 30
0.0
 10
52.252900
 20
54.417355
 30
0.0
 10
52.126758
 20
54.420177
 30
0.0
 10
51.992465
 20
54.423169
 30
0.0
 10
51.850832
 20
54.426245
 30
0.0
 10
51.702676
 20
54.429265
 30
0.0
 10
51.548817
 20
54.432087
 30
0.0
 10
51.390070
 20
54.434627
 30
0.0
 10
51.227251
 20
54.436603
 30
0.0
 10
51.061174
 20
54.438014
 30
0.0
 10
50.892659
 20
54.438578
 30
0.0
 10
50.722522
 20
54.438358
 30
0.0
 10
50.551577
 20
54.437229
 30
0.0
 10
50.380643
 20
54.434689
 30
0.0
 10
50.210537
 20
54.430964
 30
0.0
 10
50.042072
 20
54.425799
 30
0.0
 10
49.876069
 20
54.419054
 30
0.0
 10
49.713343
 20
54.410587
 30
0.0
 10
49.554709
 20
54.400258
 30
0.0
 10
49.400982
 20
54.387925
 30
0.0
 10
49.252982
 20
54.373447
 30
0.0
 10
49.111524
 20
54.356683
 30
0.0
 10
48.977426
 20
54.337492
 30
0.0
 10
48.851501
 20
54.315733
 30
0.0
 10
48.734571
 20
54.291292
 30
0.0
 10
48.627448
 20
54.264001
 30
0.0
 10
48.530950
 20
54.233722
 30
0.0
 10
48.445891
 20
54.200323
 30
0.0
 10
48.373092
 20
54.163666
 30
0.0
 10
48.313365
 20
54.123607
 30
0.0
 10
48.313382
 20
54.123604
 30
0.0
 10
48.313399
 20
54.123601
 30
0.0
 10
48.313419
 20
54.123601
 30
0.0
 10
48.313436
 20
54.123598
 30
0.0
 10
48.313365
 20
54.123584
 30
0.0
 10
48.313365
 20
54.123584
 30
0.0
  0
ENDSEC
  0
SECTION
  2
OBJECTS
  0
DICTIONARY
  5
C
330
0
100
AcDbDictionary
  3
ACAD_GROUP
350
D
  3
ACAD_MLINESTYLE
350
17
  0
DICTIONARY
  5
D
330
C
100
AcDbDictionary
  0
DICTIONARY
  5
1A
330
C
100
AcDbDictionary
  0
DICTIONARY
  5
17
330
C
100
AcDbDictionary
  3
STANDARD
350
18
  0
DICTIONARY
  5
19
330
C
100
AcDbDictionary
  0
ENDSEC
  0
EOF
